G04*
G04 #@! TF.GenerationSoftware,Altium Limited,Altium Designer,21.8.1 (53)*
G04*
G04 Layer_Color=16711935*
%FSLAX44Y44*%
%MOMM*%
G71*
G04*
G04 #@! TF.SameCoordinates,3EE182DE-69F7-443D-8643-E3C288D73DFE*
G04*
G04*
G04 #@! TF.FilePolarity,Negative*
G04*
G01*
G75*
%ADD20R,0.9500X0.9500*%
%ADD22R,0.9500X0.9500*%
%ADD29R,1.3500X1.1000*%
%ADD31R,0.7000X1.1000*%
%ADD32C,1.1000*%
%ADD46C,7.1000*%
%ADD47C,1.9000*%
%ADD48P,2.0566X8X292.5*%
%ADD49P,2.0566X8X22.5*%
%ADD50C,0.9000*%
%ADD51C,2.1000*%
%ADD52R,2.1000X2.1000*%
%ADD53R,2.1000X2.1000*%
%ADD54C,1.6000*%
%ADD55P,1.7318X8X22.5*%
%ADD56R,1.7000X1.7000*%
%ADD57C,1.7000*%
%ADD58C,10.1000*%
%ADD59C,0.7000*%
%ADD111R,1.9000X1.2000*%
D20*
X269000Y585000D02*
D03*
Y599000D02*
D03*
X970000Y593000D02*
D03*
Y607000D02*
D03*
Y293000D02*
D03*
Y307000D02*
D03*
X220000Y580000D02*
D03*
Y594000D02*
D03*
X360000Y293000D02*
D03*
Y307000D02*
D03*
X377000Y207000D02*
D03*
Y221000D02*
D03*
X395000Y221000D02*
D03*
Y207000D02*
D03*
X1018740Y209500D02*
D03*
Y223500D02*
D03*
X998740D02*
D03*
Y209500D02*
D03*
X380000Y506000D02*
D03*
Y520000D02*
D03*
X240000Y580000D02*
D03*
Y594000D02*
D03*
Y493000D02*
D03*
Y507000D02*
D03*
X360000Y607000D02*
D03*
Y593000D02*
D03*
Y520000D02*
D03*
Y506000D02*
D03*
X990000D02*
D03*
Y520000D02*
D03*
X970000D02*
D03*
Y506000D02*
D03*
D22*
X857000Y569000D02*
D03*
Y269000D02*
D03*
X249000Y268000D02*
D03*
X843000Y569000D02*
D03*
Y269000D02*
D03*
X235000Y268000D02*
D03*
D29*
X390000Y310000D02*
D03*
Y290000D02*
D03*
X1000000D02*
D03*
Y310000D02*
D03*
X210000Y490000D02*
D03*
Y510000D02*
D03*
X390000Y610000D02*
D03*
Y590000D02*
D03*
X1000000Y610000D02*
D03*
Y590000D02*
D03*
D31*
X980000Y270000D02*
D03*
X970500Y246000D02*
D03*
X989500D02*
D03*
X370000Y570000D02*
D03*
X360500Y546000D02*
D03*
X379500D02*
D03*
X370000Y270000D02*
D03*
X360500Y246000D02*
D03*
X379500D02*
D03*
X220500Y554000D02*
D03*
X239500D02*
D03*
X230000Y530000D02*
D03*
X989500Y546000D02*
D03*
X970500D02*
D03*
X980000Y570000D02*
D03*
D32*
X1065000Y585000D02*
D03*
X439000Y291000D02*
D03*
X1043000Y290510D02*
D03*
X226000Y424000D02*
D03*
X446000Y592000D02*
D03*
X1164200Y251750D02*
D03*
Y239050D02*
D03*
Y226350D02*
D03*
Y213650D02*
D03*
X1151500D02*
D03*
Y226350D02*
D03*
Y239050D02*
D03*
Y251750D02*
D03*
D46*
X605000Y445000D02*
D03*
D47*
X1175150Y398850D02*
D03*
X1149750D02*
D03*
X1175150Y424250D02*
D03*
X1149750D02*
D03*
X1175150Y449650D02*
D03*
X1149750D02*
D03*
X1175150Y551250D02*
D03*
X1149750Y525850D02*
D03*
X1175150D02*
D03*
X1149750Y500450D02*
D03*
X1175150D02*
D03*
X1149750Y475050D02*
D03*
X1175150D02*
D03*
X273250Y120000D02*
D03*
X222450D02*
D03*
X247850D02*
D03*
X273250Y94600D02*
D03*
X247850D02*
D03*
X171650Y120000D02*
D03*
X197050Y94600D02*
D03*
Y120000D02*
D03*
X222450Y94600D02*
D03*
D48*
X1149750Y551250D02*
D03*
D49*
X171650Y94600D02*
D03*
D50*
X41250Y435250D02*
D03*
X13750D02*
D03*
D51*
X117250Y273507D02*
D03*
Y222707D02*
D03*
Y248107D02*
D03*
X47958Y291407D02*
D03*
X455400Y340000D02*
D03*
X430000D02*
D03*
D52*
X117250Y197307D02*
D03*
D53*
X73358Y291407D02*
D03*
D54*
X584250Y34000D02*
D03*
X719250Y48750D02*
D03*
X694250D02*
D03*
D55*
X559250Y34000D02*
D03*
X744250Y48750D02*
D03*
D56*
X469600Y470400D02*
D03*
D57*
Y419600D02*
D03*
Y445000D02*
D03*
X495000D02*
D03*
Y419600D02*
D03*
Y470400D02*
D03*
D58*
X1155000Y55000D02*
D03*
Y1155000D02*
D03*
X55000D02*
D03*
Y55000D02*
D03*
D59*
X360750Y223000D02*
D03*
D111*
X941000Y568500D02*
D03*
X879000D02*
D03*
X941000Y531500D02*
D03*
X879000D02*
D03*
X331000Y568500D02*
D03*
X269000D02*
D03*
X331000Y531500D02*
D03*
X269000D02*
D03*
X879000Y231500D02*
D03*
X941000D02*
D03*
X879000Y268500D02*
D03*
X941000D02*
D03*
X269000Y231500D02*
D03*
X331000D02*
D03*
X269000Y268500D02*
D03*
X331000D02*
D03*
M02*
