G04*
G04 #@! TF.GenerationSoftware,Altium Limited,Altium Designer,21.8.1 (53)*
G04*
G04 Layer_Color=8388736*
%FSLAX44Y44*%
%MOMM*%
G71*
G04*
G04 #@! TF.SameCoordinates,3EE182DE-69F7-443D-8643-E3C288D73DFE*
G04*
G04*
G04 #@! TF.FilePolarity,Negative*
G04*
G01*
G75*
%ADD16R,1.3000X0.5000*%
%ADD17R,0.4000X1.9000*%
%ADD18R,2.6000X3.3000*%
%ADD19R,2.2500X2.9000*%
%ADD20R,0.9500X0.9500*%
G04:AMPARAMS|DCode=21|XSize=1.65mm|YSize=0.7mm|CornerRadius=0.35mm|HoleSize=0mm|Usage=FLASHONLY|Rotation=0.000|XOffset=0mm|YOffset=0mm|HoleType=Round|Shape=RoundedRectangle|*
%AMROUNDEDRECTD21*
21,1,1.6500,0.0000,0,0,0.0*
21,1,0.9500,0.7000,0,0,0.0*
1,1,0.7000,0.4750,0.0000*
1,1,0.7000,-0.4750,0.0000*
1,1,0.7000,-0.4750,0.0000*
1,1,0.7000,0.4750,0.0000*
%
%ADD21ROUNDEDRECTD21*%
%ADD22R,0.9500X0.9500*%
%ADD23O,1.5000X0.4000*%
%ADD24O,0.4000X1.5000*%
%ADD25R,0.9000X0.9000*%
%ADD26R,1.1000X1.6000*%
%ADD27R,1.1000X0.7000*%
%ADD28R,3.3000X1.7000*%
%ADD29R,1.3500X1.1000*%
%ADD30R,1.1000X1.3000*%
%ADD31R,0.7000X1.1000*%
%ADD32C,1.1000*%
%ADD33R,2.5000X1.1000*%
%ADD34R,2.5000X3.4000*%
%ADD35R,1.6000X1.1000*%
%ADD36R,1.1000X1.7000*%
G04:AMPARAMS|DCode=37|XSize=1.65mm|YSize=0.7mm|CornerRadius=0.35mm|HoleSize=0mm|Usage=FLASHONLY|Rotation=270.000|XOffset=0mm|YOffset=0mm|HoleType=Round|Shape=RoundedRectangle|*
%AMROUNDEDRECTD37*
21,1,1.6500,0.0000,0,0,270.0*
21,1,0.9500,0.7000,0,0,270.0*
1,1,0.7000,0.0000,-0.4750*
1,1,0.7000,0.0000,0.4750*
1,1,0.7000,0.0000,0.4750*
1,1,0.7000,0.0000,-0.4750*
%
%ADD37ROUNDEDRECTD37*%
%ADD38R,1.1000X1.3500*%
%ADD39R,1.3000X1.7000*%
%ADD40R,1.5000X2.5000*%
%ADD41R,4.4000X2.1000*%
%ADD42R,0.7000X0.7000*%
%ADD43R,1.3000X1.2000*%
%ADD44R,0.7000X0.7000*%
%ADD45R,0.6000X0.9500*%
%ADD46C,7.1000*%
%ADD47C,1.9000*%
%ADD48P,2.0566X8X292.5*%
%ADD49P,2.0566X8X22.5*%
%ADD50C,0.9000*%
%ADD51C,2.1000*%
%ADD52R,2.1000X2.1000*%
%ADD53R,2.1000X2.1000*%
%ADD54C,1.6000*%
%ADD55P,1.7318X8X22.5*%
%ADD56R,1.7000X1.7000*%
%ADD57C,1.7000*%
%ADD58C,10.1000*%
%ADD59C,0.7000*%
D16*
X259500Y543750D02*
D03*
X297500Y530750D02*
D03*
Y537250D02*
D03*
Y543750D02*
D03*
Y550250D02*
D03*
X259500Y530750D02*
D03*
Y537250D02*
D03*
Y550250D02*
D03*
D17*
X677000Y592500D02*
D03*
X672000D02*
D03*
X667000D02*
D03*
X662000D02*
D03*
X657000D02*
D03*
X652000D02*
D03*
X647000D02*
D03*
X642000D02*
D03*
X637000D02*
D03*
X632000D02*
D03*
X627000D02*
D03*
X622000D02*
D03*
X617000D02*
D03*
X612000D02*
D03*
X607000D02*
D03*
X602000D02*
D03*
X597000D02*
D03*
X592000D02*
D03*
X587000D02*
D03*
X582000D02*
D03*
X577000D02*
D03*
X572000D02*
D03*
X567000D02*
D03*
X562000D02*
D03*
X557000D02*
D03*
X552000D02*
D03*
X547000D02*
D03*
X542000D02*
D03*
X537000D02*
D03*
X532000D02*
D03*
D18*
X514000Y611500D02*
D03*
X695000D02*
D03*
D19*
X287000Y603000D02*
D03*
X329500D02*
D03*
D20*
X159000Y453250D02*
D03*
X137000D02*
D03*
X1101750Y377150D02*
D03*
Y363150D02*
D03*
X988000Y425400D02*
D03*
Y439400D02*
D03*
X1012250Y472401D02*
D03*
Y458400D02*
D03*
X1048000Y557150D02*
D03*
Y571150D02*
D03*
X1015500Y535900D02*
D03*
Y521900D02*
D03*
X1069750Y454150D02*
D03*
Y468150D02*
D03*
X1017000Y333650D02*
D03*
Y347650D02*
D03*
X1044750Y381650D02*
D03*
Y367650D02*
D03*
X1023500Y745650D02*
D03*
Y759650D02*
D03*
X1063500Y745900D02*
D03*
Y759900D02*
D03*
X1043500Y745900D02*
D03*
Y759900D02*
D03*
X1003500Y745650D02*
D03*
Y759650D02*
D03*
X1018750Y645900D02*
D03*
Y659900D02*
D03*
X1071500Y641150D02*
D03*
Y655150D02*
D03*
X990250Y626150D02*
D03*
Y612150D02*
D03*
X818500Y496500D02*
D03*
Y482500D02*
D03*
X892000Y453499D02*
D03*
Y467500D02*
D03*
X832750Y482500D02*
D03*
Y496500D02*
D03*
X258000Y428000D02*
D03*
Y414000D02*
D03*
X764250Y178750D02*
D03*
Y192750D02*
D03*
X805250Y382500D02*
D03*
Y396500D02*
D03*
X819250D02*
D03*
Y382500D02*
D03*
X878500Y369750D02*
D03*
Y355750D02*
D03*
X807750Y578250D02*
D03*
Y592250D02*
D03*
X709750Y383001D02*
D03*
Y397001D02*
D03*
X782750Y368750D02*
D03*
Y354750D02*
D03*
X787500Y578250D02*
D03*
Y592250D02*
D03*
X723750Y397000D02*
D03*
Y383000D02*
D03*
X827750Y578250D02*
D03*
Y592250D02*
D03*
X767750Y577250D02*
D03*
Y591250D02*
D03*
X709250Y484250D02*
D03*
Y498250D02*
D03*
X723250D02*
D03*
Y484250D02*
D03*
X782000Y469750D02*
D03*
Y455750D02*
D03*
X509750Y193000D02*
D03*
Y207000D02*
D03*
X335750Y521250D02*
D03*
Y535250D02*
D03*
X250000Y496250D02*
D03*
Y482250D02*
D03*
X318500Y521250D02*
D03*
Y535250D02*
D03*
X208750Y551750D02*
D03*
Y537750D02*
D03*
X186500Y551500D02*
D03*
Y537500D02*
D03*
X229750Y551750D02*
D03*
Y537750D02*
D03*
X287000Y493250D02*
D03*
Y479250D02*
D03*
X208250Y508500D02*
D03*
Y494500D02*
D03*
X229750Y508500D02*
D03*
Y494500D02*
D03*
X92250Y346250D02*
D03*
Y360250D02*
D03*
X227000Y372750D02*
D03*
Y386750D02*
D03*
X46000Y532750D02*
D03*
Y546750D02*
D03*
X95000D02*
D03*
Y560750D02*
D03*
X159000Y467250D02*
D03*
X137000D02*
D03*
X584500Y294750D02*
D03*
Y308750D02*
D03*
X649750Y278250D02*
D03*
Y264250D02*
D03*
X430000Y307000D02*
D03*
Y293000D02*
D03*
X375000Y362000D02*
D03*
Y348000D02*
D03*
X395000D02*
D03*
Y362000D02*
D03*
X255000Y223000D02*
D03*
Y237000D02*
D03*
X460000Y589750D02*
D03*
Y603750D02*
D03*
X480000Y589750D02*
D03*
Y603750D02*
D03*
X579000Y548750D02*
D03*
Y562750D02*
D03*
X592750D02*
D03*
Y548750D02*
D03*
X564250Y562750D02*
D03*
Y548750D02*
D03*
X620500Y562750D02*
D03*
Y548750D02*
D03*
X606500Y562750D02*
D03*
Y548750D02*
D03*
D21*
X148080Y428040D02*
D03*
Y415340D02*
D03*
Y402640D02*
D03*
Y389940D02*
D03*
X202080D02*
D03*
Y402640D02*
D03*
Y415340D02*
D03*
Y428040D02*
D03*
D22*
X120000Y433500D02*
D03*
X1071250Y338400D02*
D03*
X1085250D02*
D03*
X988250Y460650D02*
D03*
X974250D02*
D03*
X1017000Y370900D02*
D03*
X1003000D02*
D03*
X1072250Y526650D02*
D03*
X1086250D02*
D03*
X1087750Y592750D02*
D03*
X1101750D02*
D03*
X1001750Y556150D02*
D03*
X1015750D02*
D03*
X1055000Y430150D02*
D03*
X1041000D02*
D03*
X1042250Y616650D02*
D03*
X1056250D02*
D03*
X976000Y645900D02*
D03*
X990000D02*
D03*
X983750Y280250D02*
D03*
X969750D02*
D03*
X82750Y265750D02*
D03*
X68750D02*
D03*
X68830Y248057D02*
D03*
X82830D02*
D03*
X68830Y222657D02*
D03*
X82830D02*
D03*
X70500Y585250D02*
D03*
X56500D02*
D03*
X226750Y428000D02*
D03*
X240750D02*
D03*
X1093750Y172500D02*
D03*
X1079750D02*
D03*
X1093750Y202000D02*
D03*
X1079750D02*
D03*
X723000Y138500D02*
D03*
X709000D02*
D03*
X737000D02*
D03*
X751000D02*
D03*
X109750Y372500D02*
D03*
X123750D02*
D03*
Y336500D02*
D03*
X109750D02*
D03*
X123440Y354910D02*
D03*
X109440D02*
D03*
X199750Y373500D02*
D03*
X185750D02*
D03*
X148000Y373500D02*
D03*
X162000D02*
D03*
X227000Y402500D02*
D03*
X241000D02*
D03*
X65000Y525750D02*
D03*
X79000D02*
D03*
X92000Y453250D02*
D03*
X106000D02*
D03*
Y433500D02*
D03*
X105750Y415500D02*
D03*
X119750D02*
D03*
X105500Y397250D02*
D03*
X119500D02*
D03*
X629750Y314500D02*
D03*
X615750D02*
D03*
X298000Y345000D02*
D03*
X312000D02*
D03*
X310992Y185492D02*
D03*
X296992D02*
D03*
X394500Y185750D02*
D03*
X380500D02*
D03*
X260750Y311500D02*
D03*
X246750D02*
D03*
X50000Y389000D02*
D03*
X36000D02*
D03*
X533250Y547250D02*
D03*
X547250D02*
D03*
X533250Y563500D02*
D03*
X547250D02*
D03*
D23*
X283750Y304000D02*
D03*
Y299000D02*
D03*
Y294000D02*
D03*
Y289000D02*
D03*
Y284000D02*
D03*
Y279000D02*
D03*
Y274000D02*
D03*
Y269000D02*
D03*
Y264000D02*
D03*
Y259000D02*
D03*
Y254000D02*
D03*
Y249000D02*
D03*
Y244000D02*
D03*
Y239000D02*
D03*
Y234000D02*
D03*
Y229000D02*
D03*
X397750D02*
D03*
Y234000D02*
D03*
Y239000D02*
D03*
Y244000D02*
D03*
Y249000D02*
D03*
Y254000D02*
D03*
Y259000D02*
D03*
Y264000D02*
D03*
Y269000D02*
D03*
Y274000D02*
D03*
Y279000D02*
D03*
Y284000D02*
D03*
Y289000D02*
D03*
Y294000D02*
D03*
Y299000D02*
D03*
Y304000D02*
D03*
D24*
X303250Y209500D02*
D03*
X308250D02*
D03*
X313250D02*
D03*
X318250D02*
D03*
X323250D02*
D03*
X328250D02*
D03*
X333250D02*
D03*
X338250D02*
D03*
X343250D02*
D03*
X348250D02*
D03*
X353250D02*
D03*
X358250D02*
D03*
X363250D02*
D03*
X368250D02*
D03*
X373250D02*
D03*
X378250D02*
D03*
Y323500D02*
D03*
X373250D02*
D03*
X368250D02*
D03*
X363250D02*
D03*
X358250D02*
D03*
X353250D02*
D03*
X348250D02*
D03*
X343250D02*
D03*
X338250D02*
D03*
X333250D02*
D03*
X328250D02*
D03*
X323250D02*
D03*
X318250D02*
D03*
X313250D02*
D03*
X308250D02*
D03*
X303250D02*
D03*
D25*
X182250Y343500D02*
D03*
X406285Y440055D02*
D03*
X406250Y419250D02*
D03*
D26*
X143000Y224500D02*
D03*
Y252000D02*
D03*
X891750Y487000D02*
D03*
Y514500D02*
D03*
X1082750Y276250D02*
D03*
Y303750D02*
D03*
X878250Y414500D02*
D03*
Y387000D02*
D03*
X782000Y415500D02*
D03*
Y388000D02*
D03*
X781250Y516750D02*
D03*
Y489250D02*
D03*
X252750Y606500D02*
D03*
Y579000D02*
D03*
D27*
X1057750Y338150D02*
D03*
X1033750Y328650D02*
D03*
Y347650D02*
D03*
X1025250Y429900D02*
D03*
X1001250Y420400D02*
D03*
Y439400D02*
D03*
X1061250Y367650D02*
D03*
X1085250Y377150D02*
D03*
Y358150D02*
D03*
X1032000Y536150D02*
D03*
Y517150D02*
D03*
X1056000Y526650D02*
D03*
X1030750Y458650D02*
D03*
X1054750Y468150D02*
D03*
Y449150D02*
D03*
X1086250Y547650D02*
D03*
Y566650D02*
D03*
X1062250Y557150D02*
D03*
X1006750Y626150D02*
D03*
Y607150D02*
D03*
X1030750Y616650D02*
D03*
X1056250Y636400D02*
D03*
Y655400D02*
D03*
X1032250Y645900D02*
D03*
X873750Y487000D02*
D03*
X849750Y477500D02*
D03*
Y496500D02*
D03*
X836250Y396500D02*
D03*
Y377500D02*
D03*
X860250Y387000D02*
D03*
X740060Y397570D02*
D03*
Y378570D02*
D03*
X764060Y388070D02*
D03*
X740250Y498750D02*
D03*
Y479750D02*
D03*
X764250Y489250D02*
D03*
X628750Y264250D02*
D03*
Y283250D02*
D03*
X604750Y273750D02*
D03*
D28*
X1115250Y699900D02*
D03*
Y759900D02*
D03*
D29*
X1023500Y728650D02*
D03*
Y708650D02*
D03*
X1003500Y728650D02*
D03*
Y708650D02*
D03*
X1043500Y728900D02*
D03*
Y708900D02*
D03*
X1063500Y728900D02*
D03*
Y708900D02*
D03*
X807750Y629250D02*
D03*
Y609250D02*
D03*
X787750Y629250D02*
D03*
Y609250D02*
D03*
X827750Y629250D02*
D03*
Y609250D02*
D03*
X767750Y629250D02*
D03*
Y609250D02*
D03*
X662000Y544500D02*
D03*
Y564500D02*
D03*
X681500Y544500D02*
D03*
Y564500D02*
D03*
X517000Y547500D02*
D03*
Y567500D02*
D03*
D30*
X19000Y407250D02*
D03*
Y463250D02*
D03*
X36000Y407250D02*
D03*
Y463250D02*
D03*
D31*
X70500Y570750D02*
D03*
X80000Y546750D02*
D03*
X61000D02*
D03*
X37770Y272057D02*
D03*
X47270Y248057D02*
D03*
X28270D02*
D03*
X37770Y222657D02*
D03*
X47270Y198657D02*
D03*
X28270D02*
D03*
D32*
X40250Y329500D02*
D03*
X14750Y346500D02*
D03*
X565750Y308750D02*
D03*
X14750Y369000D02*
D03*
X1164200Y251750D02*
D03*
Y239050D02*
D03*
Y226350D02*
D03*
Y213650D02*
D03*
X1151500D02*
D03*
Y226350D02*
D03*
Y239050D02*
D03*
Y251750D02*
D03*
D33*
X540750Y177000D02*
D03*
Y154000D02*
D03*
Y131000D02*
D03*
D34*
X598750Y154000D02*
D03*
D35*
X658250Y173750D02*
D03*
X685750D02*
D03*
X658250Y197500D02*
D03*
X685750D02*
D03*
X279500Y32250D02*
D03*
X252000D02*
D03*
X202500Y179500D02*
D03*
X230000D02*
D03*
D36*
X716000Y115500D02*
D03*
X746000D02*
D03*
X716000Y91500D02*
D03*
X746000D02*
D03*
D37*
X748300Y213000D02*
D03*
X735600D02*
D03*
X722900D02*
D03*
X710200D02*
D03*
Y159000D02*
D03*
X722900D02*
D03*
X735600D02*
D03*
X748300D02*
D03*
D38*
X564250Y276000D02*
D03*
X584250D02*
D03*
X553750Y207000D02*
D03*
X533750D02*
D03*
D39*
X580750D02*
D03*
X612750D02*
D03*
D40*
X553250Y99000D02*
D03*
X588250D02*
D03*
X309750Y476000D02*
D03*
X344750D02*
D03*
D41*
X137000Y520750D02*
D03*
Y597750D02*
D03*
D42*
X224000Y266250D02*
D03*
Y277250D02*
D03*
D43*
X254500Y281250D02*
D03*
X237500D02*
D03*
Y267250D02*
D03*
X254500D02*
D03*
D44*
X236750Y296500D02*
D03*
X225750D02*
D03*
D45*
X490250Y546500D02*
D03*
Y572500D02*
D03*
D46*
X605000Y445000D02*
D03*
D47*
X1175150Y398850D02*
D03*
X1149750D02*
D03*
X1175150Y424250D02*
D03*
X1149750D02*
D03*
X1175150Y449650D02*
D03*
X1149750D02*
D03*
X1175150Y551250D02*
D03*
X1149750Y525850D02*
D03*
X1175150D02*
D03*
X1149750Y500450D02*
D03*
X1175150D02*
D03*
X1149750Y475050D02*
D03*
X1175150D02*
D03*
X273250Y120000D02*
D03*
X222450D02*
D03*
X247850D02*
D03*
X273250Y94600D02*
D03*
X247850D02*
D03*
X171650Y120000D02*
D03*
X197050Y94600D02*
D03*
Y120000D02*
D03*
X222450Y94600D02*
D03*
D48*
X1149750Y551250D02*
D03*
D49*
X171650Y94600D02*
D03*
D50*
X41250Y435250D02*
D03*
X13750D02*
D03*
D51*
X117250Y273507D02*
D03*
Y222707D02*
D03*
Y248107D02*
D03*
X47958Y291407D02*
D03*
X455400Y340000D02*
D03*
X430000D02*
D03*
D52*
X117250Y197307D02*
D03*
D53*
X73358Y291407D02*
D03*
D54*
X584250Y34000D02*
D03*
X719250Y48750D02*
D03*
X694250D02*
D03*
D55*
X559250Y34000D02*
D03*
X744250Y48750D02*
D03*
D56*
X469600Y470400D02*
D03*
D57*
Y419600D02*
D03*
Y445000D02*
D03*
X495000D02*
D03*
Y419600D02*
D03*
Y470400D02*
D03*
D58*
X1155000Y55000D02*
D03*
Y1155000D02*
D03*
X55000D02*
D03*
Y55000D02*
D03*
D59*
X360750Y223000D02*
D03*
M02*
