ISO-10303-21;
HEADER;

/* File generated by T-FLEX CAD Version 17.1.0.0 */

FILE_DESCRIPTION(('TFLEX Exchange Step'),'2;1');

FILE_NAME('X2\04140430044204470438043A\X0\ \X2\04400443043B04350442043A0438\X0\.stp',                                   
'2024-06-05T18:34:37+04:00',
('Notebook PKB'),
('Unknown organisation'),
'TFLEX Exchange 2023.2',
'T-FLEX CAD',
'Unknown authorisation');

FILE_SCHEMA( ('AP203_CONFIGURATION_CONTROLLED_3D_DESIGN_OF_MECHANICAL_PARTS_AND_ASSEMBLIES_MIM_LF') );

ENDSEC;

DATA;
#3=(NAMED_UNIT(*)PLANE_ANGLE_UNIT()SI_UNIT($,.RADIAN.));
#4=PLANE_ANGLE_MEASURE_WITH_UNIT(PLANE_ANGLE_MEASURE(0.0174532925),#3);
#5=(CONVERSION_BASED_UNIT('DEGREE',#4)NAMED_UNIT(#6)PLANE_ANGLE_UNIT());
#6=DIMENSIONAL_EXPONENTS(0.,0.,0.,0.,0.,0.,0.);
#7=(NAMED_UNIT(*)SI_UNIT($,.STERADIAN.)SOLID_ANGLE_UNIT());
#8=(LENGTH_UNIT()NAMED_UNIT(*)SI_UNIT(.MILLI.,.METRE.));
#9=UNCERTAINTY_MEASURE_WITH_UNIT(LENGTH_MEASURE(1.000000E-05),#8,'DISTANCE_ACCURACY_VALUE','Maximum Tolerance applied to model');
#10=(GEOMETRIC_REPRESENTATION_CONTEXT(3)GLOBAL_UNCERTAINTY_ASSIGNED_CONTEXT((#9))GLOBAL_UNIT_ASSIGNED_CONTEXT((#8,#5,#7))REPRESENTATION_CONTEXT('','\X2\04140430044204470438043A\X0\ \X2\04400443043B04350442043A0438\X0\'));
#12=CARTESIAN_POINT('',(0.,0.,0.));
#13=DIRECTION('',(0.,0.,1.));
#14=DIRECTION('',(1.,0.,0.));
#15=AXIS2_PLACEMENT_3D('',#12,#13,#14);
#27=CARTESIAN_POINT('',(0.,1.5,11.));
#28=DIRECTION('',(0.,0.,1.));
#29=DIRECTION('',(1.,0.,0.));
#30=AXIS2_PLACEMENT_3D('',#27,#28,#29);
#31=PLANE('',#30);
#32=CARTESIAN_POINT('',(0.,0.,11.));
#33=VERTEX_POINT('',#32);
#34=CARTESIAN_POINT('',(-30.,0.,11.));
#35=VERTEX_POINT('',#34);
#36=CARTESIAN_POINT('',(0.,0.,11.));
#37=DIRECTION('',(-1.,0.,0.));
#38=VECTOR('',#37,30.);
#39=LINE('',#36,#38);
#40=EDGE_CURVE('',#33,#35,#39,.T.);
#41=ORIENTED_EDGE('',*,*,#40,.F.);
#42=CARTESIAN_POINT('',(0.,1.5,11.));
#43=VERTEX_POINT('',#42);
#44=CARTESIAN_POINT('',(0.,1.5,11.));
#45=DIRECTION('',(0.,-1.,0.));
#46=VECTOR('',#45,1.5);
#47=LINE('',#44,#46);
#48=EDGE_CURVE('',#43,#33,#47,.T.);
#49=ORIENTED_EDGE('',*,*,#48,.F.);
#50=CARTESIAN_POINT('',(-30.,1.5,11.));
#51=VERTEX_POINT('',#50);
#52=CARTESIAN_POINT('',(0.,1.5,11.));
#53=DIRECTION('',(-1.,0.,0.));
#54=VECTOR('',#53,30.);
#55=LINE('',#52,#54);
#56=EDGE_CURVE('',#43,#51,#55,.T.);
#57=ORIENTED_EDGE('',*,*,#56,.T.);
#58=CARTESIAN_POINT('',(-30.,1.5,11.));
#59=DIRECTION('',(0.,-1.,0.));
#60=VECTOR('',#59,1.5);
#61=LINE('',#58,#60);
#62=EDGE_CURVE('',#51,#35,#61,.T.);
#63=ORIENTED_EDGE('',*,*,#62,.T.);
#64=EDGE_LOOP('',(#41,#49,#57,#63));
#65=FACE_BOUND('',#64,.T.);
#66=ADVANCED_FACE('',(#65),#31,.T.);
#67=CARTESIAN_POINT('',(0.,1.5,0.));
#68=DIRECTION('',(1.,0.,0.));
#69=DIRECTION('',(0.,0.,-1.));
#70=AXIS2_PLACEMENT_3D('',#67,#68,#69);
#71=PLANE('',#70);
#72=CARTESIAN_POINT('',(0.,0.,0.));
#73=VERTEX_POINT('',#72);
#74=CARTESIAN_POINT('',(0.,0.,0.));
#75=DIRECTION('',(0.,0.,1.));
#76=VECTOR('',#75,11.);
#77=LINE('',#74,#76);
#78=EDGE_CURVE('',#73,#33,#77,.T.);
#79=ORIENTED_EDGE('',*,*,#78,.F.);
#80=CARTESIAN_POINT('',(0.,1.5,0.));
#81=VERTEX_POINT('',#80);
#82=CARTESIAN_POINT('',(0.,1.5,0.));
#83=DIRECTION('',(0.,-1.,0.));
#84=VECTOR('',#83,1.5);
#85=LINE('',#82,#84);
#86=EDGE_CURVE('',#81,#73,#85,.T.);
#87=ORIENTED_EDGE('',*,*,#86,.F.);
#88=CARTESIAN_POINT('',(0.,1.5,0.));
#89=DIRECTION('',(0.,0.,1.));
#90=VECTOR('',#89,11.);
#91=LINE('',#88,#90);
#92=EDGE_CURVE('',#81,#43,#91,.T.);
#93=ORIENTED_EDGE('',*,*,#92,.T.);
#94=ORIENTED_EDGE('',*,*,#48,.T.);
#95=EDGE_LOOP('',(#79,#87,#93,#94));
#96=FACE_BOUND('',#95,.T.);
#97=ADVANCED_FACE('',(#96),#71,.T.);
#98=CARTESIAN_POINT('',(-30.,1.5,0.));
#99=DIRECTION('',(0.,0.,-1.));
#100=DIRECTION('',(-1.,0.,0.));
#101=AXIS2_PLACEMENT_3D('',#98,#99,#100);
#102=PLANE('',#101);
#103=CARTESIAN_POINT('',(-30.,0.,0.));
#104=VERTEX_POINT('',#103);
#105=CARTESIAN_POINT('',(-30.,0.,0.));
#106=DIRECTION('',(1.,0.,-0.));
#107=VECTOR('',#106,30.);
#108=LINE('',#105,#107);
#109=EDGE_CURVE('',#104,#73,#108,.T.);
#110=ORIENTED_EDGE('',*,*,#109,.F.);
#111=CARTESIAN_POINT('',(-30.,1.5,0.));
#112=VERTEX_POINT('',#111);
#113=CARTESIAN_POINT('',(-30.,1.5,0.));
#114=DIRECTION('',(0.,-1.,0.));
#115=VECTOR('',#114,1.5);
#116=LINE('',#113,#115);
#117=EDGE_CURVE('',#112,#104,#116,.T.);
#118=ORIENTED_EDGE('',*,*,#117,.F.);
#119=CARTESIAN_POINT('',(-30.,1.5,0.));
#120=DIRECTION('',(1.,0.,-0.));
#121=VECTOR('',#120,30.);
#122=LINE('',#119,#121);
#123=EDGE_CURVE('',#112,#81,#122,.T.);
#124=ORIENTED_EDGE('',*,*,#123,.T.);
#125=ORIENTED_EDGE('',*,*,#86,.T.);
#126=EDGE_LOOP('',(#110,#118,#124,#125));
#127=FACE_BOUND('',#126,.T.);
#128=ADVANCED_FACE('',(#127),#102,.T.);
#129=CARTESIAN_POINT('',(-30.,1.5,11.));
#130=DIRECTION('',(-1.,0.,0.));
#131=DIRECTION('',(0.,0.,1.));
#132=AXIS2_PLACEMENT_3D('',#129,#130,#131);
#133=PLANE('',#132);
#134=CARTESIAN_POINT('',(-30.,0.,11.));
#135=DIRECTION('',(0.,0.,-1.));
#136=VECTOR('',#135,11.);
#137=LINE('',#134,#136);
#138=EDGE_CURVE('',#35,#104,#137,.T.);
#139=ORIENTED_EDGE('',*,*,#138,.F.);
#140=ORIENTED_EDGE('',*,*,#62,.F.);
#141=CARTESIAN_POINT('',(-30.,1.5,11.));
#142=DIRECTION('',(0.,0.,-1.));
#143=VECTOR('',#142,11.);
#144=LINE('',#141,#143);
#145=EDGE_CURVE('',#51,#112,#144,.T.);
#146=ORIENTED_EDGE('',*,*,#145,.T.);
#147=ORIENTED_EDGE('',*,*,#117,.T.);
#148=EDGE_LOOP('',(#139,#140,#146,#147));
#149=FACE_BOUND('',#148,.T.);
#150=ADVANCED_FACE('',(#149),#133,.T.);
#151=CARTESIAN_POINT('',(0.,1.5,0.));
#152=DIRECTION('',(0.,-1.,0.));
#153=DIRECTION('',(1.,0.,0.));
#154=AXIS2_PLACEMENT_3D('',#151,#152,#153);
#155=PLANE('',#154);
#156=CARTESIAN_POINT('',(-26.35,1.499999,7.05));
#157=VERTEX_POINT('',#156);
#158=CARTESIAN_POINT('',(-26.35,1.499999,5.5));
#159=DIRECTION('',(0.,1.,0.));
#160=DIRECTION('',(0.,-0.,1.));
#161=AXIS2_PLACEMENT_3D('',#158,#159,#160);
#162=CIRCLE('',#161,1.55);
#163=EDGE_CURVE('',#157,#157,#162,.T.);
#164=ORIENTED_EDGE('',*,*,#163,.F.);
#165=EDGE_LOOP('',(#164));
#166=FACE_BOUND('',#165,.T.);
#167=ORIENTED_EDGE('',*,*,#56,.F.);
#168=ORIENTED_EDGE('',*,*,#92,.F.);
#169=ORIENTED_EDGE('',*,*,#123,.F.);
#170=ORIENTED_EDGE('',*,*,#145,.F.);
#171=EDGE_LOOP('',(#167,#168,#169,#170));
#172=FACE_BOUND('',#171,.T.);
#173=ADVANCED_FACE('',(#166,#172),#155,.F.);
#174=CARTESIAN_POINT('',(0.,0.,0.));
#175=DIRECTION('',(0.,-1.,0.));
#176=DIRECTION('',(1.,0.,0.));
#177=AXIS2_PLACEMENT_3D('',#174,#175,#176);
#178=PLANE('',#177);
#179=CARTESIAN_POINT('',(-26.35,-0.000001,7.05));
#180=VERTEX_POINT('',#179);
#181=CARTESIAN_POINT('',(-26.35,-0.000001,5.5));
#182=DIRECTION('',(0.,-1.,0.));
#183=DIRECTION('',(0.,0.,1.));
#184=AXIS2_PLACEMENT_3D('',#181,#182,#183);
#185=CIRCLE('',#184,1.55);
#186=EDGE_CURVE('',#180,#180,#185,.T.);
#187=ORIENTED_EDGE('',*,*,#186,.F.);
#188=EDGE_LOOP('',(#187));
#189=FACE_BOUND('',#188,.T.);
#190=ORIENTED_EDGE('',*,*,#40,.T.);
#191=ORIENTED_EDGE('',*,*,#138,.T.);
#192=ORIENTED_EDGE('',*,*,#109,.T.);
#193=ORIENTED_EDGE('',*,*,#78,.T.);
#194=EDGE_LOOP('',(#190,#191,#192,#193));
#195=FACE_BOUND('',#194,.T.);
#196=ADVANCED_FACE('',(#189,#195),#178,.T.);
#197=CARTESIAN_POINT('',(-26.35,-0.000001,5.5));
#198=DIRECTION('',(0.,1.,0.));
#199=DIRECTION('',(0.,-0.,1.));
#200=AXIS2_PLACEMENT_3D('',#197,#198,#199);
#201=CYLINDRICAL_SURFACE('',#200,1.55);
#202=CARTESIAN_POINT('',(-26.35,1.499999,7.05));
#203=DIRECTION('',(-0.,-1.,-0.));
#204=VECTOR('',#203,1.5);
#205=LINE('',#202,#204);
#206=EDGE_CURVE('',#157,#180,#205,.T.);
#207=ORIENTED_EDGE('',*,*,#206,.F.);
#208=ORIENTED_EDGE('',*,*,#163,.T.);
#209=ORIENTED_EDGE('',*,*,#206,.T.);
#210=ORIENTED_EDGE('',*,*,#186,.T.);
#211=EDGE_LOOP('',(#207,#208,#209,#210));
#212=FACE_BOUND('',#211,.T.);
#213=ADVANCED_FACE('',(#212),#201,.F.);
#214=CLOSED_SHELL('',(#66,#97,#128,#150,#173,#196,#213));
#215=MANIFOLD_SOLID_BREP('\X2\04220435043B043E\X0\_1:1',#214);
#216=COLOUR_RGB('',0.258823544,1.,0.258823544);
#217=FILL_AREA_STYLE_COLOUR('',#216);
#218=FILL_AREA_STYLE('',(#217));
#219=SURFACE_STYLE_FILL_AREA(#218);
#220=SURFACE_SIDE_STYLE('',(#219));
#221=SURFACE_STYLE_USAGE(.BOTH.,#220);
#222=PRESENTATION_STYLE_ASSIGNMENT((#221));
#26=STYLED_ITEM('',(#222),#215);
#16=SHAPE_REPRESENTATION('\X2\04140430044204470438043A\X0\ \X2\04400443043B04350442043A0438\X0\',(#15),#10);
#17=ADVANCED_BREP_SHAPE_REPRESENTATION('\X2\04140430044204470438043A\X0\ \X2\04400443043B04350442043A0438\X0\',(#215),#10);
#230=SHAPE_REPRESENTATION_RELATIONSHIP('','',#16,#17);
#231=APPLICATION_CONTEXT('configuration controlled 3D design of mechanical parts and assemblies');
#232=APPLICATION_PROTOCOL_DEFINITION('international standard','configuration_control_3d_design_ed2_mim',2004,#231);
#233=PRODUCT_CONTEXT('',#231,'mechanical');
#234=PRODUCT_DEFINITION_CONTEXT('part definition',#231,'design');
#24=PRODUCT('\X2\04140430044204470438043A\X0\ \X2\04400443043B04350442043A0438\X0\','\X2\04140430044204470438043A\X0\ \X2\04400443043B04350442043A0438\X0\','',(#233));
#235=PRODUCT_RELATED_PRODUCT_CATEGORY('part','',(#24));
#236=PRODUCT_DEFINITION_FORMATION_WITH_SPECIFIED_SOURCE('','',#24,.NOT_KNOWN.);
#25=PRODUCT_DEFINITION('design','',#236,#234);
#23=PRODUCT_DEFINITION_SHAPE('','',#25);
#237=SHAPE_DEFINITION_REPRESENTATION(#23,#16);
#11=DRAUGHTING_MODEL('',(),#10);
#1=MECHANICAL_DESIGN_GEOMETRIC_PRESENTATION_REPRESENTATION('',(#26),#10);
ENDSEC;
END-ISO-10303-21;
