ISO-10303-21;
HEADER;

/* File generated by T-FLEX CAD Version 17.1.0.0 */

FILE_DESCRIPTION(('TFLEX Exchange Step'),'2;1');

FILE_NAME('X2\042104120420\X0\20\X2\0421\X0\.02.07.000 \X2\041C04300433043D04380442043D0430044F\X0\ \X2\043B0438043D04350439043A0430\X0\.stp',                                   
'2024-06-05T18:34:21+04:00',
('Notebook PKB'),
('Unknown organisation'),
'TFLEX Exchange 2023.2',
'T-FLEX CAD',
'Unknown authorisation');

FILE_SCHEMA( ('AP203_CONFIGURATION_CONTROLLED_3D_DESIGN_OF_MECHANICAL_PARTS_AND_ASSEMBLIES_MIM_LF') );

ENDSEC;

DATA;
#3=(NAMED_UNIT(*)PLANE_ANGLE_UNIT()SI_UNIT($,.RADIAN.));
#4=PLANE_ANGLE_MEASURE_WITH_UNIT(PLANE_ANGLE_MEASURE(0.0174532925),#3);
#5=(CONVERSION_BASED_UNIT('DEGREE',#4)NAMED_UNIT(#6)PLANE_ANGLE_UNIT());
#6=DIMENSIONAL_EXPONENTS(0.,0.,0.,0.,0.,0.,0.);
#7=(NAMED_UNIT(*)SI_UNIT($,.STERADIAN.)SOLID_ANGLE_UNIT());
#8=(LENGTH_UNIT()NAMED_UNIT(*)SI_UNIT(.MILLI.,.METRE.));
#9=UNCERTAINTY_MEASURE_WITH_UNIT(LENGTH_MEASURE(1.000000E-03),#8,'DISTANCE_ACCURACY_VALUE','Maximum Tolerance applied to model');
#10=(GEOMETRIC_REPRESENTATION_CONTEXT(3)GLOBAL_UNCERTAINTY_ASSIGNED_CONTEXT((#9))GLOBAL_UNIT_ASSIGNED_CONTEXT((#8,#5,#7))REPRESENTATION_CONTEXT('','\X2\042104120420\X0\20\X2\0421\X0\.02.07.000 \X2\041C04300433043D04380442043D0430044F\X0\ \X2\043B0438043D04350439043A0430\X0\'));
#12=CARTESIAN_POINT('',(0.,0.,0.));
#13=DIRECTION('',(0.,0.,1.));
#14=DIRECTION('',(1.,0.,0.));
#15=AXIS2_PLACEMENT_3D('',#12,#13,#14);
#26=(NAMED_UNIT(*)PLANE_ANGLE_UNIT()SI_UNIT($,.RADIAN.));
#27=PLANE_ANGLE_MEASURE_WITH_UNIT(PLANE_ANGLE_MEASURE(0.0174532925),#26);
#28=(CONVERSION_BASED_UNIT('DEGREE',#27)NAMED_UNIT(#29)PLANE_ANGLE_UNIT());
#29=DIMENSIONAL_EXPONENTS(0.,0.,0.,0.,0.,0.,0.);
#30=(NAMED_UNIT(*)SI_UNIT($,.STERADIAN.)SOLID_ANGLE_UNIT());
#31=(LENGTH_UNIT()NAMED_UNIT(*)SI_UNIT(.MILLI.,.METRE.));
#32=UNCERTAINTY_MEASURE_WITH_UNIT(LENGTH_MEASURE(1.000000E-05),#31,'DISTANCE_ACCURACY_VALUE','Maximum Tolerance applied to model');
#33=(GEOMETRIC_REPRESENTATION_CONTEXT(3)GLOBAL_UNCERTAINTY_ASSIGNED_CONTEXT((#32))GLOBAL_UNIT_ASSIGNED_CONTEXT((#31,#28,#30))REPRESENTATION_CONTEXT('','\X2\041C04300433043D04380442043D0430044F\X0\ \X2\043B0435043D04420430\X0\'));
#45=CARTESIAN_POINT('',(0.,2.,0.));
#46=DIRECTION('',(0.,0.,1.));
#47=DIRECTION('',(1.,0.,-0.));
#48=AXIS2_PLACEMENT_3D('',#45,#46,#47);
#49=ITEM_DEFINED_TRANSFORMATION('','',#48,#15);
#50=(REPRESENTATION_RELATIONSHIP('','',#35,#16)REPRESENTATION_RELATIONSHIP_WITH_TRANSFORMATION(#49)SHAPE_REPRESENTATION_RELATIONSHIP());
#51=NEXT_ASSEMBLY_USAGE_OCCURRENCE('\X2\041C04300433043D04380442043D0430044F\X0\ \X2\043B0435043D04420430\X0\_1','\X2\041C04300433043D04380442043D0430044F\X0\ \X2\043B0435043D04420430\X0\','\X2\041C04300433043D04380442043D0430044F\X0\ \X2\043B0435043D04420430\X0\',#25,#44,$);
#52=PRODUCT_DEFINITION_SHAPE('','',#51);
#53=CONTEXT_DEPENDENT_SHAPE_REPRESENTATION(#50,#52);
#55=CARTESIAN_POINT('',(0.,1.3,10.));
#56=DIRECTION('',(-0.,0.,1.));
#57=DIRECTION('',(1.,0.,0.));
#58=AXIS2_PLACEMENT_3D('',#55,#56,#57);
#59=PLANE('',#58);
#60=CARTESIAN_POINT('',(0.,0.,10.));
#61=VERTEX_POINT('',#60);
#62=CARTESIAN_POINT('',(-110.,0.,10.));
#63=VERTEX_POINT('',#62);
#64=CARTESIAN_POINT('',(0.,0.,10.));
#65=DIRECTION('',(-1.,0.,-0.));
#66=VECTOR('',#65,110.);
#67=LINE('',#64,#66);
#68=EDGE_CURVE('',#61,#63,#67,.T.);
#69=ORIENTED_EDGE('',*,*,#68,.F.);
#70=CARTESIAN_POINT('',(0.,1.3,10.));
#71=VERTEX_POINT('',#70);
#72=CARTESIAN_POINT('',(0.,1.3,10.));
#73=DIRECTION('',(0.,-1.,0.));
#74=VECTOR('',#73,1.3);
#75=LINE('',#72,#74);
#76=EDGE_CURVE('',#71,#61,#75,.T.);
#77=ORIENTED_EDGE('',*,*,#76,.F.);
#78=CARTESIAN_POINT('',(-110.,1.3,10.));
#79=VERTEX_POINT('',#78);
#80=CARTESIAN_POINT('',(0.,1.3,10.));
#81=DIRECTION('',(-1.,0.,-0.));
#82=VECTOR('',#81,110.);
#83=LINE('',#80,#82);
#84=EDGE_CURVE('',#71,#79,#83,.T.);
#85=ORIENTED_EDGE('',*,*,#84,.T.);
#86=CARTESIAN_POINT('',(-110.,1.3,10.));
#87=DIRECTION('',(0.,-1.,0.));
#88=VECTOR('',#87,1.3);
#89=LINE('',#86,#88);
#90=EDGE_CURVE('',#79,#63,#89,.T.);
#91=ORIENTED_EDGE('',*,*,#90,.T.);
#92=EDGE_LOOP('',(#69,#77,#85,#91));
#93=FACE_BOUND('',#92,.T.);
#94=ADVANCED_FACE('',(#93),#59,.T.);
#95=CARTESIAN_POINT('',(0.,1.3,0.));
#96=DIRECTION('',(1.,0.,0.));
#97=DIRECTION('',(0.,0.,-1.));
#98=AXIS2_PLACEMENT_3D('',#95,#96,#97);
#99=PLANE('',#98);
#100=CARTESIAN_POINT('',(0.,0.,0.));
#101=VERTEX_POINT('',#100);
#102=CARTESIAN_POINT('',(0.,0.,0.));
#103=DIRECTION('',(0.,0.,1.));
#104=VECTOR('',#103,10.);
#105=LINE('',#102,#104);
#106=EDGE_CURVE('',#101,#61,#105,.T.);
#107=ORIENTED_EDGE('',*,*,#106,.F.);
#108=CARTESIAN_POINT('',(0.,1.3,0.));
#109=VERTEX_POINT('',#108);
#110=CARTESIAN_POINT('',(0.,1.3,0.));
#111=DIRECTION('',(0.,-1.,0.));
#112=VECTOR('',#111,1.3);
#113=LINE('',#110,#112);
#114=EDGE_CURVE('',#109,#101,#113,.T.);
#115=ORIENTED_EDGE('',*,*,#114,.F.);
#116=CARTESIAN_POINT('',(0.,1.3,0.));
#117=DIRECTION('',(0.,0.,1.));
#118=VECTOR('',#117,10.);
#119=LINE('',#116,#118);
#120=EDGE_CURVE('',#109,#71,#119,.T.);
#121=ORIENTED_EDGE('',*,*,#120,.T.);
#122=ORIENTED_EDGE('',*,*,#76,.T.);
#123=EDGE_LOOP('',(#107,#115,#121,#122));
#124=FACE_BOUND('',#123,.T.);
#125=ADVANCED_FACE('',(#124),#99,.T.);
#126=CARTESIAN_POINT('',(-110.,1.3,0.));
#127=DIRECTION('',(0.,0.,-1.));
#128=DIRECTION('',(-1.,0.,0.));
#129=AXIS2_PLACEMENT_3D('',#126,#127,#128);
#130=PLANE('',#129);
#131=CARTESIAN_POINT('',(-110.,0.,0.));
#132=VERTEX_POINT('',#131);
#133=CARTESIAN_POINT('',(-110.,0.,0.));
#134=DIRECTION('',(1.,0.,-0.));
#135=VECTOR('',#134,110.);
#136=LINE('',#133,#135);
#137=EDGE_CURVE('',#132,#101,#136,.T.);
#138=ORIENTED_EDGE('',*,*,#137,.F.);
#139=CARTESIAN_POINT('',(-110.,1.3,0.));
#140=VERTEX_POINT('',#139);
#141=CARTESIAN_POINT('',(-110.,1.3,0.));
#142=DIRECTION('',(0.,-1.,0.));
#143=VECTOR('',#142,1.3);
#144=LINE('',#141,#143);
#145=EDGE_CURVE('',#140,#132,#144,.T.);
#146=ORIENTED_EDGE('',*,*,#145,.F.);
#147=CARTESIAN_POINT('',(-110.,1.3,0.));
#148=DIRECTION('',(1.,0.,-0.));
#149=VECTOR('',#148,110.);
#150=LINE('',#147,#149);
#151=EDGE_CURVE('',#140,#109,#150,.T.);
#152=ORIENTED_EDGE('',*,*,#151,.T.);
#153=ORIENTED_EDGE('',*,*,#114,.T.);
#154=EDGE_LOOP('',(#138,#146,#152,#153));
#155=FACE_BOUND('',#154,.T.);
#156=ADVANCED_FACE('',(#155),#130,.T.);
#157=CARTESIAN_POINT('',(-110.,1.3,10.));
#158=DIRECTION('',(-1.,0.,0.));
#159=DIRECTION('',(0.,0.,1.));
#160=AXIS2_PLACEMENT_3D('',#157,#158,#159);
#161=PLANE('',#160);
#162=CARTESIAN_POINT('',(-110.,0.,10.));
#163=DIRECTION('',(0.,0.,-1.));
#164=VECTOR('',#163,10.);
#165=LINE('',#162,#164);
#166=EDGE_CURVE('',#63,#132,#165,.T.);
#167=ORIENTED_EDGE('',*,*,#166,.F.);
#168=ORIENTED_EDGE('',*,*,#90,.F.);
#169=CARTESIAN_POINT('',(-110.,1.3,10.));
#170=DIRECTION('',(0.,0.,-1.));
#171=VECTOR('',#170,10.);
#172=LINE('',#169,#171);
#173=EDGE_CURVE('',#79,#140,#172,.T.);
#174=ORIENTED_EDGE('',*,*,#173,.T.);
#175=ORIENTED_EDGE('',*,*,#145,.T.);
#176=EDGE_LOOP('',(#167,#168,#174,#175));
#177=FACE_BOUND('',#176,.T.);
#178=ADVANCED_FACE('',(#177),#161,.T.);
#179=CARTESIAN_POINT('',(0.,1.3,0.));
#180=DIRECTION('',(0.,-1.,0.));
#181=DIRECTION('',(1.,0.,0.));
#182=AXIS2_PLACEMENT_3D('',#179,#180,#181);
#183=PLANE('',#182);
#184=ORIENTED_EDGE('',*,*,#84,.F.);
#185=ORIENTED_EDGE('',*,*,#120,.F.);
#186=ORIENTED_EDGE('',*,*,#151,.F.);
#187=ORIENTED_EDGE('',*,*,#173,.F.);
#188=EDGE_LOOP('',(#184,#185,#186,#187));
#189=FACE_BOUND('',#188,.T.);
#190=ADVANCED_FACE('',(#189),#183,.F.);
#191=CARTESIAN_POINT('',(0.,0.,0.));
#192=DIRECTION('',(0.,-1.,0.));
#193=DIRECTION('',(1.,0.,0.));
#194=AXIS2_PLACEMENT_3D('',#191,#192,#193);
#195=PLANE('',#194);
#196=ORIENTED_EDGE('',*,*,#68,.T.);
#197=ORIENTED_EDGE('',*,*,#166,.T.);
#198=ORIENTED_EDGE('',*,*,#137,.T.);
#199=ORIENTED_EDGE('',*,*,#106,.T.);
#200=EDGE_LOOP('',(#196,#197,#198,#199));
#201=FACE_BOUND('',#200,.T.);
#202=ADVANCED_FACE('',(#201),#195,.T.);
#203=CLOSED_SHELL('',(#94,#125,#156,#178,#190,#202));
#204=MANIFOLD_SOLID_BREP('\X2\041C04300433043D04380442043D0430044F\X0\ \X2\043B0435043D04420430\X0\',#203);
#205=COLOUR_RGB('',0.266666681,0.270588249,0.282352954);
#206=FILL_AREA_STYLE_COLOUR('',#205);
#207=FILL_AREA_STYLE('',(#206));
#208=SURFACE_STYLE_FILL_AREA(#207);
#209=SURFACE_SIDE_STYLE('',(#208));
#210=SURFACE_STYLE_USAGE(.BOTH.,#209);
#211=PRESENTATION_STYLE_ASSIGNMENT((#210));
#54=STYLED_ITEM('',(#211),#204);
#35=SHAPE_REPRESENTATION('\X2\041C04300433043D04380442043D0430044F\X0\ \X2\043B0435043D04420430\X0\',(#15),#33);
#36=ADVANCED_BREP_SHAPE_REPRESENTATION('\X2\041C04300433043D04380442043D0430044F\X0\ \X2\043B0435043D04420430\X0\',(#204),#33);
#219=SHAPE_REPRESENTATION_RELATIONSHIP('','',#35,#36);
#220=APPLICATION_CONTEXT('configuration controlled 3D design of mechanical parts and assemblies');
#221=APPLICATION_PROTOCOL_DEFINITION('international standard','configuration_control_3d_design_ed2_mim',2004,#220);
#222=PRODUCT_CONTEXT('',#220,'mechanical');
#223=PRODUCT_DEFINITION_CONTEXT('part definition',#220,'design');
#43=PRODUCT('\X2\041C04300433043D04380442043D0430044F\X0\ \X2\043B0435043D04420430\X0\','\X2\041C04300433043D04380442043D0430044F\X0\ \X2\043B0435043D04420430\X0\','',(#222));
#224=PRODUCT_RELATED_PRODUCT_CATEGORY('part','',(#43));
#225=PRODUCT_DEFINITION_FORMATION_WITH_SPECIFIED_SOURCE('','',#43,.NOT_KNOWN.);
#44=PRODUCT_DEFINITION('design','',#225,#223);
#42=PRODUCT_DEFINITION_SHAPE('','',#44);
#226=SHAPE_DEFINITION_REPRESENTATION(#42,#35);
#34=DRAUGHTING_MODEL('',(),#33);
#227=(NAMED_UNIT(*)PLANE_ANGLE_UNIT()SI_UNIT($,.RADIAN.));
#228=PLANE_ANGLE_MEASURE_WITH_UNIT(PLANE_ANGLE_MEASURE(0.0174532925),#227);
#229=(CONVERSION_BASED_UNIT('DEGREE',#228)NAMED_UNIT(#230)PLANE_ANGLE_UNIT());
#230=DIMENSIONAL_EXPONENTS(0.,0.,0.,0.,0.,0.,0.);
#231=(NAMED_UNIT(*)SI_UNIT($,.STERADIAN.)SOLID_ANGLE_UNIT());
#232=(LENGTH_UNIT()NAMED_UNIT(*)SI_UNIT(.MILLI.,.METRE.));
#233=UNCERTAINTY_MEASURE_WITH_UNIT(LENGTH_MEASURE(1.000000E-05),#232,'DISTANCE_ACCURACY_VALUE','Maximum Tolerance applied to model');
#234=(GEOMETRIC_REPRESENTATION_CONTEXT(3)GLOBAL_UNCERTAINTY_ASSIGNED_CONTEXT((#233))GLOBAL_UNIT_ASSIGNED_CONTEXT((#232,#229,#231))REPRESENTATION_CONTEXT('','\X2\042104120420\X0\20\X2\0421\X0\.02.07.001 \X2\041F043B0430043D043A0430\X0\'));
#246=CARTESIAN_POINT('',(0.,0.,0.));
#247=DIRECTION('',(0.,0.,1.));
#248=DIRECTION('',(1.,0.,-0.));
#249=AXIS2_PLACEMENT_3D('',#246,#247,#248);
#250=ITEM_DEFINED_TRANSFORMATION('','',#249,#15);
#251=(REPRESENTATION_RELATIONSHIP('','',#236,#16)REPRESENTATION_RELATIONSHIP_WITH_TRANSFORMATION(#250)SHAPE_REPRESENTATION_RELATIONSHIP());
#252=NEXT_ASSEMBLY_USAGE_OCCURRENCE('\X2\042104120420\X0\20\X2\0421\X0\.02.07.001 \X2\041F043B0430043D043A0430\X0\_2','\X2\042104120420\X0\20\X2\0421\X0\.02.07.001 \X2\041F043B0430043D043A0430\X0\','\X2\042104120420\X0\20\X2\0421\X0\.02.07.001 \X2\041F043B0430043D043A0430\X0\',#25,#245,$);
#253=PRODUCT_DEFINITION_SHAPE('','',#252);
#254=CONTEXT_DEPENDENT_SHAPE_REPRESENTATION(#251,#253);
#256=CARTESIAN_POINT('',(-110.,2.,0.));
#257=DIRECTION('',(0.,0.,-1.));
#258=DIRECTION('',(-1.,0.,0.));
#259=AXIS2_PLACEMENT_3D('',#256,#257,#258);
#260=PLANE('',#259);
#261=CARTESIAN_POINT('',(-110.,0.,0.));
#262=VERTEX_POINT('',#261);
#263=CARTESIAN_POINT('',(0.,0.,0.));
#264=VERTEX_POINT('',#263);
#265=CARTESIAN_POINT('',(-110.,0.,0.));
#266=DIRECTION('',(1.,0.,-0.));
#267=VECTOR('',#266,110.);
#268=LINE('',#265,#267);
#269=EDGE_CURVE('',#262,#264,#268,.T.);
#270=ORIENTED_EDGE('',*,*,#269,.F.);
#271=CARTESIAN_POINT('',(-110.,2.,0.));
#272=VERTEX_POINT('',#271);
#273=CARTESIAN_POINT('',(-110.,2.,0.));
#274=DIRECTION('',(0.,-1.,0.));
#275=VECTOR('',#274,2.);
#276=LINE('',#273,#275);
#277=EDGE_CURVE('',#272,#262,#276,.T.);
#278=ORIENTED_EDGE('',*,*,#277,.F.);
#279=CARTESIAN_POINT('',(0.,2.,0.));
#280=VERTEX_POINT('',#279);
#281=CARTESIAN_POINT('',(-110.,2.,0.));
#282=DIRECTION('',(1.,0.,-0.));
#283=VECTOR('',#282,110.);
#284=LINE('',#281,#283);
#285=EDGE_CURVE('',#272,#280,#284,.T.);
#286=ORIENTED_EDGE('',*,*,#285,.T.);
#287=CARTESIAN_POINT('',(0.,2.,0.));
#288=DIRECTION('',(0.,-1.,0.));
#289=VECTOR('',#288,2.);
#290=LINE('',#287,#289);
#291=EDGE_CURVE('',#280,#264,#290,.T.);
#292=ORIENTED_EDGE('',*,*,#291,.T.);
#293=EDGE_LOOP('',(#270,#278,#286,#292));
#294=FACE_BOUND('',#293,.T.);
#295=ADVANCED_FACE('',(#294),#260,.T.);
#296=CARTESIAN_POINT('',(-110.,2.,40.));
#297=DIRECTION('',(-1.,0.,0.));
#298=DIRECTION('',(0.,0.,1.));
#299=AXIS2_PLACEMENT_3D('',#296,#297,#298);
#300=PLANE('',#299);
#301=CARTESIAN_POINT('',(-110.,0.,40.));
#302=VERTEX_POINT('',#301);
#303=CARTESIAN_POINT('',(-110.,0.,40.));
#304=DIRECTION('',(0.,0.,-1.));
#305=VECTOR('',#304,40.);
#306=LINE('',#303,#305);
#307=EDGE_CURVE('',#302,#262,#306,.T.);
#308=ORIENTED_EDGE('',*,*,#307,.F.);
#309=CARTESIAN_POINT('',(-110.,2.,40.));
#310=VERTEX_POINT('',#309);
#311=CARTESIAN_POINT('',(-110.,2.,40.));
#312=DIRECTION('',(0.,-1.,0.));
#313=VECTOR('',#312,2.);
#314=LINE('',#311,#313);
#315=EDGE_CURVE('',#310,#302,#314,.T.);
#316=ORIENTED_EDGE('',*,*,#315,.F.);
#317=CARTESIAN_POINT('',(-110.,2.,40.));
#318=DIRECTION('',(0.,0.,-1.));
#319=VECTOR('',#318,40.);
#320=LINE('',#317,#319);
#321=EDGE_CURVE('',#310,#272,#320,.T.);
#322=ORIENTED_EDGE('',*,*,#321,.T.);
#323=ORIENTED_EDGE('',*,*,#277,.T.);
#324=EDGE_LOOP('',(#308,#316,#322,#323));
#325=FACE_BOUND('',#324,.T.);
#326=ADVANCED_FACE('',(#325),#300,.T.);
#327=CARTESIAN_POINT('',(0.,2.,40.));
#328=DIRECTION('',(0.,0.,1.));
#329=DIRECTION('',(1.,0.,0.));
#330=AXIS2_PLACEMENT_3D('',#327,#328,#329);
#331=PLANE('',#330);
#332=CARTESIAN_POINT('',(0.,0.,40.));
#333=VERTEX_POINT('',#332);
#334=CARTESIAN_POINT('',(0.,0.,40.));
#335=DIRECTION('',(-1.,0.,0.));
#336=VECTOR('',#335,110.);
#337=LINE('',#334,#336);
#338=EDGE_CURVE('',#333,#302,#337,.T.);
#339=ORIENTED_EDGE('',*,*,#338,.F.);
#340=CARTESIAN_POINT('',(0.,2.,40.));
#341=VERTEX_POINT('',#340);
#342=CARTESIAN_POINT('',(0.,2.,40.));
#343=DIRECTION('',(0.,-1.,0.));
#344=VECTOR('',#343,2.);
#345=LINE('',#342,#344);
#346=EDGE_CURVE('',#341,#333,#345,.T.);
#347=ORIENTED_EDGE('',*,*,#346,.F.);
#348=CARTESIAN_POINT('',(0.,2.,40.));
#349=DIRECTION('',(-1.,0.,0.));
#350=VECTOR('',#349,110.);
#351=LINE('',#348,#350);
#352=EDGE_CURVE('',#341,#310,#351,.T.);
#353=ORIENTED_EDGE('',*,*,#352,.T.);
#354=ORIENTED_EDGE('',*,*,#315,.T.);
#355=EDGE_LOOP('',(#339,#347,#353,#354));
#356=FACE_BOUND('',#355,.T.);
#357=ADVANCED_FACE('',(#356),#331,.T.);
#358=CARTESIAN_POINT('',(-83.,2.,27.));
#359=DIRECTION('',(0.,-1.,0.));
#360=DIRECTION('',(0.,0.,-1.));
#361=AXIS2_PLACEMENT_3D('',#358,#359,#360);
#362=CYLINDRICAL_SURFACE('',#361,2.7);
#363=CARTESIAN_POINT('',(-83.,0.,24.3));
#364=VERTEX_POINT('',#363);
#365=CARTESIAN_POINT('',(-83.,2.,24.3));
#366=VERTEX_POINT('',#365);
#367=CARTESIAN_POINT('',(-83.,0.,24.3));
#368=DIRECTION('',(-0.,1.,-0.));
#369=VECTOR('',#368,2.);
#370=LINE('',#367,#369);
#371=EDGE_CURVE('',#364,#366,#370,.T.);
#372=ORIENTED_EDGE('',*,*,#371,.F.);
#373=CARTESIAN_POINT('',(-85.7,0.,27.));
#374=VERTEX_POINT('',#373);
#375=CARTESIAN_POINT('',(-83.,0.,27.));
#376=DIRECTION('',(0.,1.,0.));
#377=DIRECTION('',(-1.,0.,0.));
#378=AXIS2_PLACEMENT_3D('',#375,#376,#377);
#379=CIRCLE('',#378,2.7);
#380=EDGE_CURVE('',#374,#364,#379,.T.);
#381=ORIENTED_EDGE('',*,*,#380,.F.);
#382=CARTESIAN_POINT('',(-83.,0.,27.));
#383=DIRECTION('',(0.,1.,0.));
#384=DIRECTION('',(-1.,0.,0.));
#385=AXIS2_PLACEMENT_3D('',#382,#383,#384);
#386=CIRCLE('',#385,2.7);
#387=EDGE_CURVE('',#364,#374,#386,.T.);
#388=ORIENTED_EDGE('',*,*,#387,.F.);
#389=ORIENTED_EDGE('',*,*,#371,.T.);
#390=CARTESIAN_POINT('',(-85.7,2.,27.));
#391=VERTEX_POINT('',#390);
#392=CARTESIAN_POINT('',(-83.,2.,27.));
#393=DIRECTION('',(0.,1.,0.));
#394=DIRECTION('',(-1.,0.,0.));
#395=AXIS2_PLACEMENT_3D('',#392,#393,#394);
#396=CIRCLE('',#395,2.7);
#397=EDGE_CURVE('',#366,#391,#396,.T.);
#398=ORIENTED_EDGE('',*,*,#397,.T.);
#399=CARTESIAN_POINT('',(-83.,2.,27.));
#400=DIRECTION('',(0.,1.,0.));
#401=DIRECTION('',(-1.,0.,0.));
#402=AXIS2_PLACEMENT_3D('',#399,#400,#401);
#403=CIRCLE('',#402,2.7);
#404=EDGE_CURVE('',#391,#366,#403,.T.);
#405=ORIENTED_EDGE('',*,*,#404,.T.);
#406=EDGE_LOOP('',(#372,#381,#388,#389,#398,#405));
#407=FACE_BOUND('',#406,.T.);
#408=ADVANCED_FACE('',(#407),#362,.F.);
#409=CARTESIAN_POINT('',(0.,2.,0.));
#410=DIRECTION('',(1.,0.,0.));
#411=DIRECTION('',(0.,0.,-1.));
#412=AXIS2_PLACEMENT_3D('',#409,#410,#411);
#413=PLANE('',#412);
#414=CARTESIAN_POINT('',(0.,0.,0.));
#415=DIRECTION('',(0.,0.,1.));
#416=VECTOR('',#415,40.);
#417=LINE('',#414,#416);
#418=EDGE_CURVE('',#264,#333,#417,.T.);
#419=ORIENTED_EDGE('',*,*,#418,.F.);
#420=ORIENTED_EDGE('',*,*,#291,.F.);
#421=CARTESIAN_POINT('',(0.,2.,0.));
#422=DIRECTION('',(0.,0.,1.));
#423=VECTOR('',#422,40.);
#424=LINE('',#421,#423);
#425=EDGE_CURVE('',#280,#341,#424,.T.);
#426=ORIENTED_EDGE('',*,*,#425,.T.);
#427=ORIENTED_EDGE('',*,*,#346,.T.);
#428=EDGE_LOOP('',(#419,#420,#426,#427));
#429=FACE_BOUND('',#428,.T.);
#430=ADVANCED_FACE('',(#429),#413,.T.);
#431=CARTESIAN_POINT('',(-98.,2.,27.));
#432=DIRECTION('',(0.,-1.,0.));
#433=DIRECTION('',(0.,0.,-1.));
#434=AXIS2_PLACEMENT_3D('',#431,#432,#433);
#435=CYLINDRICAL_SURFACE('',#434,2.7);
#436=CARTESIAN_POINT('',(-98.,0.,24.3));
#437=VERTEX_POINT('',#436);
#438=CARTESIAN_POINT('',(-98.,2.,24.3));
#439=VERTEX_POINT('',#438);
#440=CARTESIAN_POINT('',(-98.,0.,24.3));
#441=DIRECTION('',(-0.,1.,-0.));
#442=VECTOR('',#441,2.);
#443=LINE('',#440,#442);
#444=EDGE_CURVE('',#437,#439,#443,.T.);
#445=ORIENTED_EDGE('',*,*,#444,.F.);
#446=CARTESIAN_POINT('',(-100.7,0.,27.));
#447=VERTEX_POINT('',#446);
#448=CARTESIAN_POINT('',(-98.,0.,27.));
#449=DIRECTION('',(0.,1.,0.));
#450=DIRECTION('',(-1.,0.,0.));
#451=AXIS2_PLACEMENT_3D('',#448,#449,#450);
#452=CIRCLE('',#451,2.7);
#453=EDGE_CURVE('',#447,#437,#452,.T.);
#454=ORIENTED_EDGE('',*,*,#453,.F.);
#455=CARTESIAN_POINT('',(-98.,0.,27.));
#456=DIRECTION('',(0.,1.,0.));
#457=DIRECTION('',(-1.,0.,0.));
#458=AXIS2_PLACEMENT_3D('',#455,#456,#457);
#459=CIRCLE('',#458,2.7);
#460=EDGE_CURVE('',#437,#447,#459,.T.);
#461=ORIENTED_EDGE('',*,*,#460,.F.);
#462=ORIENTED_EDGE('',*,*,#444,.T.);
#463=CARTESIAN_POINT('',(-100.7,2.,27.));
#464=VERTEX_POINT('',#463);
#465=CARTESIAN_POINT('',(-98.,2.,27.));
#466=DIRECTION('',(0.,1.,0.));
#467=DIRECTION('',(-1.,0.,0.));
#468=AXIS2_PLACEMENT_3D('',#465,#466,#467);
#469=CIRCLE('',#468,2.7);
#470=EDGE_CURVE('',#439,#464,#469,.T.);
#471=ORIENTED_EDGE('',*,*,#470,.T.);
#472=CARTESIAN_POINT('',(-98.,2.,27.));
#473=DIRECTION('',(0.,1.,0.));
#474=DIRECTION('',(-1.,0.,0.));
#475=AXIS2_PLACEMENT_3D('',#472,#473,#474);
#476=CIRCLE('',#475,2.7);
#477=EDGE_CURVE('',#464,#439,#476,.T.);
#478=ORIENTED_EDGE('',*,*,#477,.T.);
#479=EDGE_LOOP('',(#445,#454,#461,#462,#471,#478));
#480=FACE_BOUND('',#479,.T.);
#481=ADVANCED_FACE('',(#480),#435,.F.);
#482=CARTESIAN_POINT('',(0.,2.,0.));
#483=DIRECTION('',(0.,1.,0.));
#484=DIRECTION('',(-1.,0.,0.));
#485=AXIS2_PLACEMENT_3D('',#482,#483,#484);
#486=PLANE('',#485);
#487=ORIENTED_EDGE('',*,*,#285,.F.);
#488=ORIENTED_EDGE('',*,*,#321,.F.);
#489=ORIENTED_EDGE('',*,*,#352,.F.);
#490=ORIENTED_EDGE('',*,*,#425,.F.);
#491=EDGE_LOOP('',(#487,#488,#489,#490));
#492=FACE_BOUND('',#491,.T.);
#493=ORIENTED_EDGE('',*,*,#397,.F.);
#494=ORIENTED_EDGE('',*,*,#404,.F.);
#495=EDGE_LOOP('',(#493,#494));
#496=FACE_BOUND('',#495,.T.);
#497=ORIENTED_EDGE('',*,*,#470,.F.);
#498=ORIENTED_EDGE('',*,*,#477,.F.);
#499=EDGE_LOOP('',(#497,#498));
#500=FACE_BOUND('',#499,.T.);
#501=ADVANCED_FACE('',(#492,#496,#500),#486,.T.);
#502=CARTESIAN_POINT('',(0.,0.,0.));
#503=DIRECTION('',(0.,1.,0.));
#504=DIRECTION('',(-1.,0.,0.));
#505=AXIS2_PLACEMENT_3D('',#502,#503,#504);
#506=PLANE('',#505);
#507=ORIENTED_EDGE('',*,*,#269,.T.);
#508=ORIENTED_EDGE('',*,*,#418,.T.);
#509=ORIENTED_EDGE('',*,*,#338,.T.);
#510=ORIENTED_EDGE('',*,*,#307,.T.);
#511=EDGE_LOOP('',(#507,#508,#509,#510));
#512=FACE_BOUND('',#511,.T.);
#513=ORIENTED_EDGE('',*,*,#380,.T.);
#514=ORIENTED_EDGE('',*,*,#387,.T.);
#515=EDGE_LOOP('',(#513,#514));
#516=FACE_BOUND('',#515,.T.);
#517=ORIENTED_EDGE('',*,*,#453,.T.);
#518=ORIENTED_EDGE('',*,*,#460,.T.);
#519=EDGE_LOOP('',(#517,#518));
#520=FACE_BOUND('',#519,.T.);
#521=ADVANCED_FACE('',(#512,#516,#520),#506,.F.);
#522=CLOSED_SHELL('',(#295,#326,#357,#408,#430,#481,#501,#521));
#523=MANIFOLD_SOLID_BREP('\X2\042104120420\X0\20\X2\0421\X0\.02.07.001 \X2\041F043B0430043D043A0430\X0\',#522);
#524=COLOUR_RGB('',0.501960814,0.501960814,0.501960814);
#525=FILL_AREA_STYLE_COLOUR('',#524);
#526=FILL_AREA_STYLE('',(#525));
#527=SURFACE_STYLE_FILL_AREA(#526);
#528=SURFACE_SIDE_STYLE('',(#527));
#529=SURFACE_STYLE_USAGE(.BOTH.,#528);
#530=PRESENTATION_STYLE_ASSIGNMENT((#529));
#255=STYLED_ITEM('',(#530),#523);
#236=SHAPE_REPRESENTATION('\X2\042104120420\X0\20\X2\0421\X0\.02.07.001 \X2\041F043B0430043D043A0430\X0\',(#15),#234);
#237=ADVANCED_BREP_SHAPE_REPRESENTATION('\X2\042104120420\X0\20\X2\0421\X0\.02.07.001 \X2\041F043B0430043D043A0430\X0\',(#523),#234);
#538=SHAPE_REPRESENTATION_RELATIONSHIP('','',#236,#237);
#244=PRODUCT('\X2\042104120420\X0\20\X2\0421\X0\.02.07.001','\X2\041F043B0430043D043A0430\X0\','',(#222));
#539=PRODUCT_RELATED_PRODUCT_CATEGORY('part','',(#244));
#540=PRODUCT_DEFINITION_FORMATION_WITH_SPECIFIED_SOURCE('','',#244,.NOT_KNOWN.);
#245=PRODUCT_DEFINITION('design','',#540,#223);
#243=PRODUCT_DEFINITION_SHAPE('','',#245);
#541=SHAPE_DEFINITION_REPRESENTATION(#243,#236);
#235=DRAUGHTING_MODEL('',(),#234);
#16=SHAPE_REPRESENTATION('\X2\042104120420\X0\20\X2\0421\X0\.02.07.000 \X2\041C04300433043D04380442043D0430044F\X0\ \X2\043B0438043D04350439043A0430\X0\',(#15,#48,#249),#10);
#24=PRODUCT('\X2\042104120420\X0\20\X2\0421\X0\.02.07.000 \X2\041C04300433043D04380442043D0430044F\X0\ \X2\043B0438043D04350439043A0430\X0\','\X2\042104120420\X0\20\X2\0421\X0\.02.07.000 \X2\041C04300433043D04380442043D0430044F\X0\ \X2\043B0438043D04350439043A0430\X0\','',(#222));
#542=PRODUCT_RELATED_PRODUCT_CATEGORY('part','',(#24));
#543=PRODUCT_DEFINITION_FORMATION_WITH_SPECIFIED_SOURCE('','',#24,.NOT_KNOWN.);
#25=PRODUCT_DEFINITION('design','',#543,#223);
#23=PRODUCT_DEFINITION_SHAPE('','',#25);
#544=SHAPE_DEFINITION_REPRESENTATION(#23,#16);
#11=DRAUGHTING_MODEL('',(),#10);
#1=MECHANICAL_DESIGN_GEOMETRIC_PRESENTATION_REPRESENTATION('',(#54,#255),#10);
ENDSEC;
END-ISO-10303-21;
