G04*
G04 #@! TF.GenerationSoftware,Altium Limited,Altium Designer,21.8.1 (53)*
G04*
G04 Layer_Color=65535*
%FSLAX44Y44*%
%MOMM*%
G71*
G04*
G04 #@! TF.SameCoordinates,3F464519-866B-4150-A2EE-2C7BF93CB1E1*
G04*
G04*
G04 #@! TF.FilePolarity,Positive*
G04*
G01*
G75*
%ADD10C,0.2540*%
%ADD11C,0.2000*%
%ADD12C,0.0500*%
G36*
X294713Y88718D02*
X294796Y88691D01*
X294907Y88649D01*
X295032Y88593D01*
X295184Y88538D01*
X295351Y88469D01*
X295531Y88385D01*
X295905Y88191D01*
X296294Y87942D01*
X296668Y87636D01*
X296835Y87470D01*
X296987Y87290D01*
X297001Y87276D01*
X297015Y87248D01*
X297057Y87193D01*
X297112Y87109D01*
X297167Y87012D01*
X297223Y86888D01*
X297292Y86749D01*
X297362Y86596D01*
X297445Y86416D01*
X297514Y86222D01*
X297570Y86014D01*
X297625Y85792D01*
X297681Y85556D01*
X297722Y85293D01*
X297736Y85029D01*
X297750Y84738D01*
Y84655D01*
X297736Y84558D01*
X297722Y84419D01*
X297708Y84267D01*
X297681Y84072D01*
X297639Y83864D01*
X297584Y83629D01*
X297514Y83393D01*
X297431Y83143D01*
X297320Y82880D01*
X297195Y82616D01*
X297057Y82353D01*
X296876Y82089D01*
X296682Y81840D01*
X296446Y81604D01*
X296432Y81590D01*
X296391Y81548D01*
X296308Y81493D01*
X296211Y81410D01*
X296072Y81326D01*
X295919Y81215D01*
X295725Y81104D01*
X295503Y80993D01*
X295268Y80883D01*
X295004Y80772D01*
X294699Y80661D01*
X294380Y80577D01*
X294047Y80494D01*
X293673Y80439D01*
X293284Y80397D01*
X292868Y80383D01*
X292854D01*
X292841D01*
X292757D01*
X292633Y80397D01*
X292466D01*
X292272Y80425D01*
X292036Y80453D01*
X291787Y80480D01*
X291495Y80536D01*
X291204Y80605D01*
X290899Y80688D01*
X290594Y80786D01*
X290275Y80910D01*
X289970Y81049D01*
X289679Y81215D01*
X289401Y81396D01*
X289138Y81618D01*
X289124Y81631D01*
X289082Y81673D01*
X289013Y81742D01*
X288930Y81840D01*
X288833Y81964D01*
X288722Y82117D01*
X288597Y82283D01*
X288472Y82491D01*
X288347Y82713D01*
X288222Y82949D01*
X288111Y83226D01*
X288014Y83504D01*
X287931Y83823D01*
X287862Y84142D01*
X287820Y84502D01*
X287806Y84863D01*
Y85029D01*
X287820Y85154D01*
X287834Y85307D01*
X287862Y85473D01*
X287890Y85667D01*
X287931Y85875D01*
X287987Y86097D01*
X288056Y86333D01*
X288139Y86569D01*
X288250Y86818D01*
X288361Y87054D01*
X288500Y87276D01*
X288666Y87512D01*
X288846Y87720D01*
Y87734D01*
X288874Y87747D01*
X288916Y87789D01*
X288957Y87831D01*
X289027Y87886D01*
X289110Y87942D01*
X289304Y88094D01*
X289554Y88247D01*
X289859Y88413D01*
X290206Y88566D01*
X290608Y88704D01*
X291065Y86791D01*
X291052D01*
X291038Y86777D01*
X290996D01*
X290941Y86749D01*
X290816Y86707D01*
X290649Y86638D01*
X290455Y86541D01*
X290261Y86416D01*
X290067Y86250D01*
X289900Y86069D01*
X289887Y86042D01*
X289831Y85972D01*
X289762Y85861D01*
X289679Y85709D01*
X289595Y85515D01*
X289526Y85293D01*
X289471Y85043D01*
X289457Y84766D01*
Y84669D01*
X289471Y84586D01*
X289484Y84502D01*
X289498Y84391D01*
X289554Y84156D01*
X289651Y83878D01*
X289790Y83587D01*
X289873Y83434D01*
X289970Y83296D01*
X290095Y83157D01*
X290233Y83032D01*
X290247D01*
X290275Y83005D01*
X290317Y82977D01*
X290386Y82935D01*
X290469Y82880D01*
X290566Y82824D01*
X290691Y82769D01*
X290830Y82713D01*
X290996Y82644D01*
X291176Y82588D01*
X291384Y82533D01*
X291606Y82478D01*
X291856Y82436D01*
X292119Y82408D01*
X292411Y82394D01*
X292730Y82380D01*
X292743D01*
X292813D01*
X292910D01*
X293021Y82394D01*
X293173D01*
X293354Y82422D01*
X293534Y82436D01*
X293742Y82464D01*
X294172Y82547D01*
X294602Y82658D01*
X294810Y82727D01*
X295004Y82824D01*
X295184Y82921D01*
X295337Y83032D01*
X295351Y83046D01*
X295365Y83060D01*
X295406Y83102D01*
X295462Y83157D01*
X295573Y83296D01*
X295711Y83490D01*
X295864Y83726D01*
X295975Y84017D01*
X296072Y84350D01*
X296086Y84530D01*
X296100Y84724D01*
Y84794D01*
X296086Y84849D01*
X296072Y85001D01*
X296044Y85182D01*
X295975Y85376D01*
X295892Y85598D01*
X295781Y85820D01*
X295614Y86042D01*
X295586Y86069D01*
X295517Y86139D01*
X295406Y86236D01*
X295240Y86347D01*
X295018Y86485D01*
X294754Y86610D01*
X294436Y86735D01*
X294061Y86846D01*
X294643Y88732D01*
X294657D01*
X294713Y88718D01*
D02*
G37*
G36*
X297584Y76736D02*
X291260Y72839D01*
X297584D01*
Y71050D01*
X287987D01*
Y72922D01*
X294449Y76888D01*
X287987D01*
Y78678D01*
X297584D01*
Y76736D01*
D02*
G37*
G36*
Y67250D02*
X287987D01*
Y69191D01*
X297584D01*
Y67250D01*
D02*
G37*
G36*
X294713Y51114D02*
X294796Y51086D01*
X294907Y51044D01*
X295032Y50989D01*
X295184Y50933D01*
X295351Y50864D01*
X295531Y50781D01*
X295905Y50587D01*
X296294Y50337D01*
X296668Y50032D01*
X296835Y49865D01*
X296987Y49685D01*
X297001Y49671D01*
X297015Y49643D01*
X297057Y49588D01*
X297112Y49505D01*
X297168Y49408D01*
X297223Y49283D01*
X297292Y49144D01*
X297362Y48992D01*
X297445Y48811D01*
X297514Y48617D01*
X297570Y48409D01*
X297625Y48187D01*
X297681Y47951D01*
X297722Y47688D01*
X297736Y47425D01*
X297750Y47133D01*
Y47050D01*
X297736Y46953D01*
X297722Y46814D01*
X297708Y46662D01*
X297681Y46468D01*
X297639Y46259D01*
X297584Y46024D01*
X297514Y45788D01*
X297431Y45538D01*
X297320Y45275D01*
X297195Y45011D01*
X297057Y44748D01*
X296876Y44484D01*
X296682Y44235D01*
X296446Y43999D01*
X296432Y43985D01*
X296391Y43944D01*
X296308Y43888D01*
X296211Y43805D01*
X296072Y43722D01*
X295919Y43611D01*
X295725Y43500D01*
X295503Y43389D01*
X295268Y43278D01*
X295004Y43167D01*
X294699Y43056D01*
X294380Y42973D01*
X294047Y42889D01*
X293673Y42834D01*
X293284Y42792D01*
X292868Y42779D01*
X292854D01*
X292841D01*
X292757D01*
X292633Y42792D01*
X292466D01*
X292272Y42820D01*
X292036Y42848D01*
X291787Y42876D01*
X291495Y42931D01*
X291204Y43000D01*
X290899Y43084D01*
X290594Y43181D01*
X290275Y43306D01*
X289970Y43444D01*
X289679Y43611D01*
X289401Y43791D01*
X289138Y44013D01*
X289124Y44027D01*
X289082Y44068D01*
X289013Y44138D01*
X288930Y44235D01*
X288833Y44360D01*
X288722Y44512D01*
X288597Y44679D01*
X288472Y44887D01*
X288347Y45108D01*
X288222Y45344D01*
X288111Y45622D01*
X288014Y45899D01*
X287931Y46218D01*
X287862Y46537D01*
X287820Y46898D01*
X287806Y47258D01*
Y47425D01*
X287820Y47549D01*
X287834Y47702D01*
X287862Y47868D01*
X287890Y48062D01*
X287931Y48271D01*
X287987Y48492D01*
X288056Y48728D01*
X288139Y48964D01*
X288250Y49214D01*
X288361Y49449D01*
X288500Y49671D01*
X288666Y49907D01*
X288846Y50115D01*
Y50129D01*
X288874Y50143D01*
X288916Y50184D01*
X288958Y50226D01*
X289027Y50281D01*
X289110Y50337D01*
X289304Y50489D01*
X289554Y50642D01*
X289859Y50808D01*
X290206Y50961D01*
X290608Y51100D01*
X291066Y49186D01*
X291052D01*
X291038Y49172D01*
X290996D01*
X290941Y49144D01*
X290816Y49103D01*
X290649Y49033D01*
X290455Y48936D01*
X290261Y48811D01*
X290067Y48645D01*
X289900Y48465D01*
X289887Y48437D01*
X289831Y48368D01*
X289762Y48257D01*
X289679Y48104D01*
X289595Y47910D01*
X289526Y47688D01*
X289471Y47438D01*
X289457Y47161D01*
Y47064D01*
X289471Y46981D01*
X289485Y46898D01*
X289498Y46786D01*
X289554Y46551D01*
X289651Y46273D01*
X289790Y45982D01*
X289873Y45830D01*
X289970Y45691D01*
X290095Y45552D01*
X290233Y45427D01*
X290247D01*
X290275Y45400D01*
X290317Y45372D01*
X290386Y45330D01*
X290469Y45275D01*
X290566Y45219D01*
X290691Y45164D01*
X290830Y45108D01*
X290996Y45039D01*
X291176Y44984D01*
X291384Y44928D01*
X291606Y44873D01*
X291856Y44831D01*
X292120Y44803D01*
X292411Y44790D01*
X292730Y44776D01*
X292743D01*
X292813D01*
X292910D01*
X293021Y44790D01*
X293174D01*
X293354Y44817D01*
X293534Y44831D01*
X293742Y44859D01*
X294172Y44942D01*
X294602Y45053D01*
X294810Y45122D01*
X295004Y45219D01*
X295184Y45317D01*
X295337Y45427D01*
X295351Y45441D01*
X295365Y45455D01*
X295406Y45497D01*
X295462Y45552D01*
X295573Y45691D01*
X295711Y45885D01*
X295864Y46121D01*
X295975Y46412D01*
X296072Y46745D01*
X296086Y46925D01*
X296100Y47119D01*
Y47189D01*
X296086Y47244D01*
X296072Y47397D01*
X296044Y47577D01*
X295975Y47771D01*
X295892Y47993D01*
X295781Y48215D01*
X295614Y48437D01*
X295587Y48465D01*
X295517Y48534D01*
X295406Y48631D01*
X295240Y48742D01*
X295018Y48881D01*
X294755Y49005D01*
X294436Y49130D01*
X294061Y49241D01*
X294643Y51127D01*
X294657D01*
X294713Y51114D01*
D02*
G37*
G36*
X297584Y34180D02*
X287987D01*
Y41295D01*
X289609D01*
Y36122D01*
X291731D01*
Y40934D01*
X293354D01*
Y36122D01*
X295961D01*
Y41475D01*
X297584D01*
Y34180D01*
D02*
G37*
G36*
X293187Y32516D02*
X293298D01*
X293437Y32502D01*
X293589Y32488D01*
X293909Y32460D01*
X294241Y32405D01*
X294588Y32322D01*
X294921Y32225D01*
X294935D01*
X294963Y32211D01*
X295018Y32183D01*
X295101Y32155D01*
X295184Y32128D01*
X295282Y32072D01*
X295531Y31961D01*
X295795Y31823D01*
X296086Y31642D01*
X296363Y31434D01*
X296627Y31198D01*
X296654Y31171D01*
X296710Y31101D01*
X296793Y30990D01*
X296904Y30838D01*
X297029Y30644D01*
X297154Y30422D01*
X297278Y30145D01*
X297389Y29839D01*
Y29825D01*
X297403Y29812D01*
Y29770D01*
X297417Y29728D01*
X297445Y29576D01*
X297486Y29382D01*
X297528Y29146D01*
X297556Y28855D01*
X297570Y28508D01*
X297584Y28133D01*
Y24500D01*
X287987D01*
Y28328D01*
X288001Y28439D01*
X288014Y28702D01*
X288028Y28993D01*
X288070Y29299D01*
X288111Y29590D01*
X288181Y29853D01*
Y29867D01*
X288195Y29895D01*
X288209Y29936D01*
X288222Y29992D01*
X288292Y30158D01*
X288389Y30352D01*
X288514Y30574D01*
X288666Y30824D01*
X288846Y31060D01*
X289068Y31295D01*
Y31309D01*
X289096Y31323D01*
X289179Y31393D01*
X289318Y31504D01*
X289498Y31628D01*
X289720Y31781D01*
X289984Y31934D01*
X290289Y32086D01*
X290622Y32211D01*
X290636D01*
X290663Y32225D01*
X290719Y32239D01*
X290788Y32266D01*
X290871Y32280D01*
X290982Y32308D01*
X291107Y32336D01*
X291246Y32377D01*
X291398Y32405D01*
X291579Y32433D01*
X291759Y32460D01*
X291967Y32474D01*
X292397Y32516D01*
X292882Y32530D01*
X292896D01*
X292938D01*
X292993D01*
X293076D01*
X293187Y32516D01*
D02*
G37*
%LPC*%
G36*
X292799Y30533D02*
X292785D01*
X292743D01*
X292688D01*
X292619D01*
X292522D01*
X292411Y30519D01*
X292175Y30505D01*
X291898Y30477D01*
X291606Y30450D01*
X291343Y30394D01*
X291093Y30325D01*
X291079D01*
X291066Y30311D01*
X290996Y30283D01*
X290885Y30241D01*
X290746Y30186D01*
X290608Y30103D01*
X290455Y30006D01*
X290303Y29895D01*
X290164Y29770D01*
X290150Y29756D01*
X290109Y29715D01*
X290053Y29631D01*
X289984Y29534D01*
X289900Y29396D01*
X289831Y29243D01*
X289762Y29077D01*
X289706Y28882D01*
Y28869D01*
X289692Y28799D01*
X289679Y28688D01*
X289651Y28536D01*
Y28439D01*
X289637Y28314D01*
Y28189D01*
X289623Y28050D01*
Y27884D01*
X289609Y27704D01*
Y26442D01*
X295961D01*
Y28147D01*
X295947Y28328D01*
Y28522D01*
X295919Y28716D01*
X295905Y28896D01*
X295878Y29049D01*
Y29077D01*
X295850Y29132D01*
X295822Y29215D01*
X295781Y29326D01*
X295725Y29451D01*
X295656Y29576D01*
X295573Y29701D01*
X295476Y29825D01*
X295462Y29839D01*
X295420Y29881D01*
X295351Y29936D01*
X295254Y30006D01*
X295129Y30075D01*
X294976Y30172D01*
X294782Y30241D01*
X294560Y30325D01*
X294546D01*
X294533Y30339D01*
X294491D01*
X294436Y30352D01*
X294380Y30380D01*
X294297Y30394D01*
X294089Y30436D01*
X293839Y30463D01*
X293548Y30505D01*
X293187Y30519D01*
X292799Y30533D01*
D02*
G37*
%LPD*%
D10*
X129050Y66750D02*
Y104850D01*
Y3250D02*
Y41350D01*
X78250Y3250D02*
X129050D01*
X78250Y104850D02*
X129050D01*
X78250Y3250D02*
Y104850D01*
D11*
X172000Y65000D02*
Y87000D01*
X154000Y65000D02*
Y87000D01*
Y65000D02*
X204000D01*
Y87000D01*
X154000D02*
X204000D01*
X212000Y10000D02*
Y32000D01*
X230000Y10000D02*
Y32000D01*
X180000D02*
X230000D01*
X180000Y10000D02*
Y32000D01*
Y10000D02*
X230000D01*
X172000Y18000D02*
Y54000D01*
X154000Y18000D02*
Y54000D01*
X172000D01*
X154000Y18000D02*
X172000D01*
X182000Y42000D02*
Y56000D01*
X210000Y42000D02*
Y56000D01*
X182000D02*
X210000D01*
X182000Y42000D02*
X210000D01*
X62668Y104999D02*
X68000Y97001D01*
Y104999D02*
X62668Y97001D01*
X70666D02*
X73332D01*
X71999D01*
Y104999D01*
X70666Y103666D01*
X261501Y69337D02*
X266833D01*
X269499Y72003D01*
X266833Y74668D01*
X261501D01*
Y77334D02*
X269499D01*
Y81333D01*
X268166Y82666D01*
X262834D01*
X261501Y81333D01*
Y77334D01*
X269499Y90663D02*
Y85332D01*
X264167Y90663D01*
X262834D01*
X261501Y89330D01*
Y86664D01*
X262834Y85332D01*
X261751Y28670D02*
X267083D01*
X269749Y31335D01*
X267083Y34001D01*
X261751D01*
Y36667D02*
X269749D01*
Y40666D01*
X268416Y41999D01*
X263084D01*
X261751Y40666D01*
Y36667D01*
X269749Y44665D02*
Y47330D01*
Y45997D01*
X261751D01*
X263084Y44665D01*
X228335Y89001D02*
Y96999D01*
X232334D01*
X233667Y95666D01*
Y93000D01*
X232334Y91667D01*
X228335D01*
X231001D02*
X233667Y89001D01*
X236333Y95666D02*
X237666Y96999D01*
X240332D01*
X241665Y95666D01*
Y94333D01*
X240332Y93000D01*
X241665Y91667D01*
Y90334D01*
X240332Y89001D01*
X237666D01*
X236333Y90334D01*
Y91667D01*
X237666Y93000D01*
X236333Y94333D01*
Y95666D01*
X237666Y93000D02*
X240332D01*
X254249Y61336D02*
X246251D01*
Y65334D01*
X247584Y66667D01*
X250250D01*
X251583Y65334D01*
Y61336D01*
Y64001D02*
X254249Y66667D01*
X246251Y69333D02*
Y74665D01*
X247584D01*
X252916Y69333D01*
X254249D01*
X254499Y27585D02*
X246501D01*
Y31584D01*
X247834Y32917D01*
X250500D01*
X251833Y31584D01*
Y27585D01*
Y30251D02*
X254499Y32917D01*
X246501Y40915D02*
X247834Y38249D01*
X250500Y35583D01*
X253166D01*
X254499Y36916D01*
Y39582D01*
X253166Y40915D01*
X251833D01*
X250500Y39582D01*
Y35583D01*
X282335Y94001D02*
Y101999D01*
X286334D01*
X287667Y100666D01*
Y98000D01*
X286334Y96667D01*
X282335D01*
X285001D02*
X287667Y94001D01*
X295665D02*
X290333D01*
X295665Y99333D01*
Y100666D01*
X294332Y101999D01*
X291666D01*
X290333Y100666D01*
X269668Y3001D02*
Y10999D01*
X273667D01*
X275000Y9666D01*
Y7000D01*
X273667Y5667D01*
X269668D01*
X272334D02*
X275000Y3001D01*
X277666D02*
X280332D01*
X278999D01*
Y10999D01*
X277666Y9666D01*
X142667Y37666D02*
X141334Y38999D01*
X138668D01*
X137336Y37666D01*
Y32334D01*
X138668Y31001D01*
X141334D01*
X142667Y32334D01*
X149332Y31001D02*
Y38999D01*
X145333Y35000D01*
X150665D01*
X220667Y51666D02*
X219334Y52999D01*
X216668D01*
X215336Y51666D01*
Y46334D01*
X216668Y45001D01*
X219334D01*
X220667Y46334D01*
X223333Y51666D02*
X224666Y52999D01*
X227332D01*
X228664Y51666D01*
Y50333D01*
X227332Y49000D01*
X225999D01*
X227332D01*
X228664Y47667D01*
Y46334D01*
X227332Y45001D01*
X224666D01*
X223333Y46334D01*
X240167Y18166D02*
X238834Y19499D01*
X236168D01*
X234835Y18166D01*
Y12834D01*
X236168Y11501D01*
X238834D01*
X240167Y12834D01*
X248165Y11501D02*
X242833D01*
X248165Y16833D01*
Y18166D01*
X246832Y19499D01*
X244166D01*
X242833Y18166D01*
X142750Y78666D02*
X141417Y79999D01*
X138751D01*
X137418Y78666D01*
Y73334D01*
X138751Y72001D01*
X141417D01*
X142750Y73334D01*
X145416Y72001D02*
X148082D01*
X146749D01*
Y79999D01*
X145416Y78666D01*
D12*
X275190Y39000D02*
X277095D01*
X280905D02*
X282810D01*
X277095D02*
X280905D01*
X279000D02*
X282810Y35190D01*
X279000Y39000D02*
Y39055D01*
X275190Y35245D02*
X279000Y39055D01*
X275190Y35190D02*
Y35245D01*
Y35190D02*
X282810D01*
X279000Y30110D02*
Y48000D01*
X272500Y51500D02*
X285500D01*
Y23500D02*
Y51500D01*
X272500Y23500D02*
X285500D01*
X272500D02*
Y51500D01*
X280905Y76000D02*
X282810D01*
X275190D02*
X277095D01*
X280905D01*
X275190Y79810D02*
X279000Y76000D01*
Y75945D02*
Y76000D01*
Y75945D02*
X282810Y79755D01*
Y79810D01*
X275190D02*
X282810D01*
X279000Y67000D02*
Y84890D01*
X272500Y63500D02*
X285500D01*
X272500D02*
Y91500D01*
X285500D01*
Y63500D02*
Y91500D01*
M02*
