G04*
G04 #@! TF.GenerationSoftware,Altium Limited,Altium Designer,21.8.1 (53)*
G04*
G04 Layer_Physical_Order=1*
G04 Layer_Color=255*
%FSLAX44Y44*%
%MOMM*%
G71*
G04*
G04 #@! TF.SameCoordinates,3F464519-866B-4150-A2EE-2C7BF93CB1E1*
G04*
G04*
G04 #@! TF.FilePolarity,Positive*
G04*
G01*
G75*
%ADD21R,1.2000X1.6000*%
%ADD22R,1.0000X0.6000*%
%ADD23R,1.2500X1.0000*%
%ADD24R,0.8500X0.8500*%
%ADD25R,0.6000X0.6000*%
%ADD26R,0.6000X0.6000*%
%ADD27C,0.3000*%
%ADD28C,1.0000*%
%ADD29C,6.0000*%
%ADD30C,0.6000*%
G36*
X100139Y80216D02*
X100154Y79803D01*
X100199Y79379D01*
X100273Y78945D01*
X100378Y78500D01*
X100512Y78044D01*
X100869Y77100D01*
X101093Y76611D01*
X101629Y75603D01*
X94884Y77478D01*
X95313Y77738D01*
X95696Y78021D01*
X96034Y78326D01*
X96328Y78654D01*
X96576Y79005D01*
X96779Y79378D01*
X96936Y79774D01*
X97049Y80192D01*
X97117Y80634D01*
X97139Y81097D01*
X100139Y80216D01*
D02*
G37*
G36*
X113966Y76220D02*
X114366Y75880D01*
X114772Y75580D01*
X115184Y75320D01*
X115601Y75100D01*
X116023Y74920D01*
X116452Y74780D01*
X116885Y74680D01*
X117325Y74620D01*
X117770Y74600D01*
Y71600D01*
X117325Y71580D01*
X116885Y71520D01*
X116452Y71420D01*
X116023Y71280D01*
X115601Y71100D01*
X115184Y70880D01*
X114772Y70620D01*
X114366Y70320D01*
X113966Y69980D01*
X113571Y69600D01*
Y76600D01*
X113966Y76220D01*
D02*
G37*
G36*
X109950Y42700D02*
X109402Y42690D01*
X108878Y42647D01*
X108379Y42572D01*
X107905Y42465D01*
X107454Y42326D01*
X107028Y42154D01*
X106626Y41950D01*
X106249Y41714D01*
X105895Y41446D01*
X105567Y41145D01*
X103445Y43267D01*
X103746Y43595D01*
X104014Y43948D01*
X104250Y44326D01*
X104454Y44728D01*
X104626Y45154D01*
X104765Y45605D01*
X104872Y46079D01*
X104947Y46578D01*
X104990Y47102D01*
X105000Y47650D01*
X109950Y42700D01*
D02*
G37*
G36*
X103855Y39433D02*
X103554Y39105D01*
X103286Y38751D01*
X103050Y38374D01*
X102846Y37972D01*
X102675Y37546D01*
X102535Y37096D01*
X102428Y36621D01*
X102353Y36121D01*
X102310Y35598D01*
X102300Y35050D01*
X97350Y40000D01*
X97898Y40010D01*
X98421Y40053D01*
X98921Y40128D01*
X99396Y40235D01*
X99846Y40374D01*
X100272Y40546D01*
X100674Y40750D01*
X101052Y40986D01*
X101405Y41254D01*
X101733Y41555D01*
X103855Y39433D01*
D02*
G37*
G36*
X113966Y38120D02*
X114366Y37780D01*
X114772Y37480D01*
X115184Y37220D01*
X115601Y37000D01*
X116023Y36820D01*
X116452Y36680D01*
X116885Y36580D01*
X117325Y36520D01*
X117770Y36500D01*
Y33500D01*
X117325Y33480D01*
X116885Y33420D01*
X116452Y33320D01*
X116023Y33180D01*
X115601Y33000D01*
X115184Y32780D01*
X114772Y32520D01*
X114366Y32220D01*
X113966Y31880D01*
X113571Y31500D01*
Y38500D01*
X113966Y38120D01*
D02*
G37*
G36*
X172220Y24500D02*
X171644Y24485D01*
X171129Y24440D01*
X170674Y24365D01*
X170280Y24260D01*
X169947Y24125D01*
X169674Y23960D01*
X169462Y23765D01*
X169310Y23540D01*
X169219Y23285D01*
X169189Y23000D01*
Y29000D01*
X169219Y28715D01*
X169310Y28460D01*
X169462Y28235D01*
X169674Y28040D01*
X169947Y27875D01*
X170280Y27740D01*
X170674Y27635D01*
X171129Y27560D01*
X171644Y27515D01*
X172220Y27500D01*
Y24500D01*
D02*
G37*
G36*
X176951Y25171D02*
X177183Y24947D01*
X177628Y24570D01*
X177840Y24417D01*
X178045Y24288D01*
X178244Y24183D01*
X178435Y24102D01*
X178620Y24044D01*
X178799Y24010D01*
X178970Y24000D01*
X176000Y21030D01*
X175990Y21201D01*
X175956Y21380D01*
X175898Y21565D01*
X175817Y21756D01*
X175712Y21955D01*
X175583Y22160D01*
X175430Y22372D01*
X175254Y22591D01*
X174829Y23049D01*
X176951Y25171D01*
D02*
G37*
G36*
X164500Y53969D02*
X164515Y53400D01*
X164560Y52889D01*
X164635Y52439D01*
X164740Y52049D01*
X164875Y51719D01*
X165040Y51449D01*
X165235Y51240D01*
X165460Y51090D01*
X165715Y50999D01*
X166000Y50970D01*
X160000D01*
X160285Y50999D01*
X160540Y51090D01*
X160765Y51240D01*
X160960Y51449D01*
X161125Y51719D01*
X161260Y52049D01*
X161365Y52439D01*
X161440Y52889D01*
X161485Y53400D01*
X161500Y53969D01*
X164500D01*
D02*
G37*
G36*
X161500Y65030D02*
X161485Y65601D01*
X161440Y66111D01*
X161365Y66561D01*
X161260Y66950D01*
X161125Y67281D01*
X160960Y67551D01*
X160765Y67761D01*
X160540Y67910D01*
X160285Y68000D01*
X160000Y68031D01*
X166000D01*
X165715Y68000D01*
X165460Y67910D01*
X165235Y67761D01*
X165040Y67551D01*
X164875Y67281D01*
X164740Y66950D01*
X164635Y66561D01*
X164560Y66111D01*
X164515Y65601D01*
X164500Y65030D01*
X161500D01*
D02*
G37*
G36*
X171970Y74500D02*
X171394Y74485D01*
X170879Y74440D01*
X170424Y74365D01*
X170030Y74260D01*
X169697Y74125D01*
X169424Y73960D01*
X169212Y73765D01*
X169060Y73540D01*
X168969Y73285D01*
X168939Y73000D01*
Y79000D01*
X168969Y78715D01*
X169060Y78460D01*
X169212Y78235D01*
X169424Y78040D01*
X169697Y77875D01*
X170030Y77740D01*
X170424Y77635D01*
X170879Y77560D01*
X171394Y77515D01*
X171970Y77500D01*
Y74500D01*
D02*
G37*
G36*
X174602Y77500D02*
X174925Y77506D01*
X175505Y77554D01*
X175763Y77596D01*
X176000Y77650D01*
X176214Y77716D01*
X176408Y77794D01*
X176579Y77884D01*
X176729Y77986D01*
X176858Y78100D01*
Y73900D01*
X176729Y74014D01*
X176579Y74116D01*
X176408Y74206D01*
X176214Y74284D01*
X176000Y74350D01*
X175763Y74404D01*
X175505Y74446D01*
X175226Y74476D01*
X174602Y74500D01*
Y77500D01*
D02*
G37*
G36*
X183061Y22513D02*
X183398Y22500D01*
Y19500D01*
X183075Y19494D01*
X183061Y19493D01*
Y18000D01*
X183031Y18285D01*
X182940Y18540D01*
X182788Y18765D01*
X182576Y18960D01*
X182303Y19125D01*
X181970Y19260D01*
X181829Y19297D01*
X181786Y19284D01*
X181592Y19206D01*
X181421Y19116D01*
X181271Y19014D01*
X181142Y18900D01*
Y19437D01*
X181122Y19440D01*
X180606Y19485D01*
X180030Y19500D01*
Y22500D01*
X180606Y22515D01*
X181122Y22560D01*
X181142Y22564D01*
Y23100D01*
X181271Y22986D01*
X181421Y22884D01*
X181592Y22794D01*
X181786Y22716D01*
X181829Y22703D01*
X181970Y22740D01*
X182303Y22875D01*
X182576Y23040D01*
X182788Y23235D01*
X182940Y23460D01*
X183031Y23715D01*
X183061Y24000D01*
Y22513D01*
D02*
G37*
G36*
X190500Y31969D02*
X190515Y31400D01*
X190560Y30889D01*
X190635Y30440D01*
X190740Y30050D01*
X190875Y29720D01*
X191040Y29450D01*
X191235Y29239D01*
X191460Y29090D01*
X191715Y29000D01*
X192000Y28970D01*
X186000D01*
X186285Y29000D01*
X186540Y29090D01*
X186765Y29239D01*
X186960Y29450D01*
X187125Y29720D01*
X187260Y30050D01*
X187365Y30440D01*
X187440Y30889D01*
X187485Y31400D01*
X187500Y31969D01*
X190500D01*
D02*
G37*
G36*
X220715Y13029D02*
X220460Y12937D01*
X220235Y12785D01*
X220040Y12572D01*
X219875Y12299D01*
X219740Y11966D01*
X219635Y11573D01*
X219560Y11119D01*
X219515Y10605D01*
X219508Y10344D01*
X219530Y9930D01*
X219620Y9420D01*
X219770Y8970D01*
X219980Y8580D01*
X220250Y8250D01*
X220580Y7980D01*
X220970Y7770D01*
X221420Y7620D01*
X221930Y7530D01*
X222500Y7500D01*
X218000Y4500D01*
X213500Y7500D01*
X214070Y7530D01*
X214580Y7620D01*
X215030Y7770D01*
X215420Y7980D01*
X215750Y8250D01*
X216020Y8580D01*
X216230Y8970D01*
X216380Y9420D01*
X216470Y9930D01*
X216492Y10345D01*
X216485Y10601D01*
X216441Y11111D01*
X216368Y11560D01*
X216265Y11951D01*
X216133Y12280D01*
X215971Y12550D01*
X215780Y12760D01*
X215560Y12910D01*
X215310Y13001D01*
X215030Y13031D01*
X221000Y13061D01*
X220715Y13029D01*
D02*
G37*
G36*
X222500Y31969D02*
X222515Y31400D01*
X222560Y30889D01*
X222635Y30440D01*
X222740Y30050D01*
X222875Y29720D01*
X223040Y29450D01*
X223235Y29239D01*
X223460Y29090D01*
X223715Y29000D01*
X224000Y28970D01*
X218000D01*
X218285Y29000D01*
X218540Y29090D01*
X218765Y29239D01*
X218960Y29450D01*
X219125Y29720D01*
X219260Y30050D01*
X219365Y30440D01*
X219440Y30889D01*
X219485Y31400D01*
X219500Y31969D01*
X222500D01*
D02*
G37*
G36*
X187500Y42000D02*
X187487Y42534D01*
X187449Y43012D01*
X187385Y43434D01*
X187295Y43799D01*
X187180Y44108D01*
X187039Y44361D01*
X186873Y44558D01*
X186681Y44699D01*
X186463Y44783D01*
X186220Y44811D01*
X191780D01*
X191537Y44783D01*
X191320Y44699D01*
X191127Y44558D01*
X190961Y44361D01*
X190820Y44108D01*
X190705Y43799D01*
X190615Y43434D01*
X190551Y43012D01*
X190513Y42534D01*
X190500Y42000D01*
X187500D01*
D02*
G37*
G36*
X190500Y55000D02*
X190503Y54656D01*
X190570Y53642D01*
X190601Y53479D01*
X190637Y53352D01*
X190679Y53261D01*
X190727Y53207D01*
X190781Y53189D01*
X187220D01*
X187273Y53207D01*
X187320Y53261D01*
X187363Y53352D01*
X187399Y53479D01*
X187430Y53642D01*
X187455Y53841D01*
X187489Y54348D01*
X187500Y55000D01*
X190500D01*
D02*
G37*
G36*
X193500Y65030D02*
X193485Y65601D01*
X193440Y66111D01*
X193365Y66561D01*
X193260Y66950D01*
X193125Y67281D01*
X192960Y67551D01*
X192765Y67761D01*
X192540Y67910D01*
X192285Y68000D01*
X192000Y68031D01*
X198000D01*
X197715Y68000D01*
X197460Y67910D01*
X197235Y67761D01*
X197040Y67551D01*
X196875Y67281D01*
X196740Y66950D01*
X196635Y66561D01*
X196560Y66111D01*
X196515Y65601D01*
X196500Y65030D01*
X193500D01*
D02*
G37*
G36*
X210219Y47500D02*
X209650Y47485D01*
X209139Y47440D01*
X208689Y47365D01*
X208300Y47260D01*
X207969Y47125D01*
X207700Y46960D01*
X207489Y46765D01*
X207339Y46540D01*
X207250Y46285D01*
X207220Y46000D01*
Y52000D01*
X207250Y51715D01*
X207339Y51460D01*
X207489Y51235D01*
X207700Y51040D01*
X207969Y50875D01*
X208300Y50740D01*
X208689Y50635D01*
X209139Y50560D01*
X209650Y50515D01*
X210219Y50500D01*
Y47500D01*
D02*
G37*
G36*
X219500Y53500D02*
X219470Y52930D01*
X219380Y52420D01*
X219230Y51970D01*
X219020Y51580D01*
X218750Y51250D01*
X218420Y50980D01*
X218030Y50770D01*
X217580Y50620D01*
X217070Y50530D01*
X216500Y50500D01*
Y47500D01*
X217070Y47470D01*
X217580Y47380D01*
X218030Y47230D01*
X218420Y47020D01*
X218750Y46750D01*
X219020Y46420D01*
X219230Y46030D01*
X219380Y45580D01*
X219470Y45070D01*
X219500Y44500D01*
X222500Y49000D01*
D01*
D01*
D01*
D01*
D01*
D01*
D01*
D01*
D01*
D01*
X219500Y53500D01*
D02*
G37*
G36*
X219840Y73781D02*
X219597Y74022D01*
X218515Y74985D01*
X218448Y75019D01*
X218403Y75027D01*
X220902Y77239D01*
X220903Y77186D01*
X220930Y77112D01*
X220982Y77018D01*
X221060Y76904D01*
X221163Y76771D01*
X221446Y76443D01*
X222061Y75803D01*
X219840Y73781D01*
D02*
G37*
G36*
X242999Y31690D02*
X243090Y31440D01*
X243239Y31220D01*
X243449Y31029D01*
X243720Y30867D01*
X244049Y30735D01*
X244440Y30632D01*
X244890Y30559D01*
X245399Y30515D01*
X245970Y30500D01*
Y27500D01*
X245399Y27485D01*
X244890Y27441D01*
X244440Y27368D01*
X244049Y27265D01*
X243720Y27133D01*
X243449Y26971D01*
X243239Y26780D01*
X243090Y26560D01*
X242999Y26310D01*
X242969Y26030D01*
X242690Y26000D01*
X242440Y25910D01*
X242220Y25761D01*
X242029Y25550D01*
X241867Y25280D01*
X241735Y24950D01*
X241632Y24560D01*
X241559Y24111D01*
X241515Y23600D01*
X241500Y23031D01*
X238500D01*
X238485Y23600D01*
X238441Y24111D01*
X238368Y24560D01*
X238265Y24950D01*
X238133Y25280D01*
X237971Y25550D01*
X237780Y25761D01*
X237560Y25910D01*
X237310Y26000D01*
X237031Y26030D01*
X242969D01*
Y31969D01*
X242999Y31690D01*
D02*
G37*
G36*
X281715Y25281D02*
X281460Y25190D01*
X281235Y25038D01*
X281040Y24826D01*
X280875Y24553D01*
X280740Y24220D01*
X280635Y23826D01*
X280560Y23372D01*
X280539Y23125D01*
X280559Y22889D01*
X280632Y22439D01*
X280735Y22050D01*
X280867Y21720D01*
X281029Y21449D01*
X281220Y21240D01*
X281441Y21089D01*
X281690Y21000D01*
X281970Y20970D01*
X276031D01*
X276310Y21000D01*
X276560Y21089D01*
X276780Y21240D01*
X276971Y21449D01*
X277133Y21720D01*
X277265Y22050D01*
X277368Y22439D01*
X277441Y22889D01*
X277461Y23125D01*
X277440Y23372D01*
X277365Y23826D01*
X277260Y24220D01*
X277125Y24553D01*
X276960Y24826D01*
X276765Y25038D01*
X276540Y25190D01*
X276285Y25281D01*
X276000Y25311D01*
X282000D01*
X281715Y25281D01*
D02*
G37*
G36*
X266031Y15030D02*
X271970D01*
X271690Y15000D01*
X271441Y14911D01*
X271220Y14761D01*
X271029Y14550D01*
X270867Y14281D01*
X270735Y13951D01*
X270632Y13561D01*
X270559Y13111D01*
X270515Y12601D01*
X270500Y12031D01*
X267500D01*
X267485Y12601D01*
X267441Y13111D01*
X267368Y13561D01*
X267265Y13951D01*
X267133Y14281D01*
X266971Y14550D01*
X266780Y14761D01*
X266560Y14911D01*
X266310Y15000D01*
X266031Y15030D01*
X266000Y15310D01*
X265910Y15560D01*
X265760Y15780D01*
X265550Y15971D01*
X265280Y16133D01*
X264951Y16265D01*
X264561Y16368D01*
X264111Y16441D01*
X263601Y16485D01*
X263030Y16500D01*
Y19500D01*
X263601Y19515D01*
X264111Y19559D01*
X264561Y19632D01*
X264951Y19735D01*
X265280Y19867D01*
X265550Y20029D01*
X265760Y20220D01*
X265910Y20440D01*
X266000Y20690D01*
X266031Y20970D01*
Y15030D01*
D02*
G37*
G36*
X241515Y44399D02*
X241559Y43889D01*
X241632Y43439D01*
X241735Y43050D01*
X241812Y42858D01*
X242100D01*
X241986Y42729D01*
X241920Y42632D01*
X242029Y42449D01*
X242220Y42239D01*
X242440Y42090D01*
X242690Y42000D01*
X242969Y41969D01*
X241643D01*
X241596Y41763D01*
X241554Y41505D01*
X241524Y41226D01*
X241500Y40602D01*
X238500D01*
X238494Y40925D01*
X238446Y41505D01*
X238404Y41763D01*
X238357Y41969D01*
X237031D01*
X237310Y42000D01*
X237560Y42090D01*
X237780Y42239D01*
X237971Y42449D01*
X238080Y42632D01*
X238014Y42729D01*
X237900Y42858D01*
X238188D01*
X238265Y43050D01*
X238368Y43439D01*
X238441Y43889D01*
X238485Y44399D01*
X238500Y44970D01*
X241500D01*
X241515Y44399D01*
D02*
G37*
G36*
X245940Y60500D02*
X245375Y60485D01*
X244870Y60441D01*
X244425Y60368D01*
X244039Y60265D01*
X243712Y60133D01*
X243445Y59971D01*
X243237Y59780D01*
X243088Y59559D01*
X242999Y59310D01*
X242969Y59030D01*
Y64970D01*
X242999Y64690D01*
X243088Y64440D01*
X243237Y64220D01*
X243445Y64029D01*
X243712Y63867D01*
X244039Y63735D01*
X244425Y63632D01*
X244870Y63559D01*
X245375Y63515D01*
X245940Y63500D01*
Y60500D01*
D02*
G37*
G36*
X280515Y52394D02*
X280560Y51878D01*
X280635Y51424D01*
X280740Y51030D01*
X280810Y50858D01*
X281100D01*
X280986Y50729D01*
X280917Y50627D01*
X281040Y50424D01*
X281235Y50212D01*
X281460Y50060D01*
X281715Y49969D01*
X282000Y49939D01*
X280636D01*
X280596Y49763D01*
X280554Y49505D01*
X280524Y49226D01*
X280500Y48602D01*
X277500D01*
X277494Y48925D01*
X277446Y49505D01*
X277404Y49763D01*
X277364Y49939D01*
X276000D01*
X276285Y49969D01*
X276540Y50060D01*
X276765Y50212D01*
X276960Y50424D01*
X277083Y50627D01*
X277014Y50729D01*
X276900Y50858D01*
X277190D01*
X277260Y51030D01*
X277365Y51424D01*
X277440Y51878D01*
X277485Y52394D01*
X277500Y52969D01*
X280500D01*
X280515Y52394D01*
D02*
G37*
G36*
X269500Y68398D02*
X269506Y68075D01*
X269554Y67495D01*
X269596Y67237D01*
X269650Y67000D01*
X269716Y66786D01*
X269794Y66592D01*
X269884Y66421D01*
X269986Y66271D01*
X270100Y66142D01*
X265900D01*
X266014Y66271D01*
X266116Y66421D01*
X266206Y66592D01*
X266284Y66786D01*
X266350Y67000D01*
X266404Y67237D01*
X266446Y67495D01*
X266476Y67774D01*
X266500Y68398D01*
X269500D01*
D02*
G37*
G36*
X236903Y81229D02*
X237127Y81037D01*
X237342Y80876D01*
X237547Y80746D01*
X237741Y80648D01*
X237925Y80581D01*
X238099Y80547D01*
X238263Y80543D01*
X238416Y80572D01*
X238559Y80632D01*
X237296Y76700D01*
X234796Y79083D01*
X236667Y81454D01*
X236903Y81229D01*
D02*
G37*
G36*
X241515Y77400D02*
X241559Y76890D01*
X241632Y76439D01*
X241735Y76049D01*
X241812Y75858D01*
X242100D01*
X241986Y75729D01*
X241920Y75632D01*
X242029Y75450D01*
X242220Y75240D01*
X242440Y75090D01*
X242690Y74999D01*
X242969Y74970D01*
X241643D01*
X241596Y74763D01*
X241554Y74505D01*
X241524Y74226D01*
X241500Y73602D01*
X238500D01*
X238494Y73925D01*
X238446Y74505D01*
X238404Y74763D01*
X238357Y74970D01*
X237031D01*
X237310Y74999D01*
X237560Y75090D01*
X237780Y75240D01*
X237971Y75450D01*
X238080Y75632D01*
X238014Y75729D01*
X237900Y75858D01*
X238188D01*
X238265Y76049D01*
X238368Y76439D01*
X238441Y76890D01*
X238485Y77400D01*
X238500Y77969D01*
X241500D01*
X241515Y77400D01*
D02*
G37*
G36*
X243030Y89500D02*
X243601Y89515D01*
X244111Y89559D01*
X244561Y89632D01*
X244951Y89735D01*
X245280Y89867D01*
X245550Y90029D01*
X245760Y90220D01*
X245910Y90441D01*
X246000Y90690D01*
X246031Y90969D01*
Y85030D01*
X246000Y85310D01*
X245910Y85560D01*
X245760Y85780D01*
X245550Y85971D01*
X245280Y86133D01*
X244951Y86265D01*
X244561Y86368D01*
X244111Y86441D01*
X243601Y86485D01*
X243030Y86500D01*
Y89500D01*
D02*
G37*
G36*
X254970Y86500D02*
X254400Y86485D01*
X253890Y86441D01*
X253440Y86368D01*
X253050Y86265D01*
X252719Y86133D01*
X252449Y85971D01*
X252239Y85780D01*
X252090Y85560D01*
X251999Y85310D01*
X251970Y85030D01*
Y90969D01*
X251999Y90690D01*
X252090Y90441D01*
X252239Y90220D01*
X252449Y90029D01*
X252719Y89867D01*
X253050Y89735D01*
X253440Y89632D01*
X253890Y89559D01*
X254400Y89515D01*
X254970Y89500D01*
Y86500D01*
D02*
G37*
G36*
Y96500D02*
X254400Y96485D01*
X253890Y96441D01*
X253440Y96368D01*
X253050Y96265D01*
X252719Y96133D01*
X252449Y95971D01*
X252239Y95780D01*
X252090Y95560D01*
X251999Y95310D01*
X251970Y95030D01*
Y100969D01*
X251999Y100690D01*
X252090Y100441D01*
X252239Y100220D01*
X252449Y100029D01*
X252719Y99867D01*
X253050Y99735D01*
X253440Y99632D01*
X253890Y99559D01*
X254400Y99515D01*
X254970Y99500D01*
Y96500D01*
D02*
G37*
G36*
X280611Y73394D02*
X280656Y72878D01*
X280731Y72424D01*
X280836Y72030D01*
X280867Y71954D01*
X281196D01*
X281082Y71825D01*
X280982Y71678D01*
X281136Y71424D01*
X281331Y71212D01*
X281556Y71060D01*
X281811Y70969D01*
X282096Y70939D01*
X280710D01*
X280692Y70859D01*
X280650Y70602D01*
X280620Y70322D01*
X280596Y69698D01*
X277596D01*
X277590Y70021D01*
X277542Y70602D01*
X277500Y70859D01*
X277482Y70939D01*
X276096D01*
X276381Y70969D01*
X276636Y71060D01*
X276861Y71212D01*
X277056Y71424D01*
X277210Y71678D01*
X277110Y71825D01*
X276996Y71954D01*
X277325D01*
X277356Y72030D01*
X277461Y72424D01*
X277536Y72878D01*
X277581Y73394D01*
X277596Y73969D01*
X280596D01*
X280611Y73394D01*
D02*
G37*
G36*
X282500Y92719D02*
X282515Y92149D01*
X282559Y91639D01*
X282632Y91189D01*
X282735Y90800D01*
X282867Y90470D01*
X283029Y90199D01*
X283220Y89990D01*
X283440Y89839D01*
X283690Y89749D01*
X283969Y89719D01*
X278000Y89689D01*
X278285Y89721D01*
X278540Y89813D01*
X278765Y89965D01*
X278960Y90178D01*
X279125Y90450D01*
X279260Y90784D01*
X279365Y91177D01*
X279440Y91631D01*
X279485Y92145D01*
X279500Y92719D01*
X282500D01*
D02*
G37*
G36*
X265515Y103399D02*
X265559Y102889D01*
X265632Y102439D01*
X265735Y102050D01*
X265867Y101720D01*
X266029Y101449D01*
X266220Y101240D01*
X266441Y101089D01*
X266690Y100999D01*
X266970Y100969D01*
X261031D01*
X261310Y100999D01*
X261560Y101089D01*
X261780Y101240D01*
X261971Y101449D01*
X262133Y101720D01*
X262265Y102050D01*
X262368Y102439D01*
X262441Y102889D01*
X262485Y103399D01*
X262500Y103969D01*
X265500D01*
X265515Y103399D01*
D02*
G37*
G36*
X261031Y95030D02*
X261000Y95310D01*
X260910Y95560D01*
X260760Y95780D01*
X260550Y95971D01*
X260280Y96133D01*
X259951Y96265D01*
X259561Y96368D01*
X259111Y96441D01*
X258601Y96485D01*
X258030Y96500D01*
Y99500D01*
X258601Y99515D01*
X259111Y99559D01*
X259561Y99632D01*
X259951Y99735D01*
X260280Y99867D01*
X260550Y100029D01*
X260760Y100220D01*
X260910Y100441D01*
X261000Y100690D01*
X261031Y100969D01*
Y95030D01*
D02*
G37*
G36*
X279243Y95379D02*
X278811Y95375D01*
X277538Y95292D01*
X277333Y95253D01*
X277174Y95208D01*
X277060Y95156D01*
X276992Y95097D01*
X276970Y95030D01*
X276939Y99152D01*
X276963Y99005D01*
X277033Y98874D01*
X277149Y98758D01*
X277310Y98657D01*
X277518Y98572D01*
X277771Y98502D01*
X278070Y98448D01*
X278415Y98410D01*
X279243Y98379D01*
Y95379D01*
D02*
G37*
D21*
X195000Y76000D02*
D03*
X163000D02*
D03*
X189000Y21000D02*
D03*
X221000D02*
D03*
D22*
X279000Y47000D02*
D03*
Y28250D02*
D03*
Y68000D02*
D03*
Y86750D02*
D03*
D23*
X163000Y46000D02*
D03*
Y26000D02*
D03*
D24*
X189000Y49000D02*
D03*
X203000D02*
D03*
D25*
X279000Y18000D02*
D03*
X269000D02*
D03*
X274000Y98000D02*
D03*
X264000D02*
D03*
D26*
X240000Y29000D02*
D03*
Y39000D02*
D03*
Y62000D02*
D03*
Y72000D02*
D03*
X249000Y98000D02*
D03*
Y88000D02*
D03*
D27*
X97300Y35000D02*
X110000Y47700D01*
X189000Y42000D02*
Y55000D01*
X186500Y21000D02*
X189000Y23500D01*
X163000Y26000D02*
X174000D01*
X162753D02*
X163000D01*
X122000Y35000D02*
X151000Y6000D01*
X110000Y35000D02*
X122000D01*
X228000Y6000D02*
X240000Y18000D01*
X218000Y18000D02*
X221000Y21000D01*
X218000Y6000D02*
Y18000D01*
Y6000D02*
X228000D01*
X151000D02*
X218000D01*
X237000Y88000D02*
X249000D01*
X98639Y83639D02*
X115000Y100000D01*
X225000D01*
X237000Y88000D01*
X249000D02*
X255000D01*
X224000Y92000D02*
X238000Y78000D01*
X124900Y73100D02*
X143800Y92000D01*
X224000D01*
X163000Y76000D02*
X179000D01*
X174000Y26000D02*
X179000Y21000D01*
X186500D01*
X288243Y10000D02*
X290000Y11757D01*
X270757Y10000D02*
X288243D01*
X287000Y106000D02*
X290000Y103000D01*
Y11757D02*
Y103000D01*
X269000Y11757D02*
X270757Y10000D01*
X269000Y11757D02*
Y18000D01*
X240000D02*
X269000D01*
X279000D02*
Y28250D01*
X268000Y64000D02*
Y86243D01*
X279000Y68000D02*
X279096Y68096D01*
Y74096D01*
X279243Y96879D02*
X281000Y95121D01*
Y85750D02*
Y95121D01*
X274000Y98000D02*
X275121Y96879D01*
X279243D01*
X265757Y106000D02*
X287000D01*
X249000Y98000D02*
X264000D01*
Y104243D01*
X265757Y106000D01*
X240000Y62000D02*
X245940D01*
X98639Y74439D02*
Y83639D01*
X97300Y73100D02*
X98639Y74439D01*
X163000Y46000D02*
Y76000D01*
X221000Y26000D02*
Y49000D01*
X203000D02*
X221000D01*
Y74743D01*
X189000Y55000D02*
X195000Y61000D01*
Y76000D01*
X189000Y23500D02*
Y42000D01*
X240000Y19000D02*
Y29000D01*
X246243D01*
X240000Y72000D02*
Y78000D01*
X255000Y88000D02*
X266243D01*
X218000Y77743D02*
Y78000D01*
Y77743D02*
X221000Y74743D01*
X248000Y30757D02*
Y59939D01*
X245940Y62000D02*
X248000Y59939D01*
X246243Y29000D02*
X248000Y30757D01*
X266243Y88000D02*
X268000Y86243D01*
X279000Y47000D02*
Y53000D01*
X240000Y39000D02*
Y45000D01*
X110000Y73100D02*
X124900D01*
D28*
X110000Y35000D02*
D03*
Y47700D02*
D03*
Y60400D02*
D03*
Y73100D02*
D03*
X97300D02*
D03*
Y60400D02*
D03*
Y47700D02*
D03*
Y35000D02*
D03*
D29*
X35000Y55000D02*
D03*
D30*
X179000Y76000D02*
D03*
X268000Y64000D02*
D03*
X279096Y74096D02*
D03*
X179000Y21000D02*
D03*
X218000Y78000D02*
D03*
X240000D02*
D03*
X279000Y53000D02*
D03*
X240000Y45000D02*
D03*
M02*
