ISO-10303-21;
HEADER;
FILE_DESCRIPTION (( 'STEP AP203' ),
    '1' );
FILE_NAME ('LCD126х64.STEP',
    '2023-11-26T12:08:00',
    ( '' ),
    ( '' ),
    'SwSTEP 2.0',
    'SolidWorks 2020',
    '' );
FILE_SCHEMA (( 'CONFIG_CONTROL_DESIGN' ));
ENDSEC;

DATA;
#1 = CARTESIAN_POINT ( 'NONE',  ( 74.00000000000000000, -29.39545182728223338, 1.249999999999999556 ) ) ;
#2 = AXIS2_PLACEMENT_3D ( 'NONE', #173, #594, #542 ) ;
#3 = CARTESIAN_POINT ( 'NONE',  ( 14.00000000000000000, -32.01418708429751092, 1.947677187336349203 ) ) ;
#4 = CC_DESIGN_APPROVAL ( #583, ( #576 ) ) ;
#5 = ORIENTED_EDGE ( 'NONE', *, *, #293, .F. ) ;
#6 = CARTESIAN_POINT ( 'NONE',  ( 0.000000000000000000, -25.80000000000000071, 1.250000000000000000 ) ) ;
#7 = CARTESIAN_POINT ( 'NONE',  ( 0.000000000000000000, 0.000000000000000000, 2.350000000000000089 ) ) ;
#8 = ORIENTED_EDGE ( 'NONE', *, *, #665, .T. ) ;
#9 = CARTESIAN_POINT ( 'NONE',  ( 82.38999999999998636, 0.000000000000000000, 0.000000000000000000 ) ) ;
#10 = CARTESIAN_POINT ( 'NONE',  ( 51.75000000000000711, -46.17250963955186904, 3.249999999999997780 ) ) ;
#11 = ORIENTED_EDGE ( 'NONE', *, *, #73, .T. ) ;
#12 = FACE_OUTER_BOUND ( 'NONE', #312, .T. ) ;
#13 = EDGE_CURVE ( 'NONE', #147, #106, #381, .T. ) ;
#14 = LINE ( 'NONE', #210, #81 ) ;
#15 = PRODUCT_DEFINITION_SHAPE ( 'NONE', 'NONE',  #576 ) ;
#16 = AXIS2_PLACEMENT_3D ( 'NONE', #439, #548, #612 ) ;
#17 = ORIENTED_EDGE ( 'NONE', *, *, #419, .F. ) ;
#18 = CARTESIAN_POINT ( 'NONE',  ( 70.29240406794644969, -38.16486232670541767, 2.801600472129616826 ) ) ;
#19 = ORIENTED_EDGE ( 'NONE', *, *, #222, .T. ) ;
#20 = EDGE_CURVE ( 'NONE', #199, #462, #488, .T. ) ;
#21 = VERTEX_POINT ( 'NONE', #431 ) ;
#22 = PRODUCT_RELATED_PRODUCT_CATEGORY ( 'detail', '', ( #351 ) ) ;
#23 = PLANE ( 'NONE',  #379 ) ;
#24 = COORDINATED_UNIVERSAL_TIME_OFFSET ( 3, 0, .AHEAD. ) ;
#25 = CARTESIAN_POINT ( 'NONE',  ( 21.05902335523863300, -39.08452129124123786, 2.721761493053859393 ) ) ;
#26 = CALENDAR_DATE ( 2023, 26, 11 ) ;
#27 = EDGE_CURVE ( 'NONE', #147, #574, #332, .T. ) ;
#28 = CARTESIAN_POINT ( 'NONE',  ( 14.00000000000000533, -37.20000000000000284, 2.471948102914914180 ) ) ;
#29 = LINE ( 'NONE', #130, #602 ) ;
#30 = SHAPE_DEFINITION_REPRESENTATION ( #15, #622 ) ;
#31 = CC_DESIGN_PERSON_AND_ORGANIZATION_ASSIGNMENT ( #177, #382, ( #408 ) ) ;
#32 = CARTESIAN_POINT ( 'NONE',  ( 14.00000000000000888, -37.20000000000000284, 2.471948102914914625 ) ) ;
#33 = DIRECTION ( 'NONE',  ( 0.000000000000000000, -0.000000000000000000, 1.000000000000000000 ) ) ;
#34 = LOCAL_TIME ( 15, 8, 0.000000000000000000, #296 ) ;
#35 = COORDINATED_UNIVERSAL_TIME_OFFSET ( 3, 0, .AHEAD. ) ;
#36 = VECTOR ( 'NONE', #511, 1000.000000000000000 ) ;
#37 = CARTESIAN_POINT ( 'NONE',  ( 14.00000000000000888, -37.17371778183715492, 2.670213695009055588 ) ) ;
#38 = CARTESIAN_POINT ( 'NONE',  ( 51.75000000000000711, -43.14000000000000057, 3.087583615125018444 ) ) ;
#39 = FACE_OUTER_BOUND ( 'NONE', #363, .T. ) ;
#40 = EDGE_CURVE ( 'NONE', #539, #154, #214, .T. ) ;
#41 = DIRECTION ( 'NONE',  ( 0.000000000000000000, -1.000000000000000000, -1.207407341566419274E-16 ) ) ;
#42 = VERTEX_POINT ( 'NONE', #126 ) ;
#43 = CARTESIAN_POINT ( 'NONE',  ( 74.00000000000001421, -47.80000000000000426, 3.249999999999997780 ) ) ;
#44 = CARTESIAN_POINT ( 'NONE',  ( 0.000000000000000000, -26.30000000000000782, 1.250000000000000000 ) ) ;
#45 = VERTEX_POINT ( 'NONE', #281 ) ;
#46 = DIRECTION ( 'NONE',  ( -1.000000000000000000, 0.000000000000000000, -0.000000000000000000 ) ) ;
#47 = PLANE ( 'NONE',  #171 ) ;
#48 = ORIENTED_EDGE ( 'NONE', *, *, #596, .F. ) ;
#49 = FACE_OUTER_BOUND ( 'NONE', #629, .T. ) ;
#50 = EDGE_CURVE ( 'NONE', #425, #295, #29, .T. ) ;
#51 = DIRECTION ( 'NONE',  ( 0.000000000000000000, -1.207407341566419274E-16, 1.000000000000000000 ) ) ;
#52 = ORIENTED_EDGE ( 'NONE', *, *, #20, .F. ) ;
#53 = CARTESIAN_POINT ( 'NONE',  ( 74.00000000000001421, -28.96912922796752454, 1.450000000000000178 ) ) ;
#54 = EDGE_LOOP ( 'NONE', ( #168, #11, #584, #277, #323, #605 ) ) ;
#55 = CARTESIAN_POINT ( 'NONE',  ( 88.00000000000000000, 0.000000000000000000, 2.350000000000000089 ) ) ;
#56 = CARTESIAN_POINT ( 'NONE',  ( 13.99999999999999822, -47.80000000000000426, 3.249999999999997780 ) ) ;
#57 = ORIENTED_EDGE ( 'NONE', *, *, #40, .T. ) ;
#58 = PLANE ( 'NONE',  #411 ) ;
#59 = B_SPLINE_CURVE_WITH_KNOTS ( 'NONE', 3,
 ( #619, #313, #97, #430 ),
 .UNSPECIFIED., .F., .F.,
 ( 4, 4 ),
 ( 0.8249400456812635563, 1.000000000000000000 ),
 .UNSPECIFIED. ) ;
#60 = CARTESIAN_POINT ( 'NONE',  ( 13.99999999999999822, -29.36701524756299619, 1.449999999999999734 ) ) ;
#61 = ADVANCED_FACE ( 'NONE', ( #440 ), #339, .F. ) ;
#62 = ORIENTED_EDGE ( 'NONE', *, *, #217, .T. ) ;
#63 = FACE_OUTER_BOUND ( 'NONE', #271, .T. ) ;
#64 = EDGE_LOOP ( 'NONE', ( #219, #100, #212, #520 ) ) ;
#65 = CARTESIAN_POINT ( 'NONE',  ( 13.99999999999999822, -26.30000000000000782, 1.250000000000000000 ) ) ;
#66 = AXIS2_PLACEMENT_3D ( 'NONE', #471, #164, #114 ) ;
#67 = VERTEX_POINT ( 'NONE', #495 ) ;
#68 = PERSON_AND_ORGANIZATION_ROLE ( 'design_owner' ) ;
#69 = ADVANCED_FACE ( 'NONE', ( #123 ), #180, .F. ) ;
#70 = CARTESIAN_POINT ( 'NONE',  ( 13.99999999999999822, -37.19123926065859820, 2.538036633619086935 ) ) ;
#71 = VERTEX_POINT ( 'NONE', #236 ) ;
#72 = ORIENTED_EDGE ( 'NONE', *, *, #378, .F. ) ;
#73 = EDGE_CURVE ( 'NONE', #641, #607, #331, .T. ) ;
#74 = DIRECTION ( 'NONE',  ( -0.000000000000000000, -0.000000000000000000, 1.000000000000000000 ) ) ;
#75 = CARTESIAN_POINT ( 'NONE',  ( 51.75000000000000711, -43.13091736195669768, 3.220607235072575403 ) ) ;
#76 = PERSON_AND_ORGANIZATION ( #96, #533 ) ;
#77 = LINE ( 'NONE', #241, #272 ) ;
#78 = CARTESIAN_POINT ( 'NONE',  ( 51.75000000000000711, -43.14000000000000057, 3.087583615125018444 ) ) ;
#79 = CARTESIAN_POINT ( 'NONE',  ( 0.000000000000000000, -25.80000000000000071, 1.250000000000000000 ) ) ;
#80 = EDGE_LOOP ( 'NONE', ( #17, #251, #429, #62 ) ) ;
#81 = VECTOR ( 'NONE', #580, 1000.000000000000000 ) ;
#82 = APPROVAL_PERSON_ORGANIZATION ( #76, #633, #438 ) ;
#83 = VECTOR ( 'NONE', #463, 1000.000000000000000 ) ;
#84 = FACE_OUTER_BOUND ( 'NONE', #557, .T. ) ;
#85 = ADVANCED_FACE ( 'NONE', ( #387 ), #279, .T. ) ;
#86 = CARTESIAN_POINT ( 'NONE',  ( 51.75000000000000711, -43.12637604294373972, 3.287119045046947186 ) ) ;
#87 = EDGE_LOOP ( 'NONE', ( #414, #140, #8, #203 ) ) ;
#88 = APPROVAL_STATUS ( 'not_yet_approved' ) ;
#89 = DIRECTION ( 'NONE',  ( -0.000000000000000000, -0.000000000000000000, -1.000000000000000000 ) ) ;
#90 = CARTESIAN_POINT ( 'NONE',  ( 32.54076269279799760, -42.13346654094422661, 3.219324787048270409 ) ) ;
#91 = VERTEX_POINT ( 'NONE', #176 ) ;
#92 = CARTESIAN_POINT ( 'NONE',  ( 74.00000000000001421, -26.30000000000000782, 1.250000000000000000 ) ) ;
#93 = CARTESIAN_POINT ( 'NONE',  ( 88.00000000000000000, -25.80000000000000071, 1.250000000000000000 ) ) ;
#94 = ADVANCED_FACE ( 'NONE', ( #435 ), #23, .F. ) ;
#95 = VERTEX_POINT ( 'NONE', #556 ) ;
#96 = PERSON ( 'UNSPECIFIED', 'UNSPECIFIED', 'UNSPECIFIED', ('UNSPECIFIED'), ('UNSPECIFIED'), ('UNSPECIFIED') ) ;
#97 = CARTESIAN_POINT ( 'NONE',  ( 51.75000000000000711, -46.16748824983411481, 3.449999999999998401 ) ) ;
#98 = VECTOR ( 'NONE', #504, 1000.000000000000000 ) ;
#99 = CARTESIAN_POINT ( 'NONE',  ( 36.24999950000000126, -43.12637590910092200, 3.287119035908376397 ) ) ;
#100 = ORIENTED_EDGE ( 'NONE', *, *, #593, .F. ) ;
#101 = DIRECTION ( 'NONE',  ( 0.000000000000000000, -0.000000000000000000, 1.000000000000000000 ) ) ;
#102 = CARTESIAN_POINT ( 'NONE',  ( 13.99999999999999822, -47.80000000000000426, 3.449999999999997957 ) ) ;
#103 = ORIENTED_EDGE ( 'NONE', *, *, #480, .T. ) ;
#104 = CARTESIAN_POINT ( 'NONE',  ( 36.25000000000000711, -36.07274838444291731, 2.249999999999999112 ) ) ;
#105 = CARTESIAN_POINT ( 'NONE',  ( 13.99999999999999822, -31.68775342087414870, 1.249999999999999334 ) ) ;
#106 = VERTEX_POINT ( 'NONE', #93 ) ;
#107 = DIRECTION ( 'NONE',  ( 0.000000000000000000, -1.207407341566419274E-16, 1.000000000000000000 ) ) ;
#108 = EDGE_CURVE ( 'NONE', #71, #45, #514, .T. ) ;
#109 = CARTESIAN_POINT ( 'NONE',  ( 14.00000000000000533, -37.17371778183715492, 2.670213695009055144 ) ) ;
#110 = ORIENTED_EDGE ( 'NONE', *, *, #175, .F. ) ;
#111 = CARTESIAN_POINT ( 'NONE',  ( 13.99999999999999645, -28.96912922796752454, 1.450000000000000178 ) ) ;
#112 = VERTEX_POINT ( 'NONE', #508 ) ;
#113 = APPLICATION_PROTOCOL_DEFINITION ( 'international standard', 'config_control_design', 1994, #352 ) ;
#114 = DIRECTION ( 'NONE',  ( -0.000000000000000000, 0.000000000000000000, 1.000000000000000000 ) ) ;
#115 = ORIENTED_EDGE ( 'NONE', *, *, #193, .T. ) ;
#116 = VECTOR ( 'NONE', #390, 1000.000000000000000 ) ;
#117 = CARTESIAN_POINT ( 'NONE',  ( 55.45923769222333988, -42.14975856666038112, 3.019971528547524819 ) ) ;
#118 = VECTOR ( 'NONE', #208, 1000.000000000000000 ) ;
#119 = ORIENTED_EDGE ( 'NONE', *, *, #234, .T. ) ;
#120 =( LENGTH_UNIT ( ) NAMED_UNIT ( * ) SI_UNIT ( .MILLI., .METRE. ) );
#121 = CC_DESIGN_PERSON_AND_ORGANIZATION_ASSIGNMENT ( #496, #500, ( #408 ) ) ;
#122 = B_SPLINE_CURVE_WITH_KNOTS ( 'NONE', 3,
 ( #631, #477, #60, #314 ),
 .UNSPECIFIED., .F., .F.,
 ( 4, 4 ),
 ( 0.4254652012674468020, 1.000000000000000000 ),
 .UNSPECIFIED. ) ;
#123 = FACE_OUTER_BOUND ( 'NONE', #459, .T. ) ;
#124 = ORIENTED_EDGE ( 'NONE', *, *, #637, .F. ) ;
#125 = ADVANCED_FACE ( 'NONE', ( #667 ), #502, .F. ) ;
#126 = CARTESIAN_POINT ( 'NONE',  ( 13.99999999999999822, -26.30000000000000782, 1.450000000000000178 ) ) ;
#127 = VECTOR ( 'NONE', #187, 1000.000000000000000 ) ;
#128 = DATE_TIME_ROLE ( 'creation_date' ) ;
#129 = CARTESIAN_POINT ( 'NONE',  ( 36.25000000000000711, -43.12637604294372551, 3.287119045046946741 ) ) ;
#130 = CARTESIAN_POINT ( 'NONE',  ( 0.000000000000000000, -47.80000000000000426, 3.449999999999997957 ) ) ;
#131 = CARTESIAN_POINT ( 'NONE',  ( 21.41545973620474541, -39.17967779024974107, 2.723889097626285949 ) ) ;
#132 = CARTESIAN_POINT ( 'NONE',  ( 36.25000000000000711, -43.14000000000000057, 3.087583615125018444 ) ) ;
#133 = EDGE_CURVE ( 'NONE', #191, #136, #143, .T. ) ;
#134 = CARTESIAN_POINT ( 'NONE',  ( 66.58454026379502011, -39.17967779024976238, 2.723889097626291278 ) ) ;
#135 = FACE_OUTER_BOUND ( 'NONE', #516, .T. ) ;
#136 = VERTEX_POINT ( 'NONE', #505 ) ;
#137 = AXIS2_PLACEMENT_3D ( 'NONE', #169, #642, #166 ) ;
#138 = CARTESIAN_POINT ( 'NONE',  ( 14.00000000000000533, -37.20000000000000284, 2.471948102914914180 ) ) ;
#139 = DIRECTION ( 'NONE',  ( -1.000000000000000000, 0.000000000000000000, -0.000000000000000000 ) ) ;
#140 = ORIENTED_EDGE ( 'NONE', *, *, #322, .T. ) ;
#141 = CARTESIAN_POINT ( 'NONE',  ( 88.00000000000000000, -27.80000000000000071, 0.000000000000000000 ) ) ;
#142 = EDGE_CURVE ( 'NONE', #369, #578, #306, .T. ) ;
#143 = LINE ( 'NONE', #671, #334 ) ;
#144 = VERTEX_POINT ( 'NONE', #613 ) ;
#145 = LINE ( 'NONE', #9, #288 ) ;
#146 = CARTESIAN_POINT ( 'NONE',  ( 21.41545973620474896, -39.15658402025935203, 2.922563207598111834 ) ) ;
#147 = VERTEX_POINT ( 'NONE', #569 ) ;
#148 = LINE ( 'NONE', #670, #170 ) ;
#149 = VECTOR ( 'NONE', #470, 1000.000000000000000 ) ;
#150 = DIRECTION ( 'NONE',  ( -1.000000000000000000, -0.000000000000000000, -0.000000000000000000 ) ) ;
#151 = ORIENTED_EDGE ( 'NONE', *, *, #226, .T. ) ;
#152 = LINE ( 'NONE', #249, #627 ) ;
#153 = CARTESIAN_POINT ( 'NONE',  ( 36.25000000000000711, -47.80000000000000426, 3.249999999999997780 ) ) ;
#154 = VERTEX_POINT ( 'NONE', #86 ) ;
#155 = LINE ( 'NONE', #460, #118 ) ;
#156 = EDGE_CURVE ( 'NONE', #369, #42, #565, .T. ) ;
#157 = CARTESIAN_POINT ( 'NONE',  ( 88.00000000000000000, -25.80000000000000071, 1.250000000000000000 ) ) ;
#158 = ORIENTED_EDGE ( 'NONE', *, *, #616, .F. ) ;
#159 = LOCAL_TIME ( 15, 8, 0.000000000000000000, #24 ) ;
#160 = VECTOR ( 'NONE', #213, 1000.000000000000000 ) ;
#161 = CARTESIAN_POINT ( 'NONE',  ( 51.75000000000000711, -43.12637604294373972, 3.287119045046947186 ) ) ;
#162 = ORIENTED_EDGE ( 'NONE', *, *, #480, .F. ) ;
#163 = APPLICATION_CONTEXT ( 'configuration controlled 3d designs of mechanical parts and assemblies' ) ;
#164 = DIRECTION ( 'NONE',  ( -1.000000000000000000, 0.000000000000000000, -0.000000000000000000 ) ) ;
#165 = ORIENTED_EDGE ( 'NONE', *, *, #654, .F. ) ;
#166 = DIRECTION ( 'NONE',  ( 1.000000000000000000, 0.000000000000000000, 0.000000000000000000 ) ) ;
#167 = PLANE ( 'NONE',  #202 ) ;
#168 = ORIENTED_EDGE ( 'NONE', *, *, #226, .F. ) ;
#169 = CARTESIAN_POINT ( 'NONE',  ( 0.000000000000000000, 0.000000000000000000, 0.000000000000000000 ) ) ;
#170 = VECTOR ( 'NONE', #407, 1000.000000000000000 ) ;
#171 = AXIS2_PLACEMENT_3D ( 'NONE', #663, #139, #194 ) ;
#172 = CARTESIAN_POINT ( 'NONE',  ( 51.75000000000000711, -43.12637604294373972, 3.287119045046947186 ) ) ;
#173 = CARTESIAN_POINT ( 'NONE',  ( 0.000000000000000000, 0.000000000000000000, 2.350000000000000089 ) ) ;
#174 = B_SPLINE_CURVE_WITH_KNOTS ( 'NONE', 3,
 ( #289, #201, #198, #447 ),
 .UNSPECIFIED., .F., .F.,
 ( 4, 4 ),
 ( 0.000000000000000000, 0.1750599595779304407 ),
 .UNSPECIFIED. ) ;
#175 = EDGE_CURVE ( 'NONE', #425, #649, #174, .T. ) ;
#176 = CARTESIAN_POINT ( 'NONE',  ( 88.00000000000000000, 0.000000000000000000, 0.000000000000000000 ) ) ;
#177 = PERSON_AND_ORGANIZATION ( #96, #533 ) ;
#178 = CARTESIAN_POINT ( 'NONE',  ( 13.99999999999999822, -37.18247852131718645, 2.604125164323260133 ) ) ;
#179 = CC_DESIGN_SECURITY_CLASSIFICATION ( #432, ( #408 ) ) ;
#180 = PLANE ( 'NONE',  #181 ) ;
#181 = AXIS2_PLACEMENT_3D ( 'NONE', #285, #597, #33 ) ;
#182 = CARTESIAN_POINT ( 'NONE',  ( 74.00000000000000000, -37.19999999999999574, 2.471948102914914180 ) ) ;
#183 = ADVANCED_FACE ( 'NONE', ( #294 ), #47, .F. ) ;
#184 = CARTESIAN_POINT ( 'NONE',  ( 88.00000000000000000, -27.80000000000000071, 1.250000000000000000 ) ) ;
#185 = APPROVAL_DATE_TIME ( #550, #583 ) ;
#186 = LINE ( 'NONE', #230, #423 ) ;
#187 = DIRECTION ( 'NONE',  ( 1.224646799147352961E-16, -1.000000000000000000, 0.000000000000000000 ) ) ;
#188 = ORIENTED_EDGE ( 'NONE', *, *, #396, .F. ) ;
#189 = CARTESIAN_POINT ( 'NONE',  ( 51.75000000000000711, -43.12637604294373261, 3.287119045046946741 ) ) ;
#190 = CARTESIAN_POINT ( 'NONE',  ( 13.99999999999999822, -26.30000000000000782, 1.250000000000000000 ) ) ;
#191 = VERTEX_POINT ( 'NONE', #253 ) ;
#192 = DIRECTION ( 'NONE',  ( 1.000000000000000000, -5.648357241393615729E-18, 0.000000000000000000 ) ) ;
#193 = EDGE_CURVE ( 'NONE', #67, #539, #661, .T. ) ;
#194 = DIRECTION ( 'NONE',  ( -0.000000000000000000, 0.000000000000000000, 1.000000000000000000 ) ) ;
#195 = EDGE_LOOP ( 'NONE', ( #586, #359, #162, #354 ) ) ;
#196 = DIRECTION ( 'NONE',  ( -0.000000000000000000, 0.000000000000000000, 1.000000000000000000 ) ) ;
#197 = ADVANCED_FACE ( 'NONE', ( #246 ), #343, .F. ) ;
#198 = CARTESIAN_POINT ( 'NONE',  ( 36.25000000000000711, -44.61142696241473971, 3.388515927283730633 ) ) ;
#199 = VERTEX_POINT ( 'NONE', #660 ) ;
#200 = CARTESIAN_POINT ( 'NONE',  ( 36.25000000000000711, -44.62106034644237695, 3.188708024787850981 ) ) ;
#201 = CARTESIAN_POINT ( 'NONE',  ( 36.25000000000000711, -46.16748820078979065, 3.449999999999998401 ) ) ;
#202 = AXIS2_PLACEMENT_3D ( 'NONE', #319, #376, #420 ) ;
#203 = ORIENTED_EDGE ( 'NONE', *, *, #50, .F. ) ;
#204 = CARTESIAN_POINT ( 'NONE',  ( 36.25000000000000711, -43.14000000000000057, 3.087583615125018444 ) ) ;
#205 = LINE ( 'NONE', #7, #555 ) ;
#206 = CC_DESIGN_DATE_AND_TIME_ASSIGNMENT ( #291, #128, ( #576 ) ) ;
#207 = VERTEX_POINT ( 'NONE', #453 ) ;
#208 = DIRECTION ( 'NONE',  ( 1.000000000000000000, 0.000000000000000000, 0.000000000000000000 ) ) ;
#209 = B_SPLINE_CURVE_WITH_KNOTS ( 'NONE', 3,
 ( #364, #634, #200, #204 ),
 .UNSPECIFIED., .F., .F.,
 ( 4, 4 ),
 ( 0.000000000000000000, 0.1750599543187237039 ),
 .UNSPECIFIED. ) ;
#210 = CARTESIAN_POINT ( 'NONE',  ( 0.000000000000000000, -47.80000000000000426, 3.249999999999997780 ) ) ;
#211 = B_SPLINE_CURVE_WITH_KNOTS ( 'NONE', 3,
 ( #138, #606, #338, #346 ),
 .UNSPECIFIED., .F., .F.,
 ( 4, 4 ),
 ( 0.4254652012674472461, 1.000000000000000000 ),
 .UNSPECIFIED. ) ;
#212 = ORIENTED_EDGE ( 'NONE', *, *, #530, .T. ) ;
#213 = DIRECTION ( 'NONE',  ( 0.000000000000000000, -1.399458115883296489E-16, 1.000000000000000000 ) ) ;
#214 = B_SPLINE_CURVE_WITH_KNOTS ( 'NONE', 3,
 ( #78, #231, #75, #172 ),
 .UNSPECIFIED., .F., .F.,
 ( 4, 4 ),
 ( 0.000000000000000000, 1.000000000000000000 ),
 .UNSPECIFIED. ) ;
#215 = CARTESIAN_POINT ( 'NONE',  ( 51.75000000000000711, -47.80000000000000426, 3.249999999999997780 ) ) ;
#216 = ORIENTED_EDGE ( 'NONE', *, *, #637, .T. ) ;
#217 = EDGE_CURVE ( 'NONE', #136, #607, #458, .T. ) ;
#218 = CARTESIAN_POINT ( 'NONE',  ( 74.00000000000001421, -26.30000000000000782, 1.250000000000000000 ) ) ;
#219 = ORIENTED_EDGE ( 'NONE', *, *, #234, .F. ) ;
#220 = CARTESIAN_POINT ( 'NONE',  ( 13.99999999999999822, -43.13727814416787965, 3.449999999999998845 ) ) ;
#221 = ORIENTED_EDGE ( 'NONE', *, *, #156, .F. ) ;
#222 = EDGE_CURVE ( 'NONE', #649, #274, #232, .T. ) ;
#223 = CARTESIAN_POINT ( 'NONE',  ( 14.00000000000000533, -37.20000000000000284, 2.471948102914914180 ) ) ;
#224 = B_SPLINE_CURVE_WITH_KNOTS ( 'NONE', 3,
 ( #492, #18, #311, #526, #519, #161 ),
 .UNSPECIFIED., .F., .F.,
 ( 4, 2, 4 ),
 ( 0.000000000000000000, 0.4999999999999999445, 1.000000000000000000 ),
 .UNSPECIFIED. ) ;
#225 = ORIENTED_EDGE ( 'NONE', *, *, #347, .F. ) ;
#226 = EDGE_CURVE ( 'NONE', #641, #244, #617, .T. ) ;
#227 = ORIENTED_EDGE ( 'NONE', *, *, #50, .T. ) ;
#228 = APPROVAL_STATUS ( 'not_yet_approved' ) ;
#229 = CC_DESIGN_DATE_AND_TIME_ASSIGNMENT ( #238, #543, ( #432 ) ) ;
#230 = CARTESIAN_POINT ( 'NONE',  ( -1.694507172418084488E-17, -2.999999999999999112, 0.000000000000000000 ) ) ;
#231 = CARTESIAN_POINT ( 'NONE',  ( 51.75000000000000711, -43.13545868097835267, 3.154095425098796923 ) ) ;
#232 = B_SPLINE_CURVE_WITH_KNOTS ( 'NONE', 3,
 ( #626, #90, #242, #146, #393, #560 ),
 .UNSPECIFIED., .F., .F.,
 ( 4, 2, 4 ),
 ( 2.246643357675956334E-08, 0.5000000112332168012, 1.000000000000000000 ),
 .UNSPECIFIED. ) ;
#233 = PLANE ( 'NONE',  #589 ) ;
#234 = EDGE_CURVE ( 'NONE', #199, #649, #259, .T. ) ;
#235 = LOCAL_TIME ( 15, 8, 0.000000000000000000, #337 ) ;
#236 = CARTESIAN_POINT ( 'NONE',  ( 74.00000000000001421, -26.30000000000000782, 1.450000000000000178 ) ) ;
#237 = VECTOR ( 'NONE', #398, 1000.000000000000000 ) ;
#238 = DATE_AND_TIME ( #650, #534 ) ;
#239 = CARTESIAN_POINT ( 'NONE',  ( 3.404518101629641773E-15, -27.80000000000000071, 2.350000000000000089 ) ) ;
#240 = CARTESIAN_POINT ( 'NONE',  ( 36.25000000000000711, -43.14000000000000057, 3.087583615125018444 ) ) ;
#241 = CARTESIAN_POINT ( 'NONE',  ( 0.000000000000000000, -25.80000000000000071, 2.350000000000000089 ) ) ;
#242 = CARTESIAN_POINT ( 'NONE',  ( 28.83204481354447068, -41.14088540284912199, 3.131388933193463231 ) ) ;
#243 = ADVANCED_FACE ( 'NONE', ( #135 ), #428, .T. ) ;
#244 = VERTEX_POINT ( 'NONE', #265 ) ;
#245 = CARTESIAN_POINT ( 'NONE',  ( -0.000000000000000000, -22.17999999999999972, 0.000000000000000000 ) ) ;
#246 = FACE_OUTER_BOUND ( 'NONE', #54, .T. ) ;
#247 = ORIENTED_EDGE ( 'NONE', *, *, #298, .F. ) ;
#248 = ADVANCED_FACE ( 'NONE', ( #413 ), #532, .F. ) ;
#249 = CARTESIAN_POINT ( 'NONE',  ( 74.00000000000001421, -26.30000000000000782, 1.250000000000000000 ) ) ;
#250 = CARTESIAN_POINT ( 'NONE',  ( 0.000000000000000000, 0.000000000000000000, 2.350000000000000089 ) ) ;
#251 = ORIENTED_EDGE ( 'NONE', *, *, #256, .T. ) ;
#252 = PLANE ( 'NONE',  #479 ) ;
#253 = CARTESIAN_POINT ( 'NONE',  ( 88.00000000000000000, 0.000000000000000000, 2.350000000000000089 ) ) ;
#254 = ORIENTED_EDGE ( 'NONE', *, *, #604, .T. ) ;
#255 = PLANE ( 'NONE',  #344 ) ;
#256 = EDGE_CURVE ( 'NONE', #95, #191, #638, .T. ) ;
#257 = CARTESIAN_POINT ( 'NONE',  ( 0.000000000000000000, 0.000000000000000000, 0.000000000000000000 ) ) ;
#258 = ORIENTED_EDGE ( 'NONE', *, *, #570, .F. ) ;
#259 = B_SPLINE_CURVE_WITH_KNOTS ( 'NONE', 1,
 ( #240, #99 ),
 .UNSPECIFIED., .F., .F.,
 ( 2, 2 ),
 ( 0.000000000000000000, 1.000000000000000000 ),
 .UNSPECIFIED. ) ;
#260 = LINE ( 'NONE', #350, #149 ) ;
#261 = VECTOR ( 'NONE', #540, 1000.000000000000000 ) ;
#262 = LINE ( 'NONE', #257, #442 ) ;
#263 = EDGE_LOOP ( 'NONE', ( #473, #489, #524, #549 ) ) ;
#264 = CARTESIAN_POINT ( 'NONE',  ( 36.24999950000000126, -43.12637590910092200, 3.287119035908376397 ) ) ;
#265 = CARTESIAN_POINT ( 'NONE',  ( 3.404518101629641773E-15, -27.80000000000000071, 1.250000000000000000 ) ) ;
#266 = ORIENTED_EDGE ( 'NONE', *, *, #616, .T. ) ;
#267 = ADVANCED_FACE ( 'NONE', ( #643 ), #167, .T. ) ;
#268 = PLANE ( 'NONE',  #624 ) ;
#269 = B_SPLINE_CURVE_WITH_KNOTS ( 'NONE', 3,
 ( #475, #374, #10, #215 ),
 .UNSPECIFIED., .F., .F.,
 ( 4, 4 ),
 ( 0.8249400456812694404, 1.000000000000000000 ),
 .UNSPECIFIED. ) ;
#270 = CARTESIAN_POINT ( 'NONE',  ( 88.00000000000000000, 0.000000000000000000, 2.350000000000000089 ) ) ;
#271 = EDGE_LOOP ( 'NONE', ( #611, #476, #410, #590, #664, #300, #571, #115 ) ) ;
#272 = VECTOR ( 'NONE', #659, 1000.000000000000000 ) ;
#273 = CARTESIAN_POINT ( 'NONE',  ( 13.99999999999999822, -26.30000000000000782, 1.250000000000000000 ) ) ;
#274 = VERTEX_POINT ( 'NONE', #109 ) ;
#275 = PERSON_AND_ORGANIZATION ( #96, #533 ) ;
#276 = FACE_OUTER_BOUND ( 'NONE', #263, .T. ) ;
#277 = ORIENTED_EDGE ( 'NONE', *, *, #298, .T. ) ;
#278 = EDGE_CURVE ( 'NONE', #45, #154, #224, .T. ) ;
#279 = PLANE ( 'NONE',  #497 ) ;
#280 = DIRECTION ( 'NONE',  ( -0.000000000000000000, 0.000000000000000000, 1.000000000000000000 ) ) ;
#281 = CARTESIAN_POINT ( 'NONE',  ( 74.00000000000001421, -37.17371778183647990, 2.670213695008966326 ) ) ;
#282 = PERSON_AND_ORGANIZATION ( #96, #533 ) ;
#283 = EDGE_CURVE ( 'NONE', #144, #510, #262, .T. ) ;
#284 = LINE ( 'NONE', #245, #98 ) ;
#285 = CARTESIAN_POINT ( 'NONE',  ( 3.404518101629641773E-15, -27.80000000000000071, 2.350000000000000089 ) ) ;
#286 = CALENDAR_DATE ( 2023, 26, 11 ) ;
#287 = DIRECTION ( 'NONE',  ( 0.000000000000000000, -1.000000000000000000, -1.399458115883296489E-16 ) ) ;
#288 = VECTOR ( 'NONE', #400, 1000.000000000000000 ) ;
#289 = CARTESIAN_POINT ( 'NONE',  ( 36.25000000000000711, -47.80000000000000426, 3.449999999999997957 ) ) ;
#290 = APPROVAL_PERSON_ORGANIZATION ( #275, #583, #493 ) ;
#291 = DATE_AND_TIME ( #26, #34 ) ;
#292 = CARTESIAN_POINT ( 'NONE',  ( 14.00000000000000533, -37.20000000000000284, 2.471948102914914180 ) ) ;
#293 = EDGE_CURVE ( 'NONE', #274, #42, #122, .T. ) ;
#294 = FACE_OUTER_BOUND ( 'NONE', #402, .T. ) ;
#295 = VERTEX_POINT ( 'NONE', #417 ) ;
#296 = COORDINATED_UNIVERSAL_TIME_OFFSET ( 3, 0, .AHEAD. ) ;
#297 = CARTESIAN_POINT ( 'NONE',  ( 21.41545973620474896, -39.15658402025935203, 2.922563207598111834 ) ) ;
#298 = EDGE_CURVE ( 'NONE', #136, #144, #205, .T. ) ;
#299 = CARTESIAN_POINT ( 'NONE',  ( 74.00000000000001421, -26.30000000000000782, 1.450000000000000178 ) ) ;
#300 = ORIENTED_EDGE ( 'NONE', *, *, #142, .T. ) ;
#301 = CARTESIAN_POINT ( 'NONE',  ( 74.00000000000000000, -32.96218446681093894, 1.910180469909171119 ) ) ;
#302 = CARTESIAN_POINT ( 'NONE',  ( 74.00000000000000000, -37.19999999999866702, 2.471948102914736101 ) ) ;
#303 = ORIENTED_EDGE ( 'NONE', *, *, #108, .T. ) ;
#304 = VECTOR ( 'NONE', #513, 1000.000000000000000 ) ;
#305 = DIRECTION ( 'NONE',  ( -0.000000000000000000, 1.000000000000000000, 0.000000000000000000 ) ) ;
#306 = LINE ( 'NONE', #44, #237 ) ;
#307 = VERTEX_POINT ( 'NONE', #153 ) ;
#308 = CARTESIAN_POINT ( 'NONE',  ( 51.75000000000000711, -43.14000000000000057, 3.087583615125018444 ) ) ;
#309 = EDGE_CURVE ( 'NONE', #106, #95, #365, .T. ) ;
#310 = B_SPLINE_CURVE_WITH_KNOTS ( 'NONE', 3,
 ( #567, #1, #301, #412 ),
 .UNSPECIFIED., .F., .F.,
 ( 4, 4 ),
 ( 0.000000000000000000, 0.5745347987324925798 ),
 .UNSPECIFIED. ) ;
#311 = CARTESIAN_POINT ( 'NONE',  ( 66.58454026379502011, -39.15658402025937335, 2.922563207598117163 ) ) ;
#312 = EDGE_LOOP ( 'NONE', ( #399, #225, #373, #349 ) ) ;
#313 = CARTESIAN_POINT ( 'NONE',  ( 51.75000000000000711, -44.61142705590990687, 3.388515930978122537 ) ) ;
#314 = CARTESIAN_POINT ( 'NONE',  ( 13.99999999999999822, -26.30000000000000782, 1.450000000000000178 ) ) ;
#315 = CC_DESIGN_APPROVAL ( #545, ( #432 ) ) ;
#316 = ORIENTED_EDGE ( 'NONE', *, *, #665, .F. ) ;
#317 = LINE ( 'NONE', #623, #36 ) ;
#318 = B_SPLINE_SURFACE_WITH_KNOTS ( 'NONE', 1, 3, ( 
 ( #554, #448, #389, #662, #609, #189 ),
 ( #182, #397, #134, #451, #117, #603 ) ),
 .UNSPECIFIED., .F., .F., .F.,
 ( 2, 2 ),
 ( 4, 2, 4 ),
 ( 0.000000000000000000, 1.000000000000000000 ),
 ( 3.451862710090522234E-16, 0.01151873590160732222, 0.02303747180321430096 ),
 .UNSPECIFIED. ) ;
#319 = CARTESIAN_POINT ( 'NONE',  ( 13.99999999999999822, -36.07274838444291731, 2.249999999999999112 ) ) ;
#320 = ORIENTED_EDGE ( 'NONE', *, *, #564, .F. ) ;
#321 = DIRECTION ( 'NONE',  ( -0.000000000000000000, 1.000000000000000000, -0.000000000000000000 ) ) ;
#322 = EDGE_CURVE ( 'NONE', #307, #112, #14, .T. ) ;
#323 = ORIENTED_EDGE ( 'NONE', *, *, #283, .T. ) ;
#324 = LINE ( 'NONE', #372, #326 ) ;
#325 = ORIENTED_EDGE ( 'NONE', *, *, #628, .F. ) ;
#326 = VECTOR ( 'NONE', #528, 1000.000000000000000 ) ;
#327 = VECTOR ( 'NONE', #577, 1000.000000000000000 ) ;
#328 = CARTESIAN_POINT ( 'NONE',  ( 36.25000000000000711, -43.14000000000000057, 3.087583615125018444 ) ) ;
#329 = EDGE_LOOP ( 'NONE', ( #258, #188, #639, #632 ) ) ;
#330 = CC_DESIGN_PERSON_AND_ORGANIZATION_ASSIGNMENT ( #547, #491, ( #576 ) ) ;
#331 = LINE ( 'NONE', #443, #469 ) ;
#332 = LINE ( 'NONE', #646, #261 ) ;
#333 = SECURITY_CLASSIFICATION_LEVEL ( 'unclassified' ) ;
#334 = VECTOR ( 'NONE', #150, 1000.000000000000000 ) ;
#335 = EDGE_CURVE ( 'NONE', #539, #112, #269, .T. ) ;
#336 = ORIENTED_EDGE ( 'NONE', *, *, #466, .T. ) ;
#337 = COORDINATED_UNIVERSAL_TIME_OFFSET ( 3, 0, .AHEAD. ) ;
#338 = CARTESIAN_POINT ( 'NONE',  ( 13.99999999999999822, -29.39545182728254957, 1.249999999999999778 ) ) ;
#339 = PLANE ( 'NONE',  #2 ) ;
#340 = LINE ( 'NONE', #79, #648 ) ;
#341 = CARTESIAN_POINT ( 'NONE',  ( 28.47569002190529730, -41.06452129124123474, 2.945873279219276331 ) ) ;
#342 = CARTESIAN_POINT ( 'NONE',  ( 28.83204481354447068, -41.14088540284912199, 3.131388933193463231 ) ) ;
#343 = PLANE ( 'NONE',  #509 ) ;
#344 = AXIS2_PLACEMENT_3D ( 'NONE', #55, #563, #361 ) ;
#345 = ORIENTED_EDGE ( 'NONE', *, *, #309, .F. ) ;
#346 = CARTESIAN_POINT ( 'NONE',  ( 13.99999999999999822, -26.30000000000000782, 1.250000000000000000 ) ) ;
#347 = EDGE_CURVE ( 'NONE', #91, #144, #324, .T. ) ;
#348 = CARTESIAN_POINT ( 'NONE',  ( 66.94097664476136345, -39.08452129124123786, 2.721761493053859393 ) ) ;
#349 = ORIENTED_EDGE ( 'NONE', *, *, #551, .F. ) ;
#350 = CARTESIAN_POINT ( 'NONE',  ( 36.25000000000000711, -47.80000000000000426, 3.249999999999997780 ) ) ;
#351 = PRODUCT ( 'LCD126х64', 'LCD126х64', '', ( #587 ) ) ;
#352 = APPLICATION_CONTEXT ( 'configuration controlled 3d designs of mechanical parts and assemblies' ) ;
#353 = DIRECTION ( 'NONE',  ( -1.000000000000000000, 0.000000000000000000, -0.000000000000000000 ) ) ;
#354 = ORIENTED_EDGE ( 'NONE', *, *, #309, .T. ) ;
#355 = CARTESIAN_POINT ( 'NONE',  ( 82.38999999999998636, -22.17999999999999972, 0.000000000000000000 ) ) ;
#356 = UNCERTAINTY_MEASURE_WITH_UNIT (LENGTH_MEASURE( 1.000000000000000082E-05 ), #120, 'distance_accuracy_value', 'NONE');
#357 = DIRECTION ( 'NONE',  ( 1.000000000000000000, 0.000000000000000000, 0.000000000000000000 ) ) ;
#358 = CC_DESIGN_PERSON_AND_ORGANIZATION_ASSIGNMENT ( #536, #68, ( #351 ) ) ;
#359 = ORIENTED_EDGE ( 'NONE', *, *, #73, .F. ) ;
#360 = CLOSED_SHELL ( 'NONE', ( #674, #197, #69, #490, #61, #85, #415, #522, #94 ) ) ;
#361 = DIRECTION ( 'NONE',  ( 0.000000000000000000, 0.000000000000000000, 1.000000000000000000 ) ) ;
#362 = CARTESIAN_POINT ( 'NONE',  ( 74.00000000000001421, -29.36701524756283632, 1.449999999999999734 ) ) ;
#363 = EDGE_LOOP ( 'NONE', ( #503, #437, #377, #254 ) ) ;
#364 = CARTESIAN_POINT ( 'NONE',  ( 36.25000000000000711, -47.80000000000000426, 3.249999999999997780 ) ) ;
#365 = LINE ( 'NONE', #157, #327 ) ;
#366 = ORIENTED_EDGE ( 'NONE', *, *, #133, .F. ) ;
#367 = CARTESIAN_POINT ( 'NONE',  ( 5.609999999999996767, 0.000000000000000000, 0.000000000000000000 ) ) ;
#368 = CARTESIAN_POINT ( 'NONE',  ( 13.99999999999999822, -39.09810740454665989, 2.948390386625135307 ) ) ;
#369 = VERTEX_POINT ( 'NONE', #65 ) ;
#370 =( NAMED_UNIT ( * ) SI_UNIT ( $, .STERADIAN. ) SOLID_ANGLE_UNIT ( ) );
#371 = ADVANCED_FACE ( 'NONE', ( #63 ), #561, .F. ) ;
#372 = CARTESIAN_POINT ( 'NONE',  ( 0.000000000000000000, 0.000000000000000000, 0.000000000000000000 ) ) ;
#373 = ORIENTED_EDGE ( 'NONE', *, *, #404, .F. ) ;
#374 = CARTESIAN_POINT ( 'NONE',  ( 51.75000000000000711, -44.62106034644225616, 3.188708024787846096 ) ) ;
#375 = EDGE_LOOP ( 'NONE', ( #562, #48, #266, #303 ) ) ;
#376 = DIRECTION ( 'NONE',  ( -1.000000000000000000, 0.000000000000000000, -0.000000000000000000 ) ) ;
#377 = ORIENTED_EDGE ( 'NONE', *, *, #427, .T. ) ;
#378 = EDGE_CURVE ( 'NONE', #462, #274, #486, .T. ) ;
#379 = AXIS2_PLACEMENT_3D ( 'NONE', #383, #600, #353 ) ;
#380 = DIRECTION ( 'NONE',  ( 1.000000000000000000, 0.000000000000000000, 0.000000000000000000 ) ) ;
#381 = LINE ( 'NONE', #184, #116 ) ;
#382 = PERSON_AND_ORGANIZATION_ROLE ( 'design_supplier' ) ;
#383 = CARTESIAN_POINT ( 'NONE',  ( 0.000000000000000000, 0.000000000000000000, 1.250000000000000000 ) ) ;
#384 = COORDINATED_UNIVERSAL_TIME_OFFSET ( 3, 0, .AHEAD. ) ;
#385 = CARTESIAN_POINT ( 'NONE',  ( 36.25000000000000711, -47.80000000000000426, 3.449999999999997957 ) ) ;
#386 = AXIS2_PLACEMENT_3D ( 'NONE', #461, #41, #357 ) ;
#387 = FACE_OUTER_BOUND ( 'NONE', #80, .T. ) ;
#388 = APPROVAL_DATE_TIME ( #558, #545 ) ;
#389 = CARTESIAN_POINT ( 'NONE',  ( 66.58454026379502011, -39.15658402025937335, 2.922563207598117163 ) ) ;
#390 = DIRECTION ( 'NONE',  ( 0.000000000000000000, 1.000000000000000000, 0.000000000000000000 ) ) ;
#391 = PERSON_AND_ORGANIZATION_ROLE ( 'classification_officer' ) ;
#392 = FACE_OUTER_BOUND ( 'NONE', #87, .T. ) ;
#393 = CARTESIAN_POINT ( 'NONE',  ( 17.70759593205300320, -38.16486232670528267, 2.801600472129598174 ) ) ;
#394 = ORIENTED_EDGE ( 'NONE', *, *, #256, .F. ) ;
#395 = APPROVAL_STATUS ( 'not_yet_approved' ) ;
#396 = EDGE_CURVE ( 'NONE', #482, #207, #186, .T. ) ;
#397 = CARTESIAN_POINT ( 'NONE',  ( 70.29240474425336060, -38.18980295816336934, 2.603157038413588253 ) ) ;
#398 = DIRECTION ( 'NONE',  ( 1.000000000000000000, 0.000000000000000000, 0.000000000000000000 ) ) ;
#399 = ORIENTED_EDGE ( 'NONE', *, *, #283, .F. ) ;
#400 = DIRECTION ( 'NONE',  ( 0.000000000000000000, -1.000000000000000000, 0.000000000000000000 ) ) ;
#401 = CARTESIAN_POINT ( 'NONE',  ( 74.00000000000001421, -32.93015905425721712, 2.107684740352216313 ) ) ;
#402 = EDGE_LOOP ( 'NONE', ( #316, #668, #57, #529 ) ) ;
#403 = LINE ( 'NONE', #487, #160 ) ;
#404 = EDGE_CURVE ( 'NONE', #574, #91, #588, .T. ) ;
#405 = CARTESIAN_POINT ( 'NONE',  ( 0.000000000000000000, 0.000000000000000000, 2.350000000000000089 ) ) ;
#406 = ORIENTED_EDGE ( 'NONE', *, *, #457, .F. ) ;
#407 = DIRECTION ( 'NONE',  ( 1.000000000000000000, 0.000000000000000000, 0.000000000000000000 ) ) ;
#408 = PRODUCT_DEFINITION_FORMATION_WITH_SPECIFIED_SOURCE ( 'ANY', '', #351, .NOT_KNOWN. ) ;
#409 = DIRECTION ( 'NONE',  ( -1.224646799147352961E-16, 1.000000000000000000, 0.000000000000000000 ) ) ;
#410 = ORIENTED_EDGE ( 'NONE', *, *, #593, .T. ) ;
#411 = AXIS2_PLACEMENT_3D ( 'NONE', #104, #46, #196 ) ;
#412 = CARTESIAN_POINT ( 'NONE',  ( 74.00000000000000000, -37.19999999999866702, 2.471948102914736101 ) ) ;
#413 = FACE_OUTER_BOUND ( 'NONE', #375, .T. ) ;
#414 = ORIENTED_EDGE ( 'NONE', *, *, #530, .F. ) ;
#415 = ADVANCED_FACE ( 'NONE', ( #39 ), #552, .F. ) ;
#416 = LINE ( 'NONE', #673, #83 ) ;
#417 = CARTESIAN_POINT ( 'NONE',  ( 51.75000000000000711, -47.80000000000000426, 3.449999999999997957 ) ) ;
#418 = ORIENTED_EDGE ( 'NONE', *, *, #551, .T. ) ;
#419 = EDGE_CURVE ( 'NONE', #95, #607, #77, .T. ) ;
#420 = DIRECTION ( 'NONE',  ( -0.000000000000000000, 0.000000000000000000, 1.000000000000000000 ) ) ;
#421 = ORIENTED_EDGE ( 'NONE', *, *, #278, .F. ) ;
#422 = DIRECTION ( 'NONE',  ( 1.000000000000000000, 0.000000000000000000, 0.000000000000000000 ) ) ;
#423 = VECTOR ( 'NONE', #192, 1000.000000000000000 ) ;
#424 = CARTESIAN_POINT ( 'NONE',  ( 74.00000000000001421, -31.68775342087414870, 1.249999999999999334 ) ) ;
#425 = VERTEX_POINT ( 'NONE', #385 ) ;
#426 = CARTESIAN_POINT ( 'NONE',  ( 74.00000000000001421, -43.13727814416787965, 3.449999999999998845 ) ) ;
#427 = EDGE_CURVE ( 'NONE', #566, #21, #284, .T. ) ;
#428 = B_SPLINE_SURFACE_WITH_KNOTS ( 'NONE', 3, 1, ( 
 ( #449, #299 ),
 ( #111, #53 ),
 ( #3, #640 ),
 ( #368, #585 ),
 ( #220, #426 ),
 ( #102, #582 ) ),
 .UNSPECIFIED., .F., .F., .F.,
 ( 4, 2, 4 ),
 ( 2, 2 ),
 ( 0.000000000000000000, 0.5000000000000000000, 1.000000000000000000 ),
 ( 0.000000000000000000, 1.000000000000000000 ),
 .UNSPECIFIED. ) ;
#429 = ORIENTED_EDGE ( 'NONE', *, *, #133, .T. ) ;
#430 = CARTESIAN_POINT ( 'NONE',  ( 51.75000000000000711, -47.80000000000000426, 3.449999999999997957 ) ) ;
#431 = CARTESIAN_POINT ( 'NONE',  ( 5.609999999999996767, -22.17999999999999972, 0.000000000000000000 ) ) ;
#432 = SECURITY_CLASSIFICATION ( '', '', #333 ) ;
#433 = FACE_BOUND ( 'NONE', #329, .T. ) ;
#434 = VECTOR ( 'NONE', #89, 1000.000000000000000 ) ;
#435 = FACE_OUTER_BOUND ( 'NONE', #553, .T. ) ;
#436 = ADVANCED_FACE ( 'NONE', ( #392 ), #233, .T. ) ;
#437 = ORIENTED_EDGE ( 'NONE', *, *, #570, .T. ) ;
#438 = APPROVAL_ROLE ( '' ) ;
#439 = CARTESIAN_POINT ( 'NONE',  ( 0.000000000000000000, 0.000000000000000000, 0.000000000000000000 ) ) ;
#440 = FACE_OUTER_BOUND ( 'NONE', #506, .T. ) ;
#441 = CARTESIAN_POINT ( 'NONE',  ( 36.25000000000000711, -47.80000000000000426, 3.249999999999997780 ) ) ;
#442 = VECTOR ( 'NONE', #465, 1000.000000000000000 ) ;
#443 = CARTESIAN_POINT ( 'NONE',  ( 0.000000000000000000, -25.80000000000000071, 1.250000000000000000 ) ) ;
#444 = CALENDAR_DATE ( 2023, 26, 11 ) ;
#445 = LINE ( 'NONE', #239, #434 ) ;
#446 = ADVANCED_FACE ( 'NONE', ( #276 ), #318, .F. ) ;
#447 = CARTESIAN_POINT ( 'NONE',  ( 36.24999950000000126, -43.12637590910092200, 3.287119035908376397 ) ) ;
#448 = CARTESIAN_POINT ( 'NONE',  ( 70.29240406794644969, -38.16486232670541767, 2.801600472129616826 ) ) ;
#449 = CARTESIAN_POINT ( 'NONE',  ( 13.99999999999999822, -26.30000000000000782, 1.450000000000000178 ) ) ;
#450 = ORIENTED_EDGE ( 'NONE', *, *, #628, .T. ) ;
#451 = CARTESIAN_POINT ( 'NONE',  ( 59.16795518645541563, -41.15965600864964102, 2.932259858110624950 ) ) ;
#452 = CC_DESIGN_APPROVAL ( #633, ( #408 ) ) ;
#453 = CARTESIAN_POINT ( 'NONE',  ( 82.38999999999998636, -2.999999999999999556, 0.000000000000000000 ) ) ;
#454 = VECTOR ( 'NONE', #51, 1000.000000000000000 ) ;
#455 = ORIENTED_EDGE ( 'NONE', *, *, #347, .T. ) ;
#456 = FACE_OUTER_BOUND ( 'NONE', #64, .T. ) ;
#457 = EDGE_CURVE ( 'NONE', #462, #369, #211, .T. ) ;
#458 = LINE ( 'NONE', #405, #127 ) ;
#459 = EDGE_LOOP ( 'NONE', ( #546, #325, #336, #418 ) ) ;
#460 = CARTESIAN_POINT ( 'NONE',  ( 3.404518101629641773E-15, -27.80000000000000071, 0.000000000000000000 ) ) ;
#461 = CARTESIAN_POINT ( 'NONE',  ( 13.99999999999999822, -26.30000000000000782, 1.250000000000000000 ) ) ;
#462 = VERTEX_POINT ( 'NONE', #28 ) ;
#463 = DIRECTION ( 'NONE',  ( -0.000000000000000000, -0.000000000000000000, -1.000000000000000000 ) ) ;
#464 = CLOSED_SHELL ( 'NONE', ( #248, #125, #267, #472, #647, #436, #183, #446, #243, #371 ) ) ;
#465 = DIRECTION ( 'NONE',  ( 1.224646799147352961E-16, -1.000000000000000000, 0.000000000000000000 ) ) ;
#466 = EDGE_CURVE ( 'NONE', #244, #510, #445, .T. ) ;
#467 = LOCAL_TIME ( 15, 8, 0.000000000000000000, #384 ) ;
#468 = ORIENTED_EDGE ( 'NONE', *, *, #378, .T. ) ;
#469 = VECTOR ( 'NONE', #74, 1000.000000000000000 ) ;
#470 = DIRECTION ( 'NONE',  ( 0.000000000000000000, -1.399458115883296489E-16, 1.000000000000000000 ) ) ;
#471 = CARTESIAN_POINT ( 'NONE',  ( 74.00000000000000000, -36.07274838444291731, 2.249999999999999112 ) ) ;
#472 = ADVANCED_FACE ( 'NONE', ( #84 ), #625, .F. ) ;
#473 = ORIENTED_EDGE ( 'NONE', *, *, #193, .F. ) ;
#474 = CARTESIAN_POINT ( 'NONE',  ( 3.404518101629641773E-15, -27.80000000000000071, 0.000000000000000000 ) ) ;
#475 = CARTESIAN_POINT ( 'NONE',  ( 51.75000000000000711, -43.14000000000000057, 3.087583615125018444 ) ) ;
#476 = ORIENTED_EDGE ( 'NONE', *, *, #322, .F. ) ;
#477 = CARTESIAN_POINT ( 'NONE',  ( 13.99999999999999822, -32.93015905425759371, 2.107684740352286035 ) ) ;
#478 = ORIENTED_EDGE ( 'NONE', *, *, #13, .T. ) ;
#479 = AXIS2_PLACEMENT_3D ( 'NONE', #6, #305, #101 ) ;
#480 = EDGE_CURVE ( 'NONE', #106, #641, #340, .T. ) ;
#481 = CARTESIAN_POINT ( 'NONE',  ( 13.99999999999999822, -38.50324011689749426, 3.249999999999999112 ) ) ;
#482 = VERTEX_POINT ( 'NONE', #525 ) ;
#483 = DIRECTION ( 'NONE',  ( 1.000000000000000000, 0.000000000000000000, 0.000000000000000000 ) ) ;
#484 = ORIENTED_EDGE ( 'NONE', *, *, #222, .F. ) ;
#485 = CARTESIAN_POINT ( 'NONE',  ( 0.000000000000000000, 0.000000000000000000, 2.350000000000000089 ) ) ;
#486 = B_SPLINE_CURVE_WITH_KNOTS ( 'NONE', 3,
 ( #292, #70, #178, #653 ),
 .UNSPECIFIED., .F., .F.,
 ( 4, 4 ),
 ( 0.000000000000000000, 1.000000000000000000 ),
 .UNSPECIFIED. ) ;
#487 = CARTESIAN_POINT ( 'NONE',  ( 51.75000000000000711, -47.80000000000000426, 3.249999999999997780 ) ) ;
#488 = B_SPLINE_CURVE_WITH_KNOTS ( 'NONE', 3,
 ( #132, #341, #25, #223 ),
 .UNSPECIFIED., .F., .F.,
 ( 4, 4 ),
 ( 0.000000000000000000, 1.000000000000000000 ),
 .UNSPECIFIED. ) ;
#489 = ORIENTED_EDGE ( 'NONE', *, *, #541, .T. ) ;
#490 = ADVANCED_FACE ( 'NONE', ( #49 ), #255, .F. ) ;
#491 = PERSON_AND_ORGANIZATION_ROLE ( 'creator' ) ;
#492 = CARTESIAN_POINT ( 'NONE',  ( 74.00000000000001421, -37.17371778183647990, 2.670213695008966326 ) ) ;
#493 = APPROVAL_ROLE ( '' ) ;
#494 = CARTESIAN_POINT ( 'NONE',  ( 17.70759593205300320, -38.16486232670528267, 2.801600472129598174 ) ) ;
#495 = CARTESIAN_POINT ( 'NONE',  ( 74.00000000000000000, -37.19999999999866702, 2.471948102914736101 ) ) ;
#496 = PERSON_AND_ORGANIZATION ( #96, #533 ) ;
#497 = AXIS2_PLACEMENT_3D ( 'NONE', #485, #280, #651 ) ;
#498 = CARTESIAN_POINT ( 'NONE',  ( 17.70759525574613846, -38.18980295816324144, 2.603157038413570490 ) ) ;
#499 = CARTESIAN_POINT ( 'NONE',  ( 74.00000000000001421, -37.17371778183647990, 2.670213695008966326 ) ) ;
#500 = PERSON_AND_ORGANIZATION_ROLE ( 'creator' ) ;
#501 = DIRECTION ( 'NONE',  ( -0.000000000000000000, 1.000000000000000000, -0.000000000000000000 ) ) ;
#502 = PLANE ( 'NONE',  #386 ) ;
#503 = ORIENTED_EDGE ( 'NONE', *, *, #396, .T. ) ;
#504 = DIRECTION ( 'NONE',  ( -1.000000000000000000, 0.000000000000000000, -0.000000000000000000 ) ) ;
#505 = CARTESIAN_POINT ( 'NONE',  ( 0.000000000000000000, 0.000000000000000000, 2.350000000000000089 ) ) ;
#506 = EDGE_LOOP ( 'NONE', ( #455, #247, #366, #657 ) ) ;
#507 = DIRECTION ( 'NONE',  ( 0.000000000000000000, 1.000000000000000000, -0.000000000000000000 ) ) ;
#508 = CARTESIAN_POINT ( 'NONE',  ( 51.75000000000000711, -47.80000000000000426, 3.249999999999997780 ) ) ;
#509 = AXIS2_PLACEMENT_3D ( 'NONE', #250, #610, #409 ) ;
#510 = VERTEX_POINT ( 'NONE', #474 ) ;
#511 = DIRECTION ( 'NONE',  ( 1.000000000000000000, 0.000000000000000000, 0.000000000000000000 ) ) ;
#512 = DESIGN_CONTEXT ( 'detailed design', #163, 'design' ) ;
#513 = DIRECTION ( 'NONE',  ( 1.702259050814819309E-15, -1.000000000000000000, -0.000000000000000000 ) ) ;
#514 = B_SPLINE_CURVE_WITH_KNOTS ( 'NONE', 3,
 ( #620, #362, #401, #499 ),
 .UNSPECIFIED., .F., .F.,
 ( 4, 4 ),
 ( 0.000000000000000000, 0.5745347987325228889 ),
 .UNSPECIFIED. ) ;
#515 = MANIFOLD_SOLID_BREP ( 'Разделяющая линия2', #360 ) ;
#516 = EDGE_LOOP ( 'NONE', ( #165, #421, #535, #124, #5, #484, #110, #227 ) ) ;
#517 = MANIFOLD_SOLID_BREP ( 'Придать толщину1', #464 ) ;
#518 = CARTESIAN_POINT ( 'NONE',  ( 74.00000000000000000, -37.19999999999866702, 2.471948102914736101 ) ) ;
#519 = CARTESIAN_POINT ( 'NONE',  ( 55.45923730720195977, -42.13346654094424082, 3.219324787048271297 ) ) ;
#520 = ORIENTED_EDGE ( 'NONE', *, *, #175, .T. ) ;
#521 = DIRECTION ( 'NONE',  ( -1.000000000000000000, -0.000000000000000000, -0.000000000000000000 ) ) ;
#522 = ADVANCED_FACE ( 'NONE', ( #572 ), #252, .F. ) ;
#523 = CARTESIAN_POINT ( 'NONE',  ( 74.00000000000001421, -38.50324011689749426, 3.249999999999999112 ) ) ;
#524 = ORIENTED_EDGE ( 'NONE', *, *, #278, .T. ) ;
#525 = CARTESIAN_POINT ( 'NONE',  ( 5.609999999999996767, -2.999999999999999112, 0.000000000000000000 ) ) ;
#526 = CARTESIAN_POINT ( 'NONE',  ( 59.16795518645541563, -41.14088540284911488, 3.131388933193465007 ) ) ;
#527 = ORIENTED_EDGE ( 'NONE', *, *, #293, .T. ) ;
#528 = DIRECTION ( 'NONE',  ( -1.000000000000000000, -0.000000000000000000, -0.000000000000000000 ) ) ;
#529 = ORIENTED_EDGE ( 'NONE', *, *, #654, .T. ) ;
#530 = EDGE_CURVE ( 'NONE', #307, #425, #260, .T. ) ;
#531 =( NAMED_UNIT ( * ) PLANE_ANGLE_UNIT ( ) SI_UNIT ( $, .RADIAN. ) );
#532 = PLANE ( 'NONE',  #66 ) ;
#533 = ORGANIZATION ( 'UNSPECIFIED', 'UNSPECIFIED', '' ) ;
#534 = LOCAL_TIME ( 15, 8, 0.000000000000000000, #35 ) ;
#535 = ORIENTED_EDGE ( 'NONE', *, *, #108, .F. ) ;
#536 = PERSON_AND_ORGANIZATION ( #96, #533 ) ;
#537 = VECTOR ( 'NONE', #507, 1000.000000000000000 ) ;
#538 = CARTESIAN_POINT ( 'NONE',  ( 32.54076230777661749, -42.14975856666035980, 3.019971528547524375 ) ) ;
#539 = VERTEX_POINT ( 'NONE', #308 ) ;
#540 = DIRECTION ( 'NONE',  ( -0.000000000000000000, -0.000000000000000000, -1.000000000000000000 ) ) ;
#541 = EDGE_CURVE ( 'NONE', #67, #45, #598, .T. ) ;
#542 = DIRECTION ( 'NONE',  ( 0.000000000000000000, -0.000000000000000000, -1.000000000000000000 ) ) ;
#543 = DATE_TIME_ROLE ( 'classification_date' ) ;
#544 =( GEOMETRIC_REPRESENTATION_CONTEXT ( 3 ) GLOBAL_UNCERTAINTY_ASSIGNED_CONTEXT ( ( #356 ) ) GLOBAL_UNIT_ASSIGNED_CONTEXT ( ( #120, #531, #370 ) ) REPRESENTATION_CONTEXT ( 'NONE', 'WORKASPACE' ) );
#545 = APPROVAL ( #395, 'UNSPECIFIED' ) ;
#546 = ORIENTED_EDGE ( 'NONE', *, *, #27, .F. ) ;
#547 = PERSON_AND_ORGANIZATION ( #96, #533 ) ;
#548 = DIRECTION ( 'NONE',  ( -0.000000000000000000, 0.000000000000000000, 1.000000000000000000 ) ) ;
#549 = ORIENTED_EDGE ( 'NONE', *, *, #40, .F. ) ;
#550 = DATE_AND_TIME ( #444, #235 ) ;
#551 = EDGE_CURVE ( 'NONE', #510, #574, #155, .T. ) ;
#552 = PLANE ( 'NONE',  #16 ) ;
#553 = EDGE_LOOP ( 'NONE', ( #151, #450, #478, #103 ) ) ;
#554 = CARTESIAN_POINT ( 'NONE',  ( 74.00000000000000000, -37.17371778183714781, 2.670213695009055144 ) ) ;
#555 = VECTOR ( 'NONE', #635, 1000.000000000000000 ) ;
#556 = CARTESIAN_POINT ( 'NONE',  ( 88.00000000000000000, -25.80000000000000071, 2.350000000000000089 ) ) ;
#557 = EDGE_LOOP ( 'NONE', ( #72, #52, #119, #19 ) ) ;
#558 = DATE_AND_TIME ( #601, #467 ) ;
#559 = CARTESIAN_POINT ( 'NONE',  ( 32.54076269279799760, -42.13346654094422661, 3.219324787048270409 ) ) ;
#560 = CARTESIAN_POINT ( 'NONE',  ( 14.00000000000000533, -37.17371778183715492, 2.670213695009055144 ) ) ;
#561 = B_SPLINE_SURFACE_WITH_KNOTS ( 'NONE', 3, 1, ( 
 ( #273, #218 ),
 ( #105, #424 ),
 ( #481, #523 ),
 ( #56, #43 ) ),
 .UNSPECIFIED., .F., .F., .F.,
 ( 4, 4 ),
 ( 2, 2 ),
 ( 0.000000000000000000, 1.000000000000000000 ),
 ( 0.000000000000000000, 1.000000000000000000 ),
 .UNSPECIFIED. ) ;
#562 = ORIENTED_EDGE ( 'NONE', *, *, #541, .F. ) ;
#563 = DIRECTION ( 'NONE',  ( -1.000000000000000000, 0.000000000000000000, 0.000000000000000000 ) ) ;
#564 = EDGE_CURVE ( 'NONE', #191, #91, #416, .T. ) ;
#565 = LINE ( 'NONE', #190, #454 ) ;
#566 = VERTEX_POINT ( 'NONE', #355 ) ;
#567 = CARTESIAN_POINT ( 'NONE',  ( 74.00000000000001421, -26.30000000000000782, 1.250000000000000000 ) ) ;
#568 = APPROVAL_PERSON_ORGANIZATION ( #282, #545, #608 ) ;
#569 = CARTESIAN_POINT ( 'NONE',  ( 88.00000000000000000, -27.80000000000000071, 1.250000000000000000 ) ) ;
#570 = EDGE_CURVE ( 'NONE', #207, #566, #145, .T. ) ;
#571 = ORIENTED_EDGE ( 'NONE', *, *, #596, .T. ) ;
#572 = FACE_OUTER_BOUND ( 'NONE', #195, .T. ) ;
#573 = CARTESIAN_POINT ( 'NONE',  ( 59.52430997809469915, -41.06452129124124184, 2.945873279219276775 ) ) ;
#574 = VERTEX_POINT ( 'NONE', #141 ) ;
#575 = CARTESIAN_POINT ( 'NONE',  ( 0.000000000000000000, -25.80000000000000071, 1.250000000000000000 ) ) ;
#576 = PRODUCT_DEFINITION ( 'UNKNOWN', '', #408, #512 ) ;
#577 = DIRECTION ( 'NONE',  ( -0.000000000000000000, -0.000000000000000000, 1.000000000000000000 ) ) ;
#578 = VERTEX_POINT ( 'NONE', #92 ) ;
#579 = LINE ( 'NONE', #367, #537 ) ;
#580 = DIRECTION ( 'NONE',  ( 1.000000000000000000, 0.000000000000000000, 0.000000000000000000 ) ) ;
#581 = ORIENTED_EDGE ( 'NONE', *, *, #156, .T. ) ;
#582 = CARTESIAN_POINT ( 'NONE',  ( 74.00000000000001421, -47.80000000000000426, 3.449999999999997957 ) ) ;
#583 = APPROVAL ( #228, 'UNSPECIFIED' ) ;
#584 = ORIENTED_EDGE ( 'NONE', *, *, #217, .F. ) ;
#585 = CARTESIAN_POINT ( 'NONE',  ( 74.00000000000001421, -39.09810740454665989, 2.948390386625135307 ) ) ;
#586 = ORIENTED_EDGE ( 'NONE', *, *, #419, .T. ) ;
#587 = MECHANICAL_CONTEXT ( 'NONE', #352, 'mechanical' ) ;
#588 = LINE ( 'NONE', #666, #592 ) ;
#589 = AXIS2_PLACEMENT_3D ( 'NONE', #441, #287, #483 ) ;
#590 = ORIENTED_EDGE ( 'NONE', *, *, #20, .T. ) ;
#591 = APPLICATION_PROTOCOL_DEFINITION ( 'international standard', 'config_control_design', 1994, #163 ) ;
#592 = VECTOR ( 'NONE', #501, 1000.000000000000000 ) ;
#593 = EDGE_CURVE ( 'NONE', #307, #199, #209, .T. ) ;
#594 = DIRECTION ( 'NONE',  ( 0.000000000000000000, -1.000000000000000000, 0.000000000000000000 ) ) ;
#595 = DIRECTION ( 'NONE',  ( -0.000000000000000000, 0.000000000000000000, 1.000000000000000000 ) ) ;
#596 = EDGE_CURVE ( 'NONE', #578, #67, #310, .T. ) ;
#597 = DIRECTION ( 'NONE',  ( 0.000000000000000000, 1.000000000000000000, 0.000000000000000000 ) ) ;
#598 = B_SPLINE_CURVE_WITH_KNOTS ( 'NONE', 1,
 ( #518, #615 ),
 .UNSPECIFIED., .F., .F.,
 ( 2, 2 ),
 ( 0.000000000000000000, 1.000000000000000000 ),
 .UNSPECIFIED. ) ;
#599 = APPROVAL_DATE_TIME ( #652, #633 ) ;
#600 = DIRECTION ( 'NONE',  ( 0.000000000000000000, 0.000000000000000000, -1.000000000000000000 ) ) ;
#601 = CALENDAR_DATE ( 2023, 26, 11 ) ;
#602 = VECTOR ( 'NONE', #380, 1000.000000000000000 ) ;
#603 = CARTESIAN_POINT ( 'NONE',  ( 51.75000000000000711, -43.14000000000000767, 3.087583615125018444 ) ) ;
#604 = EDGE_CURVE ( 'NONE', #21, #482, #579, .T. ) ;
#605 = ORIENTED_EDGE ( 'NONE', *, *, #466, .F. ) ;
#606 = CARTESIAN_POINT ( 'NONE',  ( 13.99999999999999822, -32.96218446681167791, 1.910180469909309231 ) ) ;
#607 = VERTEX_POINT ( 'NONE', #630 ) ;
#608 = APPROVAL_ROLE ( '' ) ;
#609 = CARTESIAN_POINT ( 'NONE',  ( 55.45923730720195977, -42.13346654094424082, 3.219324787048271297 ) ) ;
#610 = DIRECTION ( 'NONE',  ( 1.000000000000000000, 1.224646799147352961E-16, -0.000000000000000000 ) ) ;
#611 = ORIENTED_EDGE ( 'NONE', *, *, #335, .T. ) ;
#612 = DIRECTION ( 'NONE',  ( 1.000000000000000000, 0.000000000000000000, 0.000000000000000000 ) ) ;
#613 = CARTESIAN_POINT ( 'NONE',  ( 0.000000000000000000, 0.000000000000000000, 0.000000000000000000 ) ) ;
#614 = ORIENTED_EDGE ( 'NONE', *, *, #404, .T. ) ;
#615 = CARTESIAN_POINT ( 'NONE',  ( 74.00000000000001421, -37.17371778183647990, 2.670213695008966326 ) ) ;
#616 = EDGE_CURVE ( 'NONE', #578, #71, #152, .T. ) ;
#617 = LINE ( 'NONE', #675, #304 ) ;
#618 = ORIENTED_EDGE ( 'NONE', *, *, #27, .T. ) ;
#619 = CARTESIAN_POINT ( 'NONE',  ( 51.75000000000000711, -43.12637604294373972, 3.287119045046947186 ) ) ;
#620 = CARTESIAN_POINT ( 'NONE',  ( 74.00000000000001421, -26.30000000000000782, 1.450000000000000178 ) ) ;
#621 = EDGE_LOOP ( 'NONE', ( #221, #406, #468, #527 ) ) ;
#622 = ADVANCED_BREP_SHAPE_REPRESENTATION ( 'LCD126ї64', ( #517, #515, #137 ), #544 ) ;
#623 = CARTESIAN_POINT ( 'NONE',  ( 0.000000000000000000, -26.30000000000000782, 1.450000000000000178 ) ) ;
#624 = AXIS2_PLACEMENT_3D ( 'NONE', #645, #595, #422 ) ;
#625 = B_SPLINE_SURFACE_WITH_KNOTS ( 'NONE', 1, 3, ( 
 ( #129, #559, #342, #297, #494, #37 ),
 ( #328, #538, #656, #131, #498, #32 ) ),
 .UNSPECIFIED., .F., .F., .F.,
 ( 2, 2 ),
 ( 4, 2, 4 ),
 ( 0.000000000000000000, 1.000000000000000000 ),
 ( 0.000000000000000000, 0.01151873590160715048, 0.02303747180321430096 ),
 .UNSPECIFIED. ) ;
#626 = CARTESIAN_POINT ( 'NONE',  ( 36.24999950000000126, -43.12637590910092200, 3.287119035908376397 ) ) ;
#627 = VECTOR ( 'NONE', #107, 1000.000000000000000 ) ;
#628 = EDGE_CURVE ( 'NONE', #244, #147, #148, .T. ) ;
#629 = EDGE_LOOP ( 'NONE', ( #394, #345, #672, #618, #614, #320 ) ) ;
#630 = CARTESIAN_POINT ( 'NONE',  ( 0.000000000000000000, -25.80000000000000071, 2.350000000000000089 ) ) ;
#631 = CARTESIAN_POINT ( 'NONE',  ( 14.00000000000000533, -37.17371778183715492, 2.670213695009055144 ) ) ;
#632 = ORIENTED_EDGE ( 'NONE', *, *, #427, .F. ) ;
#633 = APPROVAL ( #88, 'UNSPECIFIED' ) ;
#634 = CARTESIAN_POINT ( 'NONE',  ( 36.25000000000000711, -46.17250963955194010, 3.249999999999998224 ) ) ;
#635 = DIRECTION ( 'NONE',  ( -0.000000000000000000, -0.000000000000000000, -1.000000000000000000 ) ) ;
#636 = ORIENTED_EDGE ( 'NONE', *, *, #142, .F. ) ;
#637 = EDGE_CURVE ( 'NONE', #42, #71, #317, .T. ) ;
#638 = LINE ( 'NONE', #270, #655 ) ;
#639 = ORIENTED_EDGE ( 'NONE', *, *, #604, .F. ) ;
#640 = CARTESIAN_POINT ( 'NONE',  ( 74.00000000000001421, -32.01418708429751092, 1.947677187336349203 ) ) ;
#641 = VERTEX_POINT ( 'NONE', #575 ) ;
#642 = DIRECTION ( 'NONE',  ( 0.000000000000000000, 0.000000000000000000, 1.000000000000000000 ) ) ;
#643 = FACE_OUTER_BOUND ( 'NONE', #621, .T. ) ;
#644 = EDGE_LOOP ( 'NONE', ( #158, #636, #581, #216 ) ) ;
#645 = CARTESIAN_POINT ( 'NONE',  ( 0.000000000000000000, 0.000000000000000000, 0.000000000000000000 ) ) ;
#646 = CARTESIAN_POINT ( 'NONE',  ( 88.00000000000000000, -27.80000000000000071, 2.350000000000000089 ) ) ;
#647 = ADVANCED_FACE ( 'NONE', ( #456 ), #58, .T. ) ;
#648 = VECTOR ( 'NONE', #521, 1000.000000000000000 ) ;
#649 = VERTEX_POINT ( 'NONE', #264 ) ;
#650 = CALENDAR_DATE ( 2023, 26, 11 ) ;
#651 = DIRECTION ( 'NONE',  ( 1.000000000000000000, 0.000000000000000000, 0.000000000000000000 ) ) ;
#652 = DATE_AND_TIME ( #286, #159 ) ;
#653 = CARTESIAN_POINT ( 'NONE',  ( 14.00000000000000533, -37.17371778183715492, 2.670213695009055144 ) ) ;
#654 = EDGE_CURVE ( 'NONE', #154, #295, #59, .T. ) ;
#655 = VECTOR ( 'NONE', #321, 1000.000000000000000 ) ;
#656 = CARTESIAN_POINT ( 'NONE',  ( 28.83204481354447424, -41.15965600864964813, 2.932259858110623174 ) ) ;
#657 = ORIENTED_EDGE ( 'NONE', *, *, #564, .T. ) ;
#658 = PERSON_AND_ORGANIZATION ( #96, #533 ) ;
#659 = DIRECTION ( 'NONE',  ( -1.000000000000000000, -0.000000000000000000, -0.000000000000000000 ) ) ;
#660 = CARTESIAN_POINT ( 'NONE',  ( 36.25000000000000711, -43.14000000000000057, 3.087583615125018444 ) ) ;
#661 = B_SPLINE_CURVE_WITH_KNOTS ( 'NONE', 3,
 ( #302, #348, #573, #38 ),
 .UNSPECIFIED., .F., .F.,
 ( 4, 4 ),
 ( 0.000000000000000000, 1.000000000000000000 ),
 .UNSPECIFIED. ) ;
#662 = CARTESIAN_POINT ( 'NONE',  ( 59.16795518645541563, -41.14088540284911488, 3.131388933193465007 ) ) ;
#663 = CARTESIAN_POINT ( 'NONE',  ( 51.75000000000000711, -36.07274838444291731, 2.249999999999999112 ) ) ;
#664 = ORIENTED_EDGE ( 'NONE', *, *, #457, .T. ) ;
#665 = EDGE_CURVE ( 'NONE', #112, #295, #403, .T. ) ;
#666 = CARTESIAN_POINT ( 'NONE',  ( 88.00000000000000000, 0.000000000000000000, 0.000000000000000000 ) ) ;
#667 = FACE_OUTER_BOUND ( 'NONE', #644, .T. ) ;
#668 = ORIENTED_EDGE ( 'NONE', *, *, #335, .F. ) ;
#669 = CC_DESIGN_PERSON_AND_ORGANIZATION_ASSIGNMENT ( #658, #391, ( #432 ) ) ;
#670 = CARTESIAN_POINT ( 'NONE',  ( 3.404518101629641773E-15, -27.80000000000000071, 1.250000000000000000 ) ) ;
#671 = CARTESIAN_POINT ( 'NONE',  ( 0.000000000000000000, 0.000000000000000000, 2.350000000000000089 ) ) ;
#672 = ORIENTED_EDGE ( 'NONE', *, *, #13, .F. ) ;
#673 = CARTESIAN_POINT ( 'NONE',  ( 88.00000000000000000, 0.000000000000000000, 2.350000000000000089 ) ) ;
#674 = ADVANCED_FACE ( 'NONE', ( #12, #433 ), #268, .F. ) ;
#675 = CARTESIAN_POINT ( 'NONE',  ( 3.404518101629641773E-15, -27.80000000000000071, 1.250000000000000000 ) ) ;
ENDSEC;
END-ISO-10303-21;
