M48
;Layer_Color=9474304
;FILE_FORMAT=4:4
METRIC,LZ
;TYPE=PLATED
T1F00S00C0.2000
T2F00S00C0.3000
T3F00S00C0.4000
T4F00S00C0.6000
T5F00S00C0.8000
T6F00S00C1.0000
T7F00S00C1.1000
T8F00S00C7.0000
%
T01
X00544035Y00572965
X00557Y0057925
X0056425Y00571
X00579Y0057075
T02
X0002825Y0018625
X00038Y002355
X000675Y00236
X0007925Y0020375
X00174Y0021725
X0016725Y0022675
X0023975Y002415
X0022825Y0025375
X0023525Y003115
X00273Y00315
X0026925Y0029275
X00321Y00288
X003295Y0028275
X0034375Y00282
X003725Y0028325
X0037Y0029575
X0038275Y0030025
X0038675Y00327
Y0033575
X0036575Y0034925
X0035975Y0034325
X0035325Y0034975
X0034675Y003435
X0033425Y0034325
X00328Y003485
X0034025Y0035075
X0035025Y00231
X0036075Y00223
X0038575Y002365
X003705Y00191
X0036275Y0018175
X0035375
X003445
X0034125Y00189
X003345Y0018375
X00328Y00189
X0032175Y0018425
X0031025Y00222
X0029025Y0022175
X0029Y0021375
X0028375Y00207
X0027375Y0020075
X00266Y00194
X0031Y00243
X0033Y0009
Y0006
X0037
Y0009
X00191Y003435
X0021475Y0038175
X001365Y0036475
X0011975Y003195
X000915Y00396
X00437Y0037625
X0045375Y0037775
X0040675Y0033
X005365Y0030675
X00545Y0019
X0052
X00505Y00175
X0049Y0019
X00475Y00175
X0056
X00571Y0019
X00693555Y00227793
X0072Y00235
X0073Y0026
X0069
X0067Y0031
X0071
X0074375Y0020375
X0076875Y001155
X0077675Y00108
X0045Y0009
X0041
Y0006
X0080925Y00255
X009465Y0039375
X01049Y0030025
X01101Y0030375
X0112125Y002235
X0108925Y0043525
X01033Y00496
X0093725Y0049325
X0097375Y004435
X008185Y0046775
X009235Y00626
X009755Y006355
X00657Y00634
X00622Y006145
X0060975Y006075
X00592Y00621
X0058225Y00627
X0054025Y00634
X0059225Y00576
X0046825Y005755
X0045675Y0056475
X0043275Y004825
X004255Y0044
X004245Y0041875
X0044825Y0041825
X00732441Y00462559
X003605Y0041325
X00381Y0053425
X00176Y0051025
X00068Y0048
X0002Y005
Y0055
Y006
Y0065
Y007
Y0075
X0008
Y007
Y0065
X0014
Y007
Y0075
X002
Y007
Y0065
X0026
Y007
Y0075
X0014Y008
Y0085
Y009
Y0095
Y01
Y0105
X0008
Y01
Y0095
Y009
Y0085
Y008
X0002
Y0085
Y009
Y0095
Y01
Y0105
X0107
Y01
Y0095
Y009
Y0085
Y008
X0113
Y0085
Y009
Y0095
Y01
Y0105
X0119
Y01
Y0095
Y009
Y0085
Y008
T03
X00036Y0037775
X0015625Y0030475
X002105Y00251
X0062Y0017975
X0084325Y0021325
X0085325Y003335
X00878625Y0033225
X0089975Y0032525
X0085325Y003655
X01023Y0029
X010585Y003975
X01032Y0051
X00962Y0049
Y00545
X0085325Y0052625
X0084275Y0055725
X0084625Y00629
X009585Y00713
X010635Y00675665
X0104675Y0060175
X01127Y00629
X0113625Y006355
X0073775Y005845
X0076025Y004545
X005475Y00538
X004065Y0058975
X0042375Y006245
X0036775Y005455
X0034425Y0052
X0024175
X0026275Y00481
X002625Y0045475
X0021275Y004275
X00189Y00447
X001595Y0044
X000775Y004435
X00068Y00413
X0010925Y005005
X0010975Y00567
X00187Y005255
X0018875Y0050375
X0020575Y0059775
T04
X011515Y0021365
X011642
Y0022635
Y0023905
Y0025175
X011515
Y0023905
Y0022635
T05
X0043Y0034
X004554
X0004125Y0043525
X0001375
T06
X0055925Y00034
X0058425
X0069425Y0004875
X0071925
X0074425
T07
X0017165Y000946
Y0012
X0019705
X0022245
X0024785
X0027325
Y000946
X0024785
X0022245
X0019705
X0011725Y00197307
Y00222707
Y00248107
Y00273507
X00073358Y00291407
X00047958
X0114975Y0039885
X0117515
Y0042425
X0114975
Y0044965
X0117515
Y0047505
Y0050045
Y0052585
Y0055125
X0114975
Y0052585
Y0050045
Y0047505
X00495Y004704
X004696
Y00445
Y004196
X00495
Y00445
T08
X00055Y00055
X01155
X00605Y00445
X00055Y01155
X01155
M30
