ISO-10303-21;
HEADER;

/* File generated by T-FLEX CAD Version 17.0.85.0 */

FILE_DESCRIPTION(('TFLEX Exchange Step'),'2;1');

FILE_NAME('X2\042104120420\X0\20\X2\0421\X0\.02.07.000 \X2\041C04300433043D04380442043D0430044F\X0\ \X2\043B0438043D04350439043A0430\X0\.stp',                                     
'2023-06-26T15:41:51+04:00',
('Kostya Samygin'),
('Unknown organisation'),
'TFLEX Exchange 2023.0',
'T-FLEX CAD',
'Unknown authorisation');

FILE_SCHEMA( ('AP242_MANAGED_MODEL_BASED_3D_ENGINEERING_MIM_LF {1 0 10303 442 1 1 4 }') );

ENDSEC;

DATA;
#3=(NAMED_UNIT(*)PLANE_ANGLE_UNIT()SI_UNIT($,.RADIAN.));
#4=PLANE_ANGLE_MEASURE_WITH_UNIT(PLANE_ANGLE_MEASURE(0.0174532925),#3);
#5=(CONVERSION_BASED_UNIT('DEGREE',#4)NAMED_UNIT(#6)PLANE_ANGLE_UNIT());
#6=DIMENSIONAL_EXPONENTS(0.,0.,0.,0.,0.,0.,0.);
#7=(NAMED_UNIT(*)SI_UNIT($,.STERADIAN.)SOLID_ANGLE_UNIT());
#8=(LENGTH_UNIT()NAMED_UNIT(*)SI_UNIT(.MILLI.,.METRE.));
#9=UNCERTAINTY_MEASURE_WITH_UNIT(LENGTH_MEASURE(1.000000E-03),#8,'DISTANCE_ACCURACY_VALUE','Maximum Tolerance applied to model');
#10=(GEOMETRIC_REPRESENTATION_CONTEXT(3)GLOBAL_UNCERTAINTY_ASSIGNED_CONTEXT((#9))GLOBAL_UNIT_ASSIGNED_CONTEXT((#8,#5,#7))REPRESENTATION_CONTEXT('','\X2\042104120420\X0\20\X2\0421\X0\.02.07.000 \X2\041C04300433043D04380442043D0430044F\X0\ \X2\043B0438043D04350439043A0430\X0\'));
#12=CARTESIAN_POINT('',(0.,0.,0.));
#13=DIRECTION('',(0.,0.,1.));
#14=DIRECTION('',(1.,0.,0.));
#15=AXIS2_PLACEMENT_3D('',#12,#13,#14);
#26=(NAMED_UNIT(*)PLANE_ANGLE_UNIT()SI_UNIT($,.RADIAN.));
#27=PLANE_ANGLE_MEASURE_WITH_UNIT(PLANE_ANGLE_MEASURE(0.0174532925),#26);
#28=(CONVERSION_BASED_UNIT('DEGREE',#27)NAMED_UNIT(#29)PLANE_ANGLE_UNIT());
#29=DIMENSIONAL_EXPONENTS(0.,0.,0.,0.,0.,0.,0.);
#30=(NAMED_UNIT(*)SI_UNIT($,.STERADIAN.)SOLID_ANGLE_UNIT());
#31=(LENGTH_UNIT()NAMED_UNIT(*)SI_UNIT(.MILLI.,.METRE.));
#32=UNCERTAINTY_MEASURE_WITH_UNIT(LENGTH_MEASURE(1.000000E-05),#31,'DISTANCE_ACCURACY_VALUE','Maximum Tolerance applied to model');
#33=(GEOMETRIC_REPRESENTATION_CONTEXT(3)GLOBAL_UNCERTAINTY_ASSIGNED_CONTEXT((#32))GLOBAL_UNIT_ASSIGNED_CONTEXT((#31,#28,#30))REPRESENTATION_CONTEXT('','3D \X2\0444044004300433043C0435043D0442\X0\_2'));
#45=CARTESIAN_POINT('',(0.,2.,0.));
#46=DIRECTION('',(0.,0.,1.));
#47=DIRECTION('',(1.,0.,-0.));
#48=AXIS2_PLACEMENT_3D('',#45,#46,#47);
#49=ITEM_DEFINED_TRANSFORMATION('','',#48,#15);
#50=(REPRESENTATION_RELATIONSHIP('','',#35,#16)REPRESENTATION_RELATIONSHIP_WITH_TRANSFORMATION(#49)SHAPE_REPRESENTATION_RELATIONSHIP());
#51=NEXT_ASSEMBLY_USAGE_OCCURRENCE('3D \X2\0444044004300433043C0435043D0442\X0\_2_1','3D \X2\0444044004300433043C0435043D0442\X0\_2','3D \X2\0444044004300433043C0435043D0442\X0\_2',#25,#44,$);
#52=PRODUCT_DEFINITION_SHAPE('','',#51);
#53=CONTEXT_DEPENDENT_SHAPE_REPRESENTATION(#50,#52);
#55=CARTESIAN_POINT('',(0.,1.3,10.));
#56=DIRECTION('',(-0.,0.,1.));
#57=DIRECTION('',(1.,0.,0.));
#58=AXIS2_PLACEMENT_3D('',#55,#56,#57);
#59=PLANE('',#58);
#60=CARTESIAN_POINT('',(0.,0.,10.));
#61=VERTEX_POINT('',#60);
#62=CARTESIAN_POINT('',(-110.,0.,10.));
#63=VERTEX_POINT('',#62);
#64=CARTESIAN_POINT('',(0.,0.,10.));
#65=DIRECTION('',(-1.,0.,-0.));
#66=VECTOR('',#65,110.);
#67=LINE('',#64,#66);
#68=EDGE_CURVE('',#61,#63,#67,.T.);
#69=ORIENTED_EDGE('',*,*,#68,.F.);
#70=CARTESIAN_POINT('',(0.,1.3,10.));
#71=VERTEX_POINT('',#70);
#72=CARTESIAN_POINT('',(0.,1.3,10.));
#73=DIRECTION('',(0.,-1.,0.));
#74=VECTOR('',#73,1.3);
#75=LINE('',#72,#74);
#76=EDGE_CURVE('',#71,#61,#75,.T.);
#77=ORIENTED_EDGE('',*,*,#76,.F.);
#78=CARTESIAN_POINT('',(-110.,1.3,10.));
#79=VERTEX_POINT('',#78);
#80=CARTESIAN_POINT('',(0.,1.3,10.));
#81=DIRECTION('',(-1.,0.,-0.));
#82=VECTOR('',#81,110.);
#83=LINE('',#80,#82);
#84=EDGE_CURVE('',#71,#79,#83,.T.);
#85=ORIENTED_EDGE('',*,*,#84,.T.);
#86=CARTESIAN_POINT('',(-110.,1.3,10.));
#87=DIRECTION('',(0.,-1.,0.));
#88=VECTOR('',#87,1.3);
#89=LINE('',#86,#88);
#90=EDGE_CURVE('',#79,#63,#89,.T.);
#91=ORIENTED_EDGE('',*,*,#90,.T.);
#92=EDGE_LOOP('',(#69,#77,#85,#91));
#93=FACE_BOUND('',#92,.T.);
#94=ADVANCED_FACE('',(#93),#59,.T.);
#95=CARTESIAN_POINT('',(0.,1.3,0.));
#96=DIRECTION('',(1.,0.,0.));
#97=DIRECTION('',(0.,0.,-1.));
#98=AXIS2_PLACEMENT_3D('',#95,#96,#97);
#99=PLANE('',#98);
#100=CARTESIAN_POINT('',(0.,0.,0.));
#101=VERTEX_POINT('',#100);
#102=CARTESIAN_POINT('',(0.,0.,0.));
#103=DIRECTION('',(0.,0.,1.));
#104=VECTOR('',#103,10.);
#105=LINE('',#102,#104);
#106=EDGE_CURVE('',#101,#61,#105,.T.);
#107=ORIENTED_EDGE('',*,*,#106,.F.);
#108=CARTESIAN_POINT('',(0.,1.3,0.));
#109=VERTEX_POINT('',#108);
#110=CARTESIAN_POINT('',(0.,1.3,0.));
#111=DIRECTION('',(0.,-1.,0.));
#112=VECTOR('',#111,1.3);
#113=LINE('',#110,#112);
#114=EDGE_CURVE('',#109,#101,#113,.T.);
#115=ORIENTED_EDGE('',*,*,#114,.F.);
#116=CARTESIAN_POINT('',(0.,1.3,0.));
#117=DIRECTION('',(0.,0.,1.));
#118=VECTOR('',#117,10.);
#119=LINE('',#116,#118);
#120=EDGE_CURVE('',#109,#71,#119,.T.);
#121=ORIENTED_EDGE('',*,*,#120,.T.);
#122=ORIENTED_EDGE('',*,*,#76,.T.);
#123=EDGE_LOOP('',(#107,#115,#121,#122));
#124=FACE_BOUND('',#123,.T.);
#125=ADVANCED_FACE('',(#124),#99,.T.);
#126=CARTESIAN_POINT('',(-110.,1.3,0.));
#127=DIRECTION('',(0.,0.,-1.));
#128=DIRECTION('',(-1.,0.,0.));
#129=AXIS2_PLACEMENT_3D('',#126,#127,#128);
#130=PLANE('',#129);
#131=CARTESIAN_POINT('',(-110.,0.,0.));
#132=VERTEX_POINT('',#131);
#133=CARTESIAN_POINT('',(-110.,0.,0.));
#134=DIRECTION('',(1.,0.,-0.));
#135=VECTOR('',#134,110.);
#136=LINE('',#133,#135);
#137=EDGE_CURVE('',#132,#101,#136,.T.);
#138=ORIENTED_EDGE('',*,*,#137,.F.);
#139=CARTESIAN_POINT('',(-110.,1.3,0.));
#140=VERTEX_POINT('',#139);
#141=CARTESIAN_POINT('',(-110.,1.3,0.));
#142=DIRECTION('',(0.,-1.,0.));
#143=VECTOR('',#142,1.3);
#144=LINE('',#141,#143);
#145=EDGE_CURVE('',#140,#132,#144,.T.);
#146=ORIENTED_EDGE('',*,*,#145,.F.);
#147=CARTESIAN_POINT('',(-110.,1.3,0.));
#148=DIRECTION('',(1.,0.,-0.));
#149=VECTOR('',#148,110.);
#150=LINE('',#147,#149);
#151=EDGE_CURVE('',#140,#109,#150,.T.);
#152=ORIENTED_EDGE('',*,*,#151,.T.);
#153=ORIENTED_EDGE('',*,*,#114,.T.);
#154=EDGE_LOOP('',(#138,#146,#152,#153));
#155=FACE_BOUND('',#154,.T.);
#156=ADVANCED_FACE('',(#155),#130,.T.);
#157=CARTESIAN_POINT('',(-110.,1.3,10.));
#158=DIRECTION('',(-1.,0.,0.));
#159=DIRECTION('',(0.,0.,1.));
#160=AXIS2_PLACEMENT_3D('',#157,#158,#159);
#161=PLANE('',#160);
#162=CARTESIAN_POINT('',(-110.,0.,10.));
#163=DIRECTION('',(0.,0.,-1.));
#164=VECTOR('',#163,10.);
#165=LINE('',#162,#164);
#166=EDGE_CURVE('',#63,#132,#165,.T.);
#167=ORIENTED_EDGE('',*,*,#166,.F.);
#168=ORIENTED_EDGE('',*,*,#90,.F.);
#169=CARTESIAN_POINT('',(-110.,1.3,10.));
#170=DIRECTION('',(0.,0.,-1.));
#171=VECTOR('',#170,10.);
#172=LINE('',#169,#171);
#173=EDGE_CURVE('',#79,#140,#172,.T.);
#174=ORIENTED_EDGE('',*,*,#173,.T.);
#175=ORIENTED_EDGE('',*,*,#145,.T.);
#176=EDGE_LOOP('',(#167,#168,#174,#175));
#177=FACE_BOUND('',#176,.T.);
#178=ADVANCED_FACE('',(#177),#161,.T.);
#179=CARTESIAN_POINT('',(0.,1.3,0.));
#180=DIRECTION('',(0.,-1.,0.));
#181=DIRECTION('',(1.,0.,0.));
#182=AXIS2_PLACEMENT_3D('',#179,#180,#181);
#183=PLANE('',#182);
#184=ORIENTED_EDGE('',*,*,#84,.F.);
#185=ORIENTED_EDGE('',*,*,#120,.F.);
#186=ORIENTED_EDGE('',*,*,#151,.F.);
#187=ORIENTED_EDGE('',*,*,#173,.F.);
#188=EDGE_LOOP('',(#184,#185,#186,#187));
#189=FACE_BOUND('',#188,.T.);
#190=ADVANCED_FACE('',(#189),#183,.F.);
#191=CARTESIAN_POINT('',(0.,0.,0.));
#192=DIRECTION('',(0.,-1.,0.));
#193=DIRECTION('',(1.,0.,0.));
#194=AXIS2_PLACEMENT_3D('',#191,#192,#193);
#195=PLANE('',#194);
#196=ORIENTED_EDGE('',*,*,#68,.T.);
#197=ORIENTED_EDGE('',*,*,#166,.T.);
#198=ORIENTED_EDGE('',*,*,#137,.T.);
#199=ORIENTED_EDGE('',*,*,#106,.T.);
#200=EDGE_LOOP('',(#196,#197,#198,#199));
#201=FACE_BOUND('',#200,.T.);
#202=ADVANCED_FACE('',(#201),#195,.T.);
#203=CLOSED_SHELL('',(#94,#125,#156,#178,#190,#202));
#204=MANIFOLD_SOLID_BREP('3D \X2\0444044004300433043C0435043D0442\X0\_2',#203);
#205=COLOUR_RGB('',0.266666681,0.270588249,0.282352954);
#206=FILL_AREA_STYLE_COLOUR('',#205);
#207=FILL_AREA_STYLE('',(#206));
#208=SURFACE_STYLE_FILL_AREA(#207);
#209=SURFACE_SIDE_STYLE('',(#208));
#210=SURFACE_STYLE_USAGE(.BOTH.,#209);
#211=PRESENTATION_STYLE_ASSIGNMENT((#210));
#54=STYLED_ITEM('',(#211),#204);
#212=DERIVED_UNIT_ELEMENT(#31,3.0);
#213=DERIVED_UNIT((#212));
#214=MEASURE_REPRESENTATION_ITEM('volume measure',VOLUME_MEASURE(1429.999948),#213);
#215=DERIVED_UNIT_ELEMENT(#31,2.0);
#216=DERIVED_UNIT((#215));
#217=MEASURE_REPRESENTATION_ITEM('surface area measure',AREA_MEASURE(2511.999989),#216);
#218=CARTESIAN_POINT('centre point',(-55.,0.649999976,5.));
#219=CARTESIAN_POINT('bounding box corner point',(-109.999999404,0.,0.));
#220=CARTESIAN_POINT('bounding box corner point',(0.,1.300000004,9.999999776));
#221=ID_ATTRIBUTE('SA #222',#222);
#222=SHAPE_ASPECT('properties','',#42,.F.);
#223=GEOMETRIC_ITEM_SPECIFIC_USAGE('','properties',#222,#36,#204);
#224=PROPERTY_DEFINITION('geometric validation property','',#222);
#225=REPRESENTATION('',(#214,#217,#218,#219,#220),#33);
#226=PROPERTY_DEFINITION_REPRESENTATION(#224,#225);
#35=SHAPE_REPRESENTATION('3D \X2\0444044004300433043C0435043D0442\X0\_2',(#15),#33);
#36=ADVANCED_BREP_SHAPE_REPRESENTATION('3D \X2\0444044004300433043C0435043D0442\X0\_2',(#204),#33);
#234=SHAPE_REPRESENTATION_RELATIONSHIP('','',#35,#36);
#235=CARTESIAN_POINT('',(0.,0.,0.));
#236=DIRECTION('',(0.,0.,1.));
#237=DIRECTION('',(1.,0.,0.));
#238=AXIS2_PLACEMENT_3D('',#235,#236,#237);
#240=MAPPED_ITEM('',#239,#238);
#239=REPRESENTATION_MAP(#238,#35);
#241=APPLICATION_CONTEXT('Managed model based 3d engineering');
#242=APPLICATION_PROTOCOL_DEFINITION('international standard','ap242_managed_model_based_3d_engineering',2013,#241);
#243=PRODUCT_CONTEXT('',#241,'mechanical');
#244=PRODUCT_DEFINITION_CONTEXT('part definition',#241,'design');
#43=PRODUCT('3D \X2\0444044004300433043C0435043D0442\X0\_2','3D \X2\0444044004300433043C0435043D0442\X0\_2','',(#243));
#245=PRODUCT_RELATED_PRODUCT_CATEGORY('part','',(#43));
#246=PRODUCT_DEFINITION_FORMATION_WITH_SPECIFIED_SOURCE('','',#43,.NOT_KNOWN.);
#44=PRODUCT_DEFINITION('design','',#246,#244);
#42=PRODUCT_DEFINITION_SHAPE('','',#44);
#247=SHAPE_DEFINITION_REPRESENTATION(#42,#35);
#34=DRAUGHTING_MODEL('',(#240),#33);
#248=DERIVED_UNIT_ELEMENT(#31,3.0);
#249=DERIVED_UNIT((#248));
#250=MEASURE_REPRESENTATION_ITEM('volume measure',VOLUME_MEASURE(1429.999948),#249);
#251=DERIVED_UNIT_ELEMENT(#31,2.0);
#252=DERIVED_UNIT((#251));
#253=MEASURE_REPRESENTATION_ITEM('surface area measure',AREA_MEASURE(2511.999989),#252);
#254=CARTESIAN_POINT('centre point',(-55.,0.649999976,5.));
#255=CARTESIAN_POINT('bounding box corner point',(-109.999999404,0.,0.));
#256=CARTESIAN_POINT('bounding box corner point',(0.,1.300000004,9.999999776));
#257=PROPERTY_DEFINITION('geometric validation property','',#44);
#258=REPRESENTATION('',(#250,#253,#254,#255,#256),#33);
#259=PROPERTY_DEFINITION_REPRESENTATION(#257,#258);
#260=(NAMED_UNIT(*)PLANE_ANGLE_UNIT()SI_UNIT($,.RADIAN.));
#261=PLANE_ANGLE_MEASURE_WITH_UNIT(PLANE_ANGLE_MEASURE(0.0174532925),#260);
#262=(CONVERSION_BASED_UNIT('DEGREE',#261)NAMED_UNIT(#263)PLANE_ANGLE_UNIT());
#263=DIMENSIONAL_EXPONENTS(0.,0.,0.,0.,0.,0.,0.);
#264=(NAMED_UNIT(*)SI_UNIT($,.STERADIAN.)SOLID_ANGLE_UNIT());
#265=(LENGTH_UNIT()NAMED_UNIT(*)SI_UNIT(.MILLI.,.METRE.));
#266=UNCERTAINTY_MEASURE_WITH_UNIT(LENGTH_MEASURE(1.000000E-05),#265,'DISTANCE_ACCURACY_VALUE','Maximum Tolerance applied to model');
#267=(GEOMETRIC_REPRESENTATION_CONTEXT(3)GLOBAL_UNCERTAINTY_ASSIGNED_CONTEXT((#266))GLOBAL_UNIT_ASSIGNED_CONTEXT((#265,#262,#264))REPRESENTATION_CONTEXT('','3D \X2\0444044004300433043C0435043D0442\X0\_1'));
#279=CARTESIAN_POINT('',(0.,0.,0.));
#280=DIRECTION('',(0.,0.,1.));
#281=DIRECTION('',(1.,0.,-0.));
#282=AXIS2_PLACEMENT_3D('',#279,#280,#281);
#283=ITEM_DEFINED_TRANSFORMATION('','',#282,#15);
#284=(REPRESENTATION_RELATIONSHIP('','',#269,#16)REPRESENTATION_RELATIONSHIP_WITH_TRANSFORMATION(#283)SHAPE_REPRESENTATION_RELATIONSHIP());
#285=NEXT_ASSEMBLY_USAGE_OCCURRENCE('3D \X2\0444044004300433043C0435043D0442\X0\_1_2','3D \X2\0444044004300433043C0435043D0442\X0\_1','3D \X2\0444044004300433043C0435043D0442\X0\_1',#25,#278,$);
#286=PRODUCT_DEFINITION_SHAPE('','',#285);
#287=CONTEXT_DEPENDENT_SHAPE_REPRESENTATION(#284,#286);
#289=CARTESIAN_POINT('',(-110.,2.,0.));
#290=DIRECTION('',(0.,0.,-1.));
#291=DIRECTION('',(-1.,0.,0.));
#292=AXIS2_PLACEMENT_3D('',#289,#290,#291);
#293=PLANE('',#292);
#294=CARTESIAN_POINT('',(-110.,0.,0.));
#295=VERTEX_POINT('',#294);
#296=CARTESIAN_POINT('',(0.,0.,0.));
#297=VERTEX_POINT('',#296);
#298=CARTESIAN_POINT('',(-110.,0.,0.));
#299=DIRECTION('',(1.,0.,-0.));
#300=VECTOR('',#299,110.);
#301=LINE('',#298,#300);
#302=EDGE_CURVE('',#295,#297,#301,.T.);
#303=ORIENTED_EDGE('',*,*,#302,.F.);
#304=CARTESIAN_POINT('',(-110.,2.,0.));
#305=VERTEX_POINT('',#304);
#306=CARTESIAN_POINT('',(-110.,2.,0.));
#307=DIRECTION('',(0.,-1.,0.));
#308=VECTOR('',#307,2.);
#309=LINE('',#306,#308);
#310=EDGE_CURVE('',#305,#295,#309,.T.);
#311=ORIENTED_EDGE('',*,*,#310,.F.);
#312=CARTESIAN_POINT('',(0.,2.,0.));
#313=VERTEX_POINT('',#312);
#314=CARTESIAN_POINT('',(-110.,2.,0.));
#315=DIRECTION('',(1.,0.,-0.));
#316=VECTOR('',#315,110.);
#317=LINE('',#314,#316);
#318=EDGE_CURVE('',#305,#313,#317,.T.);
#319=ORIENTED_EDGE('',*,*,#318,.T.);
#320=CARTESIAN_POINT('',(0.,2.,0.));
#321=DIRECTION('',(0.,-1.,0.));
#322=VECTOR('',#321,2.);
#323=LINE('',#320,#322);
#324=EDGE_CURVE('',#313,#297,#323,.T.);
#325=ORIENTED_EDGE('',*,*,#324,.T.);
#326=EDGE_LOOP('',(#303,#311,#319,#325));
#327=FACE_BOUND('',#326,.T.);
#328=ADVANCED_FACE('',(#327),#293,.T.);
#329=CARTESIAN_POINT('',(-110.,2.,40.));
#330=DIRECTION('',(-1.,0.,0.));
#331=DIRECTION('',(0.,0.,1.));
#332=AXIS2_PLACEMENT_3D('',#329,#330,#331);
#333=PLANE('',#332);
#334=CARTESIAN_POINT('',(-110.,0.,40.));
#335=VERTEX_POINT('',#334);
#336=CARTESIAN_POINT('',(-110.,0.,40.));
#337=DIRECTION('',(0.,0.,-1.));
#338=VECTOR('',#337,40.);
#339=LINE('',#336,#338);
#340=EDGE_CURVE('',#335,#295,#339,.T.);
#341=ORIENTED_EDGE('',*,*,#340,.F.);
#342=CARTESIAN_POINT('',(-110.,2.,40.));
#343=VERTEX_POINT('',#342);
#344=CARTESIAN_POINT('',(-110.,2.,40.));
#345=DIRECTION('',(0.,-1.,0.));
#346=VECTOR('',#345,2.);
#347=LINE('',#344,#346);
#348=EDGE_CURVE('',#343,#335,#347,.T.);
#349=ORIENTED_EDGE('',*,*,#348,.F.);
#350=CARTESIAN_POINT('',(-110.,2.,40.));
#351=DIRECTION('',(0.,0.,-1.));
#352=VECTOR('',#351,40.);
#353=LINE('',#350,#352);
#354=EDGE_CURVE('',#343,#305,#353,.T.);
#355=ORIENTED_EDGE('',*,*,#354,.T.);
#356=ORIENTED_EDGE('',*,*,#310,.T.);
#357=EDGE_LOOP('',(#341,#349,#355,#356));
#358=FACE_BOUND('',#357,.T.);
#359=ADVANCED_FACE('',(#358),#333,.T.);
#360=CARTESIAN_POINT('',(0.,2.,40.));
#361=DIRECTION('',(0.,0.,1.));
#362=DIRECTION('',(1.,0.,0.));
#363=AXIS2_PLACEMENT_3D('',#360,#361,#362);
#364=PLANE('',#363);
#365=CARTESIAN_POINT('',(0.,0.,40.));
#366=VERTEX_POINT('',#365);
#367=CARTESIAN_POINT('',(0.,0.,40.));
#368=DIRECTION('',(-1.,0.,0.));
#369=VECTOR('',#368,110.);
#370=LINE('',#367,#369);
#371=EDGE_CURVE('',#366,#335,#370,.T.);
#372=ORIENTED_EDGE('',*,*,#371,.F.);
#373=CARTESIAN_POINT('',(0.,2.,40.));
#374=VERTEX_POINT('',#373);
#375=CARTESIAN_POINT('',(0.,2.,40.));
#376=DIRECTION('',(0.,-1.,0.));
#377=VECTOR('',#376,2.);
#378=LINE('',#375,#377);
#379=EDGE_CURVE('',#374,#366,#378,.T.);
#380=ORIENTED_EDGE('',*,*,#379,.F.);
#381=CARTESIAN_POINT('',(0.,2.,40.));
#382=DIRECTION('',(-1.,0.,0.));
#383=VECTOR('',#382,110.);
#384=LINE('',#381,#383);
#385=EDGE_CURVE('',#374,#343,#384,.T.);
#386=ORIENTED_EDGE('',*,*,#385,.T.);
#387=ORIENTED_EDGE('',*,*,#348,.T.);
#388=EDGE_LOOP('',(#372,#380,#386,#387));
#389=FACE_BOUND('',#388,.T.);
#390=ADVANCED_FACE('',(#389),#364,.T.);
#391=CARTESIAN_POINT('',(-83.,2.,27.));
#392=DIRECTION('',(0.,-1.,0.));
#393=DIRECTION('',(0.,0.,-1.));
#394=AXIS2_PLACEMENT_3D('',#391,#392,#393);
#395=CYLINDRICAL_SURFACE('',#394,2.7);
#396=CARTESIAN_POINT('',(-83.,0.,24.3));
#397=VERTEX_POINT('',#396);
#398=CARTESIAN_POINT('',(-83.,2.,24.3));
#399=VERTEX_POINT('',#398);
#400=CARTESIAN_POINT('',(-83.,0.,24.3));
#401=DIRECTION('',(-0.,1.,-0.));
#402=VECTOR('',#401,2.);
#403=LINE('',#400,#402);
#404=EDGE_CURVE('',#397,#399,#403,.T.);
#405=ORIENTED_EDGE('',*,*,#404,.F.);
#406=CARTESIAN_POINT('',(-85.7,0.,27.));
#407=VERTEX_POINT('',#406);
#408=CARTESIAN_POINT('',(-83.,0.,27.));
#409=DIRECTION('',(0.,1.,0.));
#410=DIRECTION('',(-1.,0.,0.));
#411=AXIS2_PLACEMENT_3D('',#408,#409,#410);
#412=CIRCLE('',#411,2.7);
#413=EDGE_CURVE('',#407,#397,#412,.T.);
#414=ORIENTED_EDGE('',*,*,#413,.F.);
#415=CARTESIAN_POINT('',(-85.7,2.,27.));
#416=VERTEX_POINT('',#415);
#417=CARTESIAN_POINT('',(-85.7,2.,27.));
#418=DIRECTION('',(0.,-1.,0.));
#419=VECTOR('',#418,2.);
#420=LINE('',#417,#419);
#421=EDGE_CURVE('',#416,#407,#420,.T.);
#422=ORIENTED_EDGE('',*,*,#421,.F.);
#423=CARTESIAN_POINT('',(-83.,2.,27.));
#424=DIRECTION('',(0.,1.,0.));
#425=DIRECTION('',(-1.,0.,0.));
#426=AXIS2_PLACEMENT_3D('',#423,#424,#425);
#427=CIRCLE('',#426,2.7);
#428=EDGE_CURVE('',#416,#399,#427,.T.);
#429=ORIENTED_EDGE('',*,*,#428,.T.);
#430=EDGE_LOOP('',(#405,#414,#422,#429));
#431=FACE_BOUND('',#430,.T.);
#432=ADVANCED_FACE('',(#431),#395,.F.);
#433=CARTESIAN_POINT('',(0.,2.,0.));
#434=DIRECTION('',(1.,0.,0.));
#435=DIRECTION('',(0.,0.,-1.));
#436=AXIS2_PLACEMENT_3D('',#433,#434,#435);
#437=PLANE('',#436);
#438=CARTESIAN_POINT('',(0.,0.,0.));
#439=DIRECTION('',(0.,0.,1.));
#440=VECTOR('',#439,40.);
#441=LINE('',#438,#440);
#442=EDGE_CURVE('',#297,#366,#441,.T.);
#443=ORIENTED_EDGE('',*,*,#442,.F.);
#444=ORIENTED_EDGE('',*,*,#324,.F.);
#445=CARTESIAN_POINT('',(0.,2.,0.));
#446=DIRECTION('',(0.,0.,1.));
#447=VECTOR('',#446,40.);
#448=LINE('',#445,#447);
#449=EDGE_CURVE('',#313,#374,#448,.T.);
#450=ORIENTED_EDGE('',*,*,#449,.T.);
#451=ORIENTED_EDGE('',*,*,#379,.T.);
#452=EDGE_LOOP('',(#443,#444,#450,#451));
#453=FACE_BOUND('',#452,.T.);
#454=ADVANCED_FACE('',(#453),#437,.T.);
#455=CARTESIAN_POINT('',(-98.,2.,27.));
#456=DIRECTION('',(0.,-1.,0.));
#457=DIRECTION('',(0.,0.,-1.));
#458=AXIS2_PLACEMENT_3D('',#455,#456,#457);
#459=CYLINDRICAL_SURFACE('',#458,2.7);
#460=CARTESIAN_POINT('',(-98.,0.,24.3));
#461=VERTEX_POINT('',#460);
#462=CARTESIAN_POINT('',(-98.,2.,24.3));
#463=VERTEX_POINT('',#462);
#464=CARTESIAN_POINT('',(-98.,0.,24.3));
#465=DIRECTION('',(-0.,1.,-0.));
#466=VECTOR('',#465,2.);
#467=LINE('',#464,#466);
#468=EDGE_CURVE('',#461,#463,#467,.T.);
#469=ORIENTED_EDGE('',*,*,#468,.F.);
#470=CARTESIAN_POINT('',(-100.7,0.,27.));
#471=VERTEX_POINT('',#470);
#472=CARTESIAN_POINT('',(-98.,0.,27.));
#473=DIRECTION('',(0.,1.,0.));
#474=DIRECTION('',(-1.,0.,0.));
#475=AXIS2_PLACEMENT_3D('',#472,#473,#474);
#476=CIRCLE('',#475,2.7);
#477=EDGE_CURVE('',#471,#461,#476,.T.);
#478=ORIENTED_EDGE('',*,*,#477,.F.);
#479=CARTESIAN_POINT('',(-100.7,2.,27.));
#480=VERTEX_POINT('',#479);
#481=CARTESIAN_POINT('',(-100.7,2.,27.));
#482=DIRECTION('',(0.,-1.,0.));
#483=VECTOR('',#482,2.);
#484=LINE('',#481,#483);
#485=EDGE_CURVE('',#480,#471,#484,.T.);
#486=ORIENTED_EDGE('',*,*,#485,.F.);
#487=CARTESIAN_POINT('',(-98.,2.,27.));
#488=DIRECTION('',(0.,1.,0.));
#489=DIRECTION('',(-1.,0.,0.));
#490=AXIS2_PLACEMENT_3D('',#487,#488,#489);
#491=CIRCLE('',#490,2.7);
#492=EDGE_CURVE('',#480,#463,#491,.T.);
#493=ORIENTED_EDGE('',*,*,#492,.T.);
#494=EDGE_LOOP('',(#469,#478,#486,#493));
#495=FACE_BOUND('',#494,.T.);
#496=ADVANCED_FACE('',(#495),#459,.F.);
#497=CARTESIAN_POINT('',(0.,2.,0.));
#498=DIRECTION('',(0.,1.,0.));
#499=DIRECTION('',(-1.,0.,0.));
#500=AXIS2_PLACEMENT_3D('',#497,#498,#499);
#501=PLANE('',#500);
#502=ORIENTED_EDGE('',*,*,#318,.F.);
#503=ORIENTED_EDGE('',*,*,#354,.F.);
#504=ORIENTED_EDGE('',*,*,#385,.F.);
#505=ORIENTED_EDGE('',*,*,#449,.F.);
#506=EDGE_LOOP('',(#502,#503,#504,#505));
#507=FACE_BOUND('',#506,.T.);
#508=CARTESIAN_POINT('',(-83.,2.,27.));
#509=DIRECTION('',(0.,1.,0.));
#510=DIRECTION('',(-1.,0.,0.));
#511=AXIS2_PLACEMENT_3D('',#508,#509,#510);
#512=CIRCLE('',#511,2.7);
#513=EDGE_CURVE('',#399,#416,#512,.T.);
#514=ORIENTED_EDGE('',*,*,#513,.F.);
#515=ORIENTED_EDGE('',*,*,#428,.F.);
#516=EDGE_LOOP('',(#514,#515));
#517=FACE_BOUND('',#516,.T.);
#518=CARTESIAN_POINT('',(-98.,2.,27.));
#519=DIRECTION('',(0.,1.,0.));
#520=DIRECTION('',(-1.,0.,0.));
#521=AXIS2_PLACEMENT_3D('',#518,#519,#520);
#522=CIRCLE('',#521,2.7);
#523=EDGE_CURVE('',#463,#480,#522,.T.);
#524=ORIENTED_EDGE('',*,*,#523,.F.);
#525=ORIENTED_EDGE('',*,*,#492,.F.);
#526=EDGE_LOOP('',(#524,#525));
#527=FACE_BOUND('',#526,.T.);
#528=ADVANCED_FACE('',(#507,#517,#527),#501,.T.);
#529=CARTESIAN_POINT('',(0.,0.,0.));
#530=DIRECTION('',(0.,1.,0.));
#531=DIRECTION('',(-1.,0.,0.));
#532=AXIS2_PLACEMENT_3D('',#529,#530,#531);
#533=PLANE('',#532);
#534=ORIENTED_EDGE('',*,*,#302,.T.);
#535=ORIENTED_EDGE('',*,*,#442,.T.);
#536=ORIENTED_EDGE('',*,*,#371,.T.);
#537=ORIENTED_EDGE('',*,*,#340,.T.);
#538=EDGE_LOOP('',(#534,#535,#536,#537));
#539=FACE_BOUND('',#538,.T.);
#540=ORIENTED_EDGE('',*,*,#413,.T.);
#541=CARTESIAN_POINT('',(-83.,0.,27.));
#542=DIRECTION('',(0.,1.,0.));
#543=DIRECTION('',(-1.,0.,0.));
#544=AXIS2_PLACEMENT_3D('',#541,#542,#543);
#545=CIRCLE('',#544,2.7);
#546=EDGE_CURVE('',#397,#407,#545,.T.);
#547=ORIENTED_EDGE('',*,*,#546,.T.);
#548=EDGE_LOOP('',(#540,#547));
#549=FACE_BOUND('',#548,.T.);
#550=ORIENTED_EDGE('',*,*,#477,.T.);
#551=CARTESIAN_POINT('',(-98.,0.,27.));
#552=DIRECTION('',(0.,1.,0.));
#553=DIRECTION('',(-1.,0.,0.));
#554=AXIS2_PLACEMENT_3D('',#551,#552,#553);
#555=CIRCLE('',#554,2.7);
#556=EDGE_CURVE('',#461,#471,#555,.T.);
#557=ORIENTED_EDGE('',*,*,#556,.T.);
#558=EDGE_LOOP('',(#550,#557));
#559=FACE_BOUND('',#558,.T.);
#560=ADVANCED_FACE('',(#539,#549,#559),#533,.F.);
#561=CARTESIAN_POINT('',(-83.,2.,27.));
#562=DIRECTION('',(0.,-1.,0.));
#563=DIRECTION('',(0.,0.,-1.));
#564=AXIS2_PLACEMENT_3D('',#561,#562,#563);
#565=CYLINDRICAL_SURFACE('',#564,2.7);
#566=ORIENTED_EDGE('',*,*,#404,.T.);
#567=ORIENTED_EDGE('',*,*,#513,.T.);
#568=ORIENTED_EDGE('',*,*,#421,.T.);
#569=ORIENTED_EDGE('',*,*,#546,.F.);
#570=EDGE_LOOP('',(#566,#567,#568,#569));
#571=FACE_BOUND('',#570,.T.);
#572=ADVANCED_FACE('',(#571),#565,.F.);
#573=CARTESIAN_POINT('',(-98.,2.,27.));
#574=DIRECTION('',(0.,-1.,0.));
#575=DIRECTION('',(0.,0.,-1.));
#576=AXIS2_PLACEMENT_3D('',#573,#574,#575);
#577=CYLINDRICAL_SURFACE('',#576,2.7);
#578=ORIENTED_EDGE('',*,*,#468,.T.);
#579=ORIENTED_EDGE('',*,*,#523,.T.);
#580=ORIENTED_EDGE('',*,*,#485,.T.);
#581=ORIENTED_EDGE('',*,*,#556,.F.);
#582=EDGE_LOOP('',(#578,#579,#580,#581));
#583=FACE_BOUND('',#582,.T.);
#584=ADVANCED_FACE('',(#583),#577,.F.);
#585=CLOSED_SHELL('',(#328,#359,#390,#432,#454,#496,#528,#560,#572,#584));
#586=MANIFOLD_SOLID_BREP('3D \X2\0444044004300433043C0435043D0442\X0\_1',#585);
#587=COLOUR_RGB('',0.501960814,0.501960814,0.501960814);
#588=FILL_AREA_STYLE_COLOUR('',#587);
#589=FILL_AREA_STYLE('',(#588));
#590=SURFACE_STYLE_FILL_AREA(#589);
#591=SURFACE_SIDE_STYLE('',(#590));
#592=SURFACE_STYLE_USAGE(.BOTH.,#591);
#593=PRESENTATION_STYLE_ASSIGNMENT((#592));
#288=STYLED_ITEM('',(#593),#586);
#594=DERIVED_UNIT_ELEMENT(#265,3.0);
#595=DERIVED_UNIT((#594));
#596=MEASURE_REPRESENTATION_ITEM('volume measure',VOLUME_MEASURE(8708.538274),#595);
#597=DERIVED_UNIT_ELEMENT(#265,2.0);
#598=DERIVED_UNIT((#597));
#599=MEASURE_REPRESENTATION_ITEM('surface area measure',AREA_MEASURE(9376.369416),#598);
#600=CARTESIAN_POINT('centre point',(-54.627159993,1.,19.926482257));
#601=CARTESIAN_POINT('bounding box corner point',(-109.999999404,0.,0.));
#602=CARTESIAN_POINT('bounding box corner point',(0.,2.000000095,39.999999106));
#603=ID_ATTRIBUTE('SA #604',#604);
#604=SHAPE_ASPECT('properties','',#276,.F.);
#605=GEOMETRIC_ITEM_SPECIFIC_USAGE('','properties',#604,#270,#586);
#606=PROPERTY_DEFINITION('geometric validation property','',#604);
#607=REPRESENTATION('',(#596,#599,#600,#601,#602),#267);
#608=PROPERTY_DEFINITION_REPRESENTATION(#606,#607);
#269=SHAPE_REPRESENTATION('3D \X2\0444044004300433043C0435043D0442\X0\_1',(#15),#267);
#270=ADVANCED_BREP_SHAPE_REPRESENTATION('3D \X2\0444044004300433043C0435043D0442\X0\_1',(#586),#267);
#616=SHAPE_REPRESENTATION_RELATIONSHIP('','',#269,#270);
#617=CARTESIAN_POINT('',(0.,0.,0.));
#618=DIRECTION('',(0.,0.,1.));
#619=DIRECTION('',(1.,0.,0.));
#620=AXIS2_PLACEMENT_3D('',#617,#618,#619);
#622=MAPPED_ITEM('',#621,#620);
#621=REPRESENTATION_MAP(#620,#269);
#277=PRODUCT('3D \X2\0444044004300433043C0435043D0442\X0\_1','3D \X2\0444044004300433043C0435043D0442\X0\_1','',(#243));
#623=PRODUCT_RELATED_PRODUCT_CATEGORY('part','',(#277));
#624=PRODUCT_DEFINITION_FORMATION_WITH_SPECIFIED_SOURCE('','',#277,.NOT_KNOWN.);
#278=PRODUCT_DEFINITION('design','',#624,#244);
#276=PRODUCT_DEFINITION_SHAPE('','',#278);
#625=SHAPE_DEFINITION_REPRESENTATION(#276,#269);
#268=DRAUGHTING_MODEL('',(#622),#267);
#626=DERIVED_UNIT_ELEMENT(#265,3.0);
#627=DERIVED_UNIT((#626));
#628=MEASURE_REPRESENTATION_ITEM('volume measure',VOLUME_MEASURE(8708.538274),#627);
#629=DERIVED_UNIT_ELEMENT(#265,2.0);
#630=DERIVED_UNIT((#629));
#631=MEASURE_REPRESENTATION_ITEM('surface area measure',AREA_MEASURE(9376.369416),#630);
#632=CARTESIAN_POINT('centre point',(-54.627159993,1.,19.926482257));
#633=CARTESIAN_POINT('bounding box corner point',(-109.999999404,0.,0.));
#634=CARTESIAN_POINT('bounding box corner point',(0.,2.000000095,39.999999106));
#635=PROPERTY_DEFINITION('geometric validation property','',#278);
#636=REPRESENTATION('',(#628,#631,#632,#633,#634),#267);
#637=PROPERTY_DEFINITION_REPRESENTATION(#635,#636);
#16=SHAPE_REPRESENTATION('\X2\042104120420\X0\20\X2\0421\X0\.02.07.000 \X2\041C04300433043D04380442043D0430044F\X0\ \X2\043B0438043D04350439043A0430\X0\',(#15,#48,#282),#10);
#638=CARTESIAN_POINT('',(0.,0.,0.));
#639=DIRECTION('',(0.,0.,1.));
#640=DIRECTION('',(1.,0.,0.));
#641=AXIS2_PLACEMENT_3D('',#638,#639,#640);
#643=MAPPED_ITEM('',#642,#641);
#642=REPRESENTATION_MAP(#641,#16);
#24=PRODUCT('\X2\042104120420\X0\20\X2\0421\X0\.02.07.000 \X2\041C04300433043D04380442043D0430044F\X0\ \X2\043B0438043D04350439043A0430\X0\','\X2\042104120420\X0\20\X2\0421\X0\.02.07.000 \X2\041C04300433043D04380442043D0430044F\X0\ \X2\043B0438043D04350439043A0430\X0\','',(#243));
#644=PRODUCT_RELATED_PRODUCT_CATEGORY('part','',(#24));
#645=PRODUCT_DEFINITION_FORMATION_WITH_SPECIFIED_SOURCE('','',#24,.NOT_KNOWN.);
#25=PRODUCT_DEFINITION('design','',#645,#244);
#23=PRODUCT_DEFINITION_SHAPE('','',#25);
#646=SHAPE_DEFINITION_REPRESENTATION(#23,#16);
#11=DRAUGHTING_MODEL('',(#643),#10);
#647=DERIVED_UNIT_ELEMENT(#8,3.0);
#648=DERIVED_UNIT((#647));
#649=MEASURE_REPRESENTATION_ITEM('volume measure',VOLUME_MEASURE(10138.538221),#648);
#650=DERIVED_UNIT_ELEMENT(#8,2.0);
#651=DERIVED_UNIT((#650));
#652=MEASURE_REPRESENTATION_ITEM('surface area measure',AREA_MEASURE(11888.369405),#651);
#653=CARTESIAN_POINT('centre point',(-54.679747573,1.232725845,17.821162103));
#654=CARTESIAN_POINT('bounding box corner point',(-109.999999404,0.,0.));
#655=CARTESIAN_POINT('bounding box corner point',(0.,3.300000004,39.999999106));
#656=PROPERTY_DEFINITION('geometric validation property','',#25);
#657=REPRESENTATION('',(#649,#652,#653,#654,#655),#10);
#658=PROPERTY_DEFINITION_REPRESENTATION(#656,#657);
#1=MECHANICAL_DESIGN_GEOMETRIC_PRESENTATION_REPRESENTATION('',(#54,#288),#10);
ENDSEC;
END-ISO-10303-21;
