G04*
G04 #@! TF.GenerationSoftware,Altium Limited,Altium Designer,21.8.1 (53)*
G04*
G04 Layer_Physical_Order=1*
G04 Layer_Color=255*
%FSLAX44Y44*%
%MOMM*%
G71*
G04*
G04 #@! TF.SameCoordinates,5D2DE1CA-8E9C-4F84-8D06-91F005850216*
G04*
G04*
G04 #@! TF.FilePolarity,Positive*
G04*
G01*
G75*
%ADD17R,0.8500X0.8500*%
%ADD18R,0.8500X0.8500*%
%ADD19C,0.8000*%
%ADD20C,1.6000*%
%ADD21C,4.0000*%
%ADD22C,1.8000*%
%ADD23P,1.9483X8X292.5*%
%ADD24C,1.2700*%
G36*
X97781Y124781D02*
X97701Y124822D01*
X97460Y124860D01*
X97060Y124892D01*
X93861Y124980D01*
X89781Y125000D01*
Y133000D01*
X97781Y133219D01*
Y124781D01*
D02*
G37*
G36*
X120276Y132634D02*
X120446Y131992D01*
X120729Y131292D01*
X121125Y130534D01*
X121634Y129719D01*
X122256Y128846D01*
X123840Y126928D01*
X124802Y125883D01*
X125876Y124781D01*
X120219Y119124D01*
X119117Y120198D01*
X116154Y122744D01*
X115281Y123366D01*
X114466Y123875D01*
X113708Y124271D01*
X113008Y124554D01*
X112366Y124724D01*
X111781Y124781D01*
X120219Y133219D01*
X120276Y132634D01*
D02*
G37*
G36*
X214300Y124130D02*
X214540Y124051D01*
X214939Y123980D01*
X215499Y123919D01*
X218139Y123792D01*
X222220Y123750D01*
Y115750D01*
X214219Y115780D01*
Y124220D01*
X214300Y124130D01*
D02*
G37*
G36*
X31024Y118073D02*
X31095Y117194D01*
X31214Y116367D01*
X31381Y115591D01*
X31596Y114868D01*
X31858Y114197D01*
X32167Y113578D01*
X32525Y113012D01*
X32930Y112497D01*
X33382Y112034D01*
X20789Y111614D01*
X21209Y112102D01*
X21585Y112639D01*
X21917Y113225D01*
X22204Y113860D01*
X22447Y114545D01*
X22646Y115279D01*
X22801Y116062D01*
X22912Y116894D01*
X22978Y117776D01*
X23000Y118706D01*
X31000Y119004D01*
X31024Y118073D01*
D02*
G37*
G36*
X56740Y120177D02*
X57058Y116486D01*
X57337Y114986D01*
X57695Y113717D01*
X58132Y112679D01*
X58649Y111871D01*
X59246Y111294D01*
X59922Y110948D01*
X60678Y110833D01*
X44722D01*
X45477Y110948D01*
X46154Y111294D01*
X46751Y111871D01*
X47268Y112679D01*
X47705Y113717D01*
X48063Y114986D01*
X48342Y116486D01*
X48541Y118216D01*
X48660Y120177D01*
X48700Y122369D01*
X56700D01*
X56740Y120177D01*
D02*
G37*
G36*
X233155Y115524D02*
X234341Y114520D01*
X234906Y114113D01*
X235454Y113769D01*
X235983Y113488D01*
X236494Y113271D01*
X236988Y113117D01*
X237463Y113027D01*
X237920Y113000D01*
X230000Y105080D01*
X229973Y105537D01*
X229883Y106012D01*
X229729Y106506D01*
X229512Y107017D01*
X229231Y107546D01*
X228887Y108094D01*
X228480Y108659D01*
X228010Y109243D01*
X226879Y110465D01*
X232535Y116122D01*
X233155Y115524D01*
D02*
G37*
G36*
X138755Y105700D02*
X139130Y99299D01*
X139220Y99220D01*
X130780D01*
X130775Y99299D01*
X130765Y99939D01*
X130750Y107219D01*
X138750D01*
X138755Y105700D01*
D02*
G37*
G36*
X205781Y101781D02*
X214219D01*
X214178Y101700D01*
X214140Y101461D01*
X214108Y101060D01*
X214020Y97860D01*
X214000Y93780D01*
X206000D01*
X205781Y101781D01*
X205700Y101822D01*
X205460Y101860D01*
X205061Y101892D01*
X201861Y101980D01*
X197780Y102000D01*
Y110000D01*
X205781Y110219D01*
Y101781D01*
D02*
G37*
G36*
X139267Y99130D02*
X139410Y99051D01*
X139648Y98980D01*
X139981Y98919D01*
X140409Y98867D01*
X141551Y98792D01*
X143978Y98750D01*
Y90750D01*
X139220Y90780D01*
Y99220D01*
X139267Y99130D01*
D02*
G37*
G36*
X125178Y90701D02*
X125140Y90461D01*
X125107Y90061D01*
X125020Y86861D01*
X125000Y82781D01*
X117000D01*
X116781Y90780D01*
X125219D01*
X125178Y90701D01*
D02*
G37*
G36*
X201275Y87178D02*
X201442Y87141D01*
X201721Y87107D01*
X202612Y87055D01*
X206790Y87000D01*
Y79000D01*
X201220Y78780D01*
Y87219D01*
X201275Y87178D01*
D02*
G37*
G36*
X59603Y85863D02*
X60130Y85472D01*
X60707Y85127D01*
X61335Y84828D01*
X62013Y84575D01*
X62742Y84368D01*
X63521Y84207D01*
X64351Y84092D01*
X65231Y84023D01*
X66162Y84000D01*
Y76000D01*
X65231Y75977D01*
X64351Y75908D01*
X63521Y75793D01*
X62742Y75632D01*
X62013Y75425D01*
X61335Y75172D01*
X60707Y74873D01*
X60130Y74528D01*
X59603Y74137D01*
X59127Y73700D01*
Y86300D01*
X59603Y85863D01*
D02*
G37*
G36*
X187178Y78700D02*
X187141Y78460D01*
X187108Y78060D01*
X187020Y74861D01*
X187006Y71997D01*
X187160Y69417D01*
X187218Y69097D01*
X187285Y68843D01*
X187360Y68655D01*
X187445Y68535D01*
X178555D01*
X178640Y68655D01*
X178715Y68843D01*
X178782Y69097D01*
X178840Y69417D01*
X178889Y69805D01*
X178960Y70779D01*
X178977Y71617D01*
X178780Y78780D01*
X187220D01*
X187178Y78700D01*
D02*
G37*
G36*
X125219Y74219D02*
X116781D01*
Y65781D01*
X116700Y65822D01*
X116461Y65859D01*
X116060Y65892D01*
X112860Y65980D01*
X108780Y66000D01*
Y74000D01*
X116781Y74219D01*
X116822Y74300D01*
X116860Y74539D01*
X116892Y74939D01*
X116980Y78140D01*
X117000Y82219D01*
X125000D01*
X125219Y74219D01*
D02*
G37*
G36*
X152465Y65555D02*
X152345Y65640D01*
X152157Y65715D01*
X151903Y65782D01*
X151583Y65840D01*
X151195Y65889D01*
X150221Y65960D01*
X148258Y66000D01*
Y74000D01*
X148979Y74004D01*
X151583Y74160D01*
X151903Y74218D01*
X152157Y74285D01*
X152345Y74360D01*
X152465Y74445D01*
Y65555D01*
D02*
G37*
G36*
X214219Y63219D02*
X205781D01*
X205822Y63299D01*
X205860Y63540D01*
X205893Y63939D01*
X205980Y67140D01*
X206000Y71220D01*
X214000D01*
X214219Y63219D01*
D02*
G37*
G36*
X139299Y74178D02*
X139539Y74141D01*
X139939Y74107D01*
X143139Y74020D01*
X147219Y74000D01*
Y66000D01*
X139220Y65781D01*
X139178Y65700D01*
X139141Y65461D01*
X139108Y65061D01*
X139020Y61860D01*
X139000Y57780D01*
X131000D01*
X130780Y65781D01*
X139220D01*
Y74219D01*
X139299Y74178D01*
D02*
G37*
G36*
X104122Y60465D02*
X103524Y59845D01*
X102520Y58659D01*
X102113Y58094D01*
X101769Y57546D01*
X101488Y57017D01*
X101271Y56506D01*
X101117Y56012D01*
X101027Y55537D01*
X101000Y55080D01*
X93080Y63000D01*
X93537Y63027D01*
X94012Y63117D01*
X94506Y63271D01*
X95017Y63488D01*
X95546Y63769D01*
X96094Y64113D01*
X96659Y64520D01*
X97243Y64990D01*
X98465Y66122D01*
X104122Y60465D01*
D02*
G37*
G36*
X88155Y65524D02*
X89341Y64520D01*
X89906Y64113D01*
X90454Y63769D01*
X90983Y63488D01*
X91494Y63271D01*
X91988Y63117D01*
X92463Y63027D01*
X92920Y63000D01*
X85000Y55080D01*
X84973Y55537D01*
X84883Y56012D01*
X84729Y56506D01*
X84512Y57017D01*
X84231Y57546D01*
X83887Y58094D01*
X83480Y58659D01*
X83010Y59243D01*
X81878Y60465D01*
X87535Y66122D01*
X88155Y65524D01*
D02*
G37*
G36*
X237920Y47000D02*
X237463Y46973D01*
X236988Y46883D01*
X236494Y46729D01*
X235983Y46512D01*
X235454Y46231D01*
X234906Y45887D01*
X234341Y45480D01*
X233757Y45009D01*
X232535Y43878D01*
X226879Y49535D01*
X227476Y50155D01*
X228480Y51341D01*
X228887Y51906D01*
X229231Y52454D01*
X229512Y52983D01*
X229729Y53494D01*
X229883Y53988D01*
X229973Y54463D01*
X230000Y54920D01*
X237920Y47000D01*
D02*
G37*
G36*
X33163Y47697D02*
X32772Y47170D01*
X32427Y46593D01*
X32128Y45965D01*
X31875Y45287D01*
X31668Y44558D01*
X31507Y43779D01*
X31392Y42949D01*
X31323Y42069D01*
X31300Y41138D01*
X23300D01*
X23277Y42069D01*
X23208Y42949D01*
X23093Y43779D01*
X22932Y44558D01*
X22725Y45287D01*
X22472Y45965D01*
X22173Y46593D01*
X21828Y47170D01*
X21437Y47697D01*
X21000Y48173D01*
X33600D01*
X33163Y47697D01*
D02*
G37*
G36*
X214300Y49178D02*
X214540Y49141D01*
X214939Y49107D01*
X218139Y49020D01*
X222220Y49000D01*
Y41000D01*
X214219Y40781D01*
Y49219D01*
X214300Y49178D01*
D02*
G37*
G36*
X119299Y29178D02*
X119539Y29141D01*
X119939Y29108D01*
X123139Y29020D01*
X127219Y29000D01*
Y21000D01*
X119220Y20780D01*
Y29220D01*
X119299Y29178D01*
D02*
G37*
G36*
X96781Y20780D02*
X96700Y20822D01*
X96461Y20859D01*
X96060Y20892D01*
X92860Y20980D01*
X88780Y21000D01*
Y29000D01*
X96781Y29220D01*
Y20780D01*
D02*
G37*
D17*
X210000Y120000D02*
D03*
Y106000D02*
D03*
Y45000D02*
D03*
Y59000D02*
D03*
D18*
X183000Y83000D02*
D03*
X197000D02*
D03*
X101000Y25000D02*
D03*
X115000D02*
D03*
X102000Y129000D02*
D03*
X116000D02*
D03*
X121000Y70000D02*
D03*
X135000D02*
D03*
X121000Y95000D02*
D03*
X135000D02*
D03*
D19*
X116250Y128750D02*
X134750Y110250D01*
X131000Y128906D02*
Y139314D01*
X134750Y95250D02*
Y110250D01*
X153906Y106000D02*
X210000D01*
X131000Y128906D02*
X153906Y106000D01*
X210000Y45000D02*
X228000D01*
X238000Y55000D01*
X135000Y70000D02*
X157000D01*
X183000Y64000D02*
Y83000D01*
X27000Y105700D02*
X27300Y105400D01*
X27000Y105700D02*
Y132000D01*
X39000Y144000D01*
X57386Y129000D02*
X102250D01*
X52700Y124314D02*
X57386Y129000D01*
X52700Y105400D02*
Y124314D01*
X126314Y144000D02*
X131000Y139314D01*
X39000Y144000D02*
X126314D01*
X197000Y83000D02*
X206790D01*
X148728Y90000D02*
X150000D01*
X135250Y94750D02*
X143978D01*
X148728Y90000D01*
X134750Y95250D02*
X135250Y94750D01*
X210000Y86210D02*
Y106000D01*
X206790Y83000D02*
X210000Y86210D01*
X207461Y80696D02*
X210000Y78157D01*
Y59000D02*
Y78157D01*
X213250Y119750D02*
X223250D01*
X238000Y105000D01*
X93000Y55000D02*
X108000Y70000D01*
X121000D01*
X68000Y80000D02*
X93000Y55000D01*
X52700Y80000D02*
X68000D01*
X135000Y32000D02*
Y70000D01*
X128000Y25000D02*
X135000Y32000D01*
X115000Y25000D02*
X128000D01*
X27300Y35700D02*
Y54600D01*
Y35700D02*
X38000Y25000D01*
X101000D01*
X121000Y70000D02*
Y95000D01*
D20*
X93000Y55000D02*
D03*
Y105000D02*
D03*
X238000Y55000D02*
D03*
Y80000D02*
D03*
Y105000D02*
D03*
D21*
X163000Y135000D02*
D03*
Y25000D02*
D03*
D22*
X52700Y54600D02*
D03*
Y80000D02*
D03*
X27300D02*
D03*
Y54600D02*
D03*
Y105400D02*
D03*
D23*
X52700D02*
D03*
D24*
X157000Y70000D02*
D03*
X183000Y64000D02*
D03*
X150000Y90000D02*
D03*
M02*
