G04*
G04 #@! TF.GenerationSoftware,Altium Limited,Altium Designer,21.8.1 (53)*
G04*
G04 Layer_Color=65535*
%FSLAX44Y44*%
%MOMM*%
G71*
G04*
G04 #@! TF.SameCoordinates,5D2DE1CA-8E9C-4F84-8D06-91F005850216*
G04*
G04*
G04 #@! TF.FilePolarity,Positive*
G04*
G01*
G75*
%ADD10C,0.2000*%
G36*
X16996Y12947D02*
X17179Y12930D01*
X17396Y12914D01*
X17612Y12880D01*
X17862Y12847D01*
X18396Y12730D01*
X18662Y12647D01*
X18929Y12564D01*
X19195Y12447D01*
X19445Y12314D01*
X19678Y12164D01*
X19895Y11997D01*
X19912Y11981D01*
X19945Y11947D01*
X19995Y11897D01*
X20062Y11831D01*
X20145Y11731D01*
X20245Y11614D01*
X20345Y11481D01*
X20462Y11331D01*
X20562Y11147D01*
X20662Y10964D01*
X20762Y10747D01*
X20845Y10514D01*
X20928Y10281D01*
X20995Y10014D01*
X21045Y9748D01*
X21061Y9448D01*
X18729Y9365D01*
Y9381D01*
Y9398D01*
X18695Y9514D01*
X18662Y9664D01*
X18595Y9848D01*
X18512Y10064D01*
X18396Y10264D01*
X18246Y10464D01*
X18079Y10631D01*
X18062Y10647D01*
X17996Y10697D01*
X17879Y10764D01*
X17712Y10831D01*
X17512Y10898D01*
X17263Y10964D01*
X16963Y11014D01*
X16613Y11031D01*
X16446D01*
X16263Y11014D01*
X16046Y10981D01*
X15796Y10931D01*
X15530Y10848D01*
X15280Y10747D01*
X15046Y10597D01*
X15030Y10581D01*
X14996Y10548D01*
X14930Y10498D01*
X14863Y10414D01*
X14797Y10314D01*
X14730Y10181D01*
X14697Y10048D01*
X14680Y9881D01*
Y9864D01*
Y9814D01*
X14697Y9731D01*
X14730Y9648D01*
X14763Y9531D01*
X14813Y9414D01*
X14896Y9298D01*
X15013Y9181D01*
X15030Y9165D01*
X15113Y9115D01*
X15163Y9081D01*
X15246Y9048D01*
X15330Y8998D01*
X15446Y8948D01*
X15580Y8898D01*
X15730Y8831D01*
X15913Y8765D01*
X16096Y8698D01*
X16329Y8631D01*
X16579Y8565D01*
X16846Y8498D01*
X17146Y8415D01*
X17162D01*
X17229Y8398D01*
X17313Y8381D01*
X17429Y8348D01*
X17562Y8315D01*
X17729Y8265D01*
X17912Y8215D01*
X18096Y8165D01*
X18496Y8031D01*
X18912Y7898D01*
X19312Y7748D01*
X19479Y7665D01*
X19645Y7582D01*
X19662D01*
X19678Y7565D01*
X19778Y7498D01*
X19928Y7398D01*
X20112Y7265D01*
X20312Y7098D01*
X20528Y6898D01*
X20745Y6665D01*
X20928Y6399D01*
X20945Y6365D01*
X20995Y6265D01*
X21078Y6115D01*
X21161Y5899D01*
X21245Y5632D01*
X21328Y5316D01*
X21378Y4966D01*
X21395Y4566D01*
Y4549D01*
Y4516D01*
Y4466D01*
Y4399D01*
X21378Y4316D01*
X21361Y4199D01*
X21328Y3966D01*
X21261Y3666D01*
X21161Y3349D01*
X21012Y3033D01*
X20828Y2700D01*
Y2683D01*
X20795Y2666D01*
X20728Y2566D01*
X20595Y2400D01*
X20428Y2216D01*
X20212Y2000D01*
X19928Y1800D01*
X19629Y1600D01*
X19262Y1417D01*
X19245D01*
X19212Y1400D01*
X19162Y1383D01*
X19079Y1350D01*
X18979Y1317D01*
X18862Y1283D01*
X18729Y1250D01*
X18579Y1217D01*
X18396Y1167D01*
X18212Y1133D01*
X17779Y1067D01*
X17296Y1017D01*
X16763Y1000D01*
X16546D01*
X16396Y1017D01*
X16213Y1033D01*
X16013Y1050D01*
X15780Y1083D01*
X15530Y1133D01*
X14980Y1250D01*
X14697Y1333D01*
X14430Y1417D01*
X14147Y1533D01*
X13880Y1666D01*
X13630Y1816D01*
X13397Y2000D01*
X13380Y2016D01*
X13347Y2050D01*
X13280Y2100D01*
X13213Y2183D01*
X13114Y2300D01*
X13014Y2433D01*
X12897Y2583D01*
X12780Y2749D01*
X12664Y2950D01*
X12547Y3166D01*
X12430Y3416D01*
X12314Y3683D01*
X12230Y3966D01*
X12131Y4283D01*
X12064Y4616D01*
X12014Y4966D01*
X14280Y5182D01*
Y5166D01*
X14297Y5132D01*
Y5066D01*
X14313Y4999D01*
X14380Y4799D01*
X14463Y4549D01*
X14563Y4266D01*
X14713Y3983D01*
X14880Y3733D01*
X15096Y3499D01*
X15130Y3483D01*
X15213Y3416D01*
X15346Y3333D01*
X15546Y3233D01*
X15796Y3133D01*
X16079Y3049D01*
X16413Y2983D01*
X16796Y2966D01*
X16979D01*
X17179Y3000D01*
X17429Y3033D01*
X17696Y3083D01*
X17979Y3166D01*
X18246Y3283D01*
X18479Y3433D01*
X18512Y3449D01*
X18579Y3516D01*
X18662Y3616D01*
X18779Y3749D01*
X18879Y3916D01*
X18979Y4116D01*
X19045Y4316D01*
X19062Y4549D01*
Y4566D01*
Y4616D01*
X19045Y4699D01*
X19029Y4799D01*
X18995Y4899D01*
X18962Y5016D01*
X18895Y5132D01*
X18812Y5249D01*
X18795Y5266D01*
X18762Y5299D01*
X18712Y5349D01*
X18629Y5415D01*
X18512Y5499D01*
X18362Y5582D01*
X18196Y5666D01*
X17979Y5749D01*
X17962D01*
X17896Y5782D01*
X17779Y5815D01*
X17696Y5849D01*
X17596Y5865D01*
X17479Y5899D01*
X17346Y5949D01*
X17196Y5982D01*
X17029Y6032D01*
X16829Y6082D01*
X16613Y6132D01*
X16379Y6199D01*
X16113Y6265D01*
X16096D01*
X16029Y6282D01*
X15929Y6315D01*
X15813Y6349D01*
X15663Y6399D01*
X15480Y6449D01*
X15296Y6515D01*
X15080Y6582D01*
X14647Y6748D01*
X14230Y6949D01*
X14013Y7048D01*
X13830Y7165D01*
X13647Y7282D01*
X13497Y7398D01*
X13480Y7415D01*
X13447Y7448D01*
X13397Y7498D01*
X13330Y7565D01*
X13247Y7665D01*
X13163Y7782D01*
X13064Y7898D01*
X12980Y8048D01*
X12780Y8398D01*
X12614Y8798D01*
X12547Y9015D01*
X12497Y9231D01*
X12464Y9481D01*
X12447Y9731D01*
Y9748D01*
Y9764D01*
Y9814D01*
Y9881D01*
X12480Y10048D01*
X12514Y10264D01*
X12564Y10514D01*
X12647Y10797D01*
X12764Y11097D01*
X12930Y11381D01*
Y11397D01*
X12947Y11414D01*
X13030Y11514D01*
X13130Y11647D01*
X13297Y11814D01*
X13497Y11997D01*
X13747Y12197D01*
X14030Y12380D01*
X14363Y12547D01*
X14380D01*
X14413Y12564D01*
X14463Y12580D01*
X14530Y12614D01*
X14630Y12647D01*
X14730Y12680D01*
X14863Y12714D01*
X15013Y12764D01*
X15346Y12830D01*
X15730Y12897D01*
X16163Y12947D01*
X16646Y12964D01*
X16846D01*
X16996Y12947D01*
D02*
G37*
G36*
X6832Y8248D02*
X11414Y1217D01*
X8398D01*
X5216Y6632D01*
X3333Y4699D01*
Y1217D01*
X1000D01*
Y12747D01*
X3333D01*
Y7615D01*
X8065Y12747D01*
X11197D01*
X6832Y8248D01*
D02*
G37*
G36*
X60601Y4299D02*
X56252D01*
Y6515D01*
X60601D01*
Y4299D01*
D02*
G37*
G36*
X66150Y1217D02*
X64151D01*
X60785Y9581D01*
X63101D01*
X64684Y5299D01*
X65134Y3883D01*
X65150Y3899D01*
X65167Y3966D01*
X65200Y4066D01*
X65233Y4166D01*
X65317Y4416D01*
X65350Y4516D01*
X65367Y4599D01*
Y4616D01*
X65384Y4666D01*
X65400Y4732D01*
X65434Y4816D01*
X65500Y5049D01*
X65600Y5299D01*
X67200Y9581D01*
X69466D01*
X66150Y1217D01*
D02*
G37*
G36*
X148562Y5465D02*
X149995D01*
Y3533D01*
X148562D01*
Y1217D01*
X146429D01*
Y3533D01*
X141697D01*
Y5449D01*
X146696Y12797D01*
X148562D01*
Y5465D01*
D02*
G37*
G36*
X137198Y12797D02*
X137348Y12780D01*
X137515Y12764D01*
X137698Y12730D01*
X137898Y12697D01*
X138331Y12580D01*
X138765Y12414D01*
X138998Y12314D01*
X139198Y12197D01*
X139415Y12047D01*
X139598Y11881D01*
X139614Y11864D01*
X139648Y11847D01*
X139681Y11781D01*
X139748Y11714D01*
X139831Y11631D01*
X139914Y11514D01*
X139998Y11397D01*
X140098Y11247D01*
X140264Y10914D01*
X140431Y10531D01*
X140498Y10314D01*
X140531Y10081D01*
X140564Y9831D01*
X140581Y9581D01*
Y9548D01*
Y9448D01*
X140564Y9298D01*
X140548Y9115D01*
X140514Y8881D01*
X140464Y8631D01*
X140398Y8365D01*
X140298Y8098D01*
X140281Y8065D01*
X140248Y7982D01*
X140181Y7832D01*
X140081Y7648D01*
X139964Y7432D01*
X139815Y7182D01*
X139631Y6915D01*
X139415Y6632D01*
X139398Y6615D01*
X139331Y6532D01*
X139231Y6415D01*
X139081Y6249D01*
X138881Y6049D01*
X138631Y5782D01*
X138331Y5499D01*
X137965Y5149D01*
X137948Y5132D01*
X137915Y5116D01*
X137865Y5066D01*
X137798Y4999D01*
X137615Y4832D01*
X137398Y4632D01*
X137182Y4416D01*
X136965Y4199D01*
X136765Y4016D01*
X136699Y3933D01*
X136632Y3866D01*
X136615Y3849D01*
X136582Y3816D01*
X136532Y3749D01*
X136465Y3666D01*
X136315Y3483D01*
X136182Y3266D01*
X140581D01*
Y1217D01*
X132833D01*
Y1233D01*
Y1267D01*
X132850Y1333D01*
X132866Y1417D01*
X132883Y1516D01*
X132900Y1633D01*
X132966Y1933D01*
X133066Y2266D01*
X133200Y2633D01*
X133366Y3033D01*
X133583Y3416D01*
Y3433D01*
X133616Y3466D01*
X133649Y3533D01*
X133716Y3599D01*
X133783Y3716D01*
X133883Y3833D01*
X133999Y3983D01*
X134133Y4149D01*
X134283Y4349D01*
X134466Y4549D01*
X134666Y4782D01*
X134899Y5032D01*
X135149Y5282D01*
X135432Y5566D01*
X135732Y5865D01*
X136065Y6182D01*
X136082Y6199D01*
X136132Y6249D01*
X136199Y6315D01*
X136299Y6415D01*
X136432Y6515D01*
X136565Y6649D01*
X136865Y6949D01*
X137165Y7265D01*
X137465Y7582D01*
X137598Y7715D01*
X137732Y7865D01*
X137832Y7982D01*
X137898Y8081D01*
X137915Y8115D01*
X137965Y8198D01*
X138048Y8332D01*
X138132Y8515D01*
X138215Y8715D01*
X138298Y8948D01*
X138348Y9181D01*
X138365Y9431D01*
Y9448D01*
Y9464D01*
Y9548D01*
X138348Y9698D01*
X138315Y9864D01*
X138265Y10048D01*
X138198Y10231D01*
X138098Y10414D01*
X137965Y10581D01*
X137948Y10597D01*
X137898Y10647D01*
X137798Y10714D01*
X137682Y10781D01*
X137515Y10848D01*
X137332Y10914D01*
X137115Y10964D01*
X136865Y10981D01*
X136749D01*
X136615Y10964D01*
X136465Y10931D01*
X136282Y10881D01*
X136099Y10797D01*
X135915Y10697D01*
X135749Y10564D01*
X135732Y10548D01*
X135682Y10481D01*
X135616Y10381D01*
X135549Y10231D01*
X135466Y10048D01*
X135399Y9798D01*
X135332Y9514D01*
X135299Y9181D01*
X133099Y9398D01*
Y9414D01*
X133116Y9481D01*
Y9564D01*
X133149Y9698D01*
X133166Y9848D01*
X133216Y10014D01*
X133266Y10198D01*
X133316Y10414D01*
X133483Y10831D01*
X133683Y11264D01*
X133816Y11481D01*
X133966Y11681D01*
X134133Y11847D01*
X134316Y12014D01*
X134333Y12031D01*
X134366Y12047D01*
X134416Y12081D01*
X134499Y12147D01*
X134599Y12197D01*
X134732Y12264D01*
X134866Y12347D01*
X135032Y12414D01*
X135216Y12497D01*
X135416Y12564D01*
X135849Y12697D01*
X136365Y12780D01*
X136632Y12797D01*
X136915Y12814D01*
X137082D01*
X137198Y12797D01*
D02*
G37*
G36*
X119270D02*
X119420Y12780D01*
X119586Y12764D01*
X119770Y12730D01*
X119970Y12697D01*
X120403Y12580D01*
X120836Y12414D01*
X121069Y12314D01*
X121269Y12197D01*
X121486Y12047D01*
X121669Y11881D01*
X121686Y11864D01*
X121719Y11847D01*
X121752Y11781D01*
X121819Y11714D01*
X121902Y11631D01*
X121986Y11514D01*
X122069Y11397D01*
X122169Y11247D01*
X122336Y10914D01*
X122502Y10531D01*
X122569Y10314D01*
X122602Y10081D01*
X122635Y9831D01*
X122652Y9581D01*
Y9548D01*
Y9448D01*
X122635Y9298D01*
X122619Y9115D01*
X122585Y8881D01*
X122535Y8631D01*
X122469Y8365D01*
X122369Y8098D01*
X122352Y8065D01*
X122319Y7982D01*
X122252Y7832D01*
X122152Y7648D01*
X122036Y7432D01*
X121886Y7182D01*
X121702Y6915D01*
X121486Y6632D01*
X121469Y6615D01*
X121403Y6532D01*
X121302Y6415D01*
X121153Y6249D01*
X120953Y6049D01*
X120703Y5782D01*
X120403Y5499D01*
X120036Y5149D01*
X120020Y5132D01*
X119986Y5116D01*
X119936Y5066D01*
X119870Y4999D01*
X119686Y4832D01*
X119470Y4632D01*
X119253Y4416D01*
X119036Y4199D01*
X118836Y4016D01*
X118770Y3933D01*
X118703Y3866D01*
X118687Y3849D01*
X118653Y3816D01*
X118603Y3749D01*
X118537Y3666D01*
X118387Y3483D01*
X118253Y3266D01*
X122652D01*
Y1217D01*
X114904D01*
Y1233D01*
Y1267D01*
X114921Y1333D01*
X114937Y1417D01*
X114954Y1516D01*
X114971Y1633D01*
X115037Y1933D01*
X115137Y2266D01*
X115271Y2633D01*
X115437Y3033D01*
X115654Y3416D01*
Y3433D01*
X115687Y3466D01*
X115721Y3533D01*
X115787Y3599D01*
X115854Y3716D01*
X115954Y3833D01*
X116070Y3983D01*
X116204Y4149D01*
X116354Y4349D01*
X116537Y4549D01*
X116737Y4782D01*
X116970Y5032D01*
X117220Y5282D01*
X117503Y5566D01*
X117803Y5865D01*
X118137Y6182D01*
X118153Y6199D01*
X118203Y6249D01*
X118270Y6315D01*
X118370Y6415D01*
X118503Y6515D01*
X118637Y6649D01*
X118937Y6949D01*
X119236Y7265D01*
X119536Y7582D01*
X119670Y7715D01*
X119803Y7865D01*
X119903Y7982D01*
X119970Y8081D01*
X119986Y8115D01*
X120036Y8198D01*
X120119Y8332D01*
X120203Y8515D01*
X120286Y8715D01*
X120369Y8948D01*
X120419Y9181D01*
X120436Y9431D01*
Y9448D01*
Y9464D01*
Y9548D01*
X120419Y9698D01*
X120386Y9864D01*
X120336Y10048D01*
X120269Y10231D01*
X120169Y10414D01*
X120036Y10581D01*
X120020Y10597D01*
X119970Y10647D01*
X119870Y10714D01*
X119753Y10781D01*
X119586Y10848D01*
X119403Y10914D01*
X119186Y10964D01*
X118937Y10981D01*
X118820D01*
X118687Y10964D01*
X118537Y10931D01*
X118353Y10881D01*
X118170Y10797D01*
X117987Y10697D01*
X117820Y10564D01*
X117803Y10548D01*
X117753Y10481D01*
X117687Y10381D01*
X117620Y10231D01*
X117537Y10048D01*
X117470Y9798D01*
X117403Y9514D01*
X117370Y9181D01*
X115171Y9398D01*
Y9414D01*
X115187Y9481D01*
Y9564D01*
X115221Y9698D01*
X115237Y9848D01*
X115287Y10014D01*
X115337Y10198D01*
X115387Y10414D01*
X115554Y10831D01*
X115754Y11264D01*
X115887Y11481D01*
X116037Y11681D01*
X116204Y11847D01*
X116387Y12014D01*
X116404Y12031D01*
X116437Y12047D01*
X116487Y12081D01*
X116570Y12147D01*
X116670Y12197D01*
X116804Y12264D01*
X116937Y12347D01*
X117104Y12414D01*
X117287Y12497D01*
X117487Y12564D01*
X117920Y12697D01*
X118437Y12780D01*
X118703Y12797D01*
X118987Y12814D01*
X119153D01*
X119270Y12797D01*
D02*
G37*
G36*
X113388Y1217D02*
X111172D01*
Y3433D01*
X113388D01*
Y1217D01*
D02*
G37*
G36*
X83412Y12797D02*
X83562Y12780D01*
X83729Y12764D01*
X83912Y12730D01*
X84112Y12697D01*
X84545Y12580D01*
X84979Y12414D01*
X85212Y12314D01*
X85412Y12197D01*
X85628Y12047D01*
X85812Y11881D01*
X85828Y11864D01*
X85862Y11847D01*
X85895Y11781D01*
X85962Y11714D01*
X86045Y11631D01*
X86128Y11514D01*
X86212Y11397D01*
X86312Y11247D01*
X86478Y10914D01*
X86645Y10531D01*
X86711Y10314D01*
X86745Y10081D01*
X86778Y9831D01*
X86795Y9581D01*
Y9548D01*
Y9448D01*
X86778Y9298D01*
X86761Y9115D01*
X86728Y8881D01*
X86678Y8631D01*
X86611Y8365D01*
X86511Y8098D01*
X86495Y8065D01*
X86461Y7982D01*
X86395Y7832D01*
X86295Y7648D01*
X86178Y7432D01*
X86028Y7182D01*
X85845Y6915D01*
X85628Y6632D01*
X85612Y6615D01*
X85545Y6532D01*
X85445Y6415D01*
X85295Y6249D01*
X85095Y6049D01*
X84845Y5782D01*
X84545Y5499D01*
X84179Y5149D01*
X84162Y5132D01*
X84129Y5116D01*
X84079Y5066D01*
X84012Y4999D01*
X83829Y4832D01*
X83612Y4632D01*
X83396Y4416D01*
X83179Y4199D01*
X82979Y4016D01*
X82912Y3933D01*
X82846Y3866D01*
X82829Y3849D01*
X82796Y3816D01*
X82746Y3749D01*
X82679Y3666D01*
X82529Y3483D01*
X82396Y3266D01*
X86795D01*
Y1217D01*
X79047D01*
Y1233D01*
Y1267D01*
X79063Y1333D01*
X79080Y1417D01*
X79097Y1516D01*
X79113Y1633D01*
X79180Y1933D01*
X79280Y2266D01*
X79413Y2633D01*
X79580Y3033D01*
X79797Y3416D01*
Y3433D01*
X79830Y3466D01*
X79863Y3533D01*
X79930Y3599D01*
X79996Y3716D01*
X80096Y3833D01*
X80213Y3983D01*
X80346Y4149D01*
X80496Y4349D01*
X80680Y4549D01*
X80879Y4782D01*
X81113Y5032D01*
X81363Y5282D01*
X81646Y5566D01*
X81946Y5865D01*
X82279Y6182D01*
X82296Y6199D01*
X82346Y6249D01*
X82413Y6315D01*
X82513Y6415D01*
X82646Y6515D01*
X82779Y6649D01*
X83079Y6949D01*
X83379Y7265D01*
X83679Y7582D01*
X83812Y7715D01*
X83945Y7865D01*
X84045Y7982D01*
X84112Y8081D01*
X84129Y8115D01*
X84179Y8198D01*
X84262Y8332D01*
X84345Y8515D01*
X84429Y8715D01*
X84512Y8948D01*
X84562Y9181D01*
X84579Y9431D01*
Y9448D01*
Y9464D01*
Y9548D01*
X84562Y9698D01*
X84529Y9864D01*
X84479Y10048D01*
X84412Y10231D01*
X84312Y10414D01*
X84179Y10581D01*
X84162Y10597D01*
X84112Y10647D01*
X84012Y10714D01*
X83895Y10781D01*
X83729Y10848D01*
X83546Y10914D01*
X83329Y10964D01*
X83079Y10981D01*
X82962D01*
X82829Y10964D01*
X82679Y10931D01*
X82496Y10881D01*
X82312Y10797D01*
X82129Y10697D01*
X81963Y10564D01*
X81946Y10548D01*
X81896Y10481D01*
X81829Y10381D01*
X81763Y10231D01*
X81679Y10048D01*
X81613Y9798D01*
X81546Y9514D01*
X81513Y9181D01*
X79313Y9398D01*
Y9414D01*
X79330Y9481D01*
Y9564D01*
X79363Y9698D01*
X79380Y9848D01*
X79430Y10014D01*
X79480Y10198D01*
X79530Y10414D01*
X79696Y10831D01*
X79896Y11264D01*
X80030Y11481D01*
X80180Y11681D01*
X80346Y11847D01*
X80530Y12014D01*
X80546Y12031D01*
X80580Y12047D01*
X80630Y12081D01*
X80713Y12147D01*
X80813Y12197D01*
X80946Y12264D01*
X81080Y12347D01*
X81246Y12414D01*
X81429Y12497D01*
X81629Y12564D01*
X82063Y12697D01*
X82579Y12780D01*
X82846Y12797D01*
X83129Y12814D01*
X83296D01*
X83412Y12797D01*
D02*
G37*
G36*
X51154D02*
X51304Y12780D01*
X51470Y12764D01*
X51654Y12730D01*
X51854Y12697D01*
X52287Y12580D01*
X52720Y12414D01*
X52953Y12314D01*
X53153Y12197D01*
X53370Y12047D01*
X53553Y11881D01*
X53570Y11864D01*
X53603Y11847D01*
X53636Y11781D01*
X53703Y11714D01*
X53787Y11631D01*
X53870Y11514D01*
X53953Y11397D01*
X54053Y11247D01*
X54220Y10914D01*
X54386Y10531D01*
X54453Y10314D01*
X54486Y10081D01*
X54520Y9831D01*
X54536Y9581D01*
Y9548D01*
Y9448D01*
X54520Y9298D01*
X54503Y9115D01*
X54470Y8881D01*
X54420Y8631D01*
X54353Y8365D01*
X54253Y8098D01*
X54236Y8065D01*
X54203Y7982D01*
X54136Y7832D01*
X54036Y7648D01*
X53920Y7432D01*
X53770Y7182D01*
X53587Y6915D01*
X53370Y6632D01*
X53353Y6615D01*
X53287Y6532D01*
X53187Y6415D01*
X53037Y6249D01*
X52837Y6049D01*
X52587Y5782D01*
X52287Y5499D01*
X51920Y5149D01*
X51904Y5132D01*
X51870Y5116D01*
X51820Y5066D01*
X51754Y4999D01*
X51570Y4832D01*
X51354Y4632D01*
X51137Y4416D01*
X50921Y4199D01*
X50721Y4016D01*
X50654Y3933D01*
X50587Y3866D01*
X50571Y3849D01*
X50537Y3816D01*
X50487Y3749D01*
X50421Y3666D01*
X50271Y3483D01*
X50137Y3266D01*
X54536D01*
Y1217D01*
X46788D01*
Y1233D01*
Y1267D01*
X46805Y1333D01*
X46822Y1417D01*
X46838Y1516D01*
X46855Y1633D01*
X46922Y1933D01*
X47021Y2266D01*
X47155Y2633D01*
X47322Y3033D01*
X47538Y3416D01*
Y3433D01*
X47571Y3466D01*
X47605Y3533D01*
X47671Y3599D01*
X47738Y3716D01*
X47838Y3833D01*
X47955Y3983D01*
X48088Y4149D01*
X48238Y4349D01*
X48421Y4549D01*
X48621Y4782D01*
X48854Y5032D01*
X49104Y5282D01*
X49388Y5566D01*
X49688Y5865D01*
X50021Y6182D01*
X50037Y6199D01*
X50087Y6249D01*
X50154Y6315D01*
X50254Y6415D01*
X50387Y6515D01*
X50521Y6649D01*
X50821Y6949D01*
X51121Y7265D01*
X51420Y7582D01*
X51554Y7715D01*
X51687Y7865D01*
X51787Y7982D01*
X51854Y8081D01*
X51870Y8115D01*
X51920Y8198D01*
X52004Y8332D01*
X52087Y8515D01*
X52170Y8715D01*
X52253Y8948D01*
X52304Y9181D01*
X52320Y9431D01*
Y9448D01*
Y9464D01*
Y9548D01*
X52304Y9698D01*
X52270Y9864D01*
X52220Y10048D01*
X52154Y10231D01*
X52054Y10414D01*
X51920Y10581D01*
X51904Y10597D01*
X51854Y10647D01*
X51754Y10714D01*
X51637Y10781D01*
X51470Y10848D01*
X51287Y10914D01*
X51070Y10964D01*
X50821Y10981D01*
X50704D01*
X50571Y10964D01*
X50421Y10931D01*
X50237Y10881D01*
X50054Y10797D01*
X49871Y10697D01*
X49704Y10564D01*
X49688Y10548D01*
X49637Y10481D01*
X49571Y10381D01*
X49504Y10231D01*
X49421Y10048D01*
X49354Y9798D01*
X49288Y9514D01*
X49254Y9181D01*
X47055Y9398D01*
Y9414D01*
X47071Y9481D01*
Y9564D01*
X47105Y9698D01*
X47122Y9848D01*
X47172Y10014D01*
X47221Y10198D01*
X47271Y10414D01*
X47438Y10831D01*
X47638Y11264D01*
X47771Y11481D01*
X47921Y11681D01*
X48088Y11847D01*
X48271Y12014D01*
X48288Y12031D01*
X48321Y12047D01*
X48371Y12081D01*
X48454Y12147D01*
X48555Y12197D01*
X48688Y12264D01*
X48821Y12347D01*
X48988Y12414D01*
X49171Y12497D01*
X49371Y12564D01*
X49804Y12697D01*
X50321Y12780D01*
X50587Y12797D01*
X50871Y12814D01*
X51037D01*
X51154Y12797D01*
D02*
G37*
G36*
X36308Y1217D02*
X34091D01*
Y3433D01*
X36308D01*
Y1217D01*
D02*
G37*
G36*
X27810Y12730D02*
X28243D01*
X28710Y12697D01*
X29176Y12664D01*
X29376Y12647D01*
X29576Y12630D01*
X29743Y12597D01*
X29876Y12564D01*
X29893D01*
X29926Y12547D01*
X29976Y12530D01*
X30043Y12514D01*
X30226Y12430D01*
X30459Y12330D01*
X30709Y12181D01*
X30992Y11981D01*
X31259Y11731D01*
X31525Y11431D01*
Y11414D01*
X31559Y11397D01*
X31592Y11347D01*
X31625Y11281D01*
X31692Y11181D01*
X31742Y11081D01*
X31809Y10964D01*
X31875Y10831D01*
X31992Y10498D01*
X32109Y10131D01*
X32175Y9681D01*
X32209Y9198D01*
Y9181D01*
Y9148D01*
Y9098D01*
Y9015D01*
X32192Y8931D01*
Y8815D01*
X32159Y8581D01*
X32109Y8298D01*
X32042Y7982D01*
X31942Y7682D01*
X31809Y7398D01*
X31792Y7365D01*
X31742Y7282D01*
X31659Y7148D01*
X31542Y6982D01*
X31409Y6815D01*
X31226Y6615D01*
X31042Y6432D01*
X30826Y6265D01*
X30792Y6249D01*
X30726Y6199D01*
X30609Y6132D01*
X30459Y6049D01*
X30276Y5949D01*
X30076Y5865D01*
X29859Y5782D01*
X29626Y5716D01*
X29593D01*
X29543Y5699D01*
X29476D01*
X29393Y5682D01*
X29276Y5666D01*
X29160Y5649D01*
X29009D01*
X28860Y5632D01*
X28676Y5616D01*
X28476Y5599D01*
X28260Y5582D01*
X28026D01*
X27777Y5566D01*
X25710D01*
Y1217D01*
X23378D01*
Y12747D01*
X27627D01*
X27810Y12730D01*
D02*
G37*
G36*
X128167Y12797D02*
X128301Y12780D01*
X128467Y12747D01*
X128634Y12714D01*
X128834Y12664D01*
X129051Y12597D01*
X129250Y12514D01*
X129467Y12430D01*
X129684Y12314D01*
X129900Y12164D01*
X130117Y12014D01*
X130317Y11831D01*
X130500Y11614D01*
X130517Y11597D01*
X130550Y11547D01*
X130600Y11464D01*
X130683Y11347D01*
X130767Y11181D01*
X130867Y10981D01*
X130967Y10764D01*
X131067Y10481D01*
X131167Y10181D01*
X131283Y9831D01*
X131367Y9448D01*
X131450Y9015D01*
X131533Y8548D01*
X131583Y8048D01*
X131617Y7498D01*
X131633Y6898D01*
Y6882D01*
Y6865D01*
Y6815D01*
Y6748D01*
Y6582D01*
X131617Y6365D01*
X131600Y6099D01*
X131567Y5782D01*
X131533Y5449D01*
X131500Y5082D01*
X131433Y4699D01*
X131350Y4299D01*
X131267Y3916D01*
X131150Y3533D01*
X131033Y3149D01*
X130867Y2799D01*
X130700Y2466D01*
X130500Y2183D01*
X130484Y2166D01*
X130450Y2133D01*
X130400Y2066D01*
X130333Y2000D01*
X130234Y1916D01*
X130117Y1816D01*
X129967Y1700D01*
X129817Y1600D01*
X129634Y1483D01*
X129450Y1367D01*
X129234Y1267D01*
X129001Y1183D01*
X128751Y1117D01*
X128467Y1050D01*
X128184Y1017D01*
X127884Y1000D01*
X127817D01*
X127718Y1017D01*
X127601D01*
X127468Y1033D01*
X127301Y1067D01*
X127118Y1100D01*
X126918Y1167D01*
X126701Y1233D01*
X126484Y1317D01*
X126251Y1417D01*
X126035Y1550D01*
X125801Y1683D01*
X125585Y1866D01*
X125368Y2050D01*
X125168Y2283D01*
X125152Y2300D01*
X125118Y2350D01*
X125068Y2433D01*
X125018Y2533D01*
X124935Y2683D01*
X124852Y2866D01*
X124752Y3099D01*
X124668Y3349D01*
X124568Y3649D01*
X124468Y3983D01*
X124385Y4366D01*
X124318Y4782D01*
X124252Y5249D01*
X124202Y5765D01*
X124169Y6315D01*
X124152Y6915D01*
Y6932D01*
Y6949D01*
Y6999D01*
Y7065D01*
Y7232D01*
X124169Y7448D01*
X124185Y7715D01*
X124218Y8031D01*
X124252Y8365D01*
X124285Y8731D01*
X124352Y9115D01*
X124418Y9498D01*
X124518Y9898D01*
X124618Y10281D01*
X124752Y10647D01*
X124902Y10997D01*
X125068Y11331D01*
X125268Y11614D01*
X125285Y11631D01*
X125318Y11664D01*
X125368Y11731D01*
X125451Y11797D01*
X125535Y11897D01*
X125651Y11997D01*
X125801Y12097D01*
X125951Y12214D01*
X126135Y12330D01*
X126318Y12430D01*
X126535Y12530D01*
X126768Y12630D01*
X127018Y12697D01*
X127301Y12764D01*
X127584Y12797D01*
X127884Y12814D01*
X128051D01*
X128167Y12797D01*
D02*
G37*
G36*
X105723D02*
X105873Y12780D01*
X106023Y12764D01*
X106206Y12747D01*
X106390Y12714D01*
X106806Y12614D01*
X107240Y12464D01*
X107439Y12364D01*
X107656Y12247D01*
X107839Y12114D01*
X108023Y11964D01*
X108039Y11947D01*
X108056Y11931D01*
X108106Y11881D01*
X108173Y11814D01*
X108239Y11731D01*
X108306Y11631D01*
X108489Y11381D01*
X108656Y11064D01*
X108789Y10714D01*
X108906Y10298D01*
X108922Y10064D01*
X108939Y9831D01*
Y9814D01*
Y9798D01*
Y9698D01*
X108922Y9548D01*
X108889Y9348D01*
X108839Y9131D01*
X108756Y8898D01*
X108656Y8648D01*
X108506Y8398D01*
X108489Y8365D01*
X108422Y8298D01*
X108339Y8181D01*
X108206Y8048D01*
X108039Y7882D01*
X107839Y7732D01*
X107606Y7582D01*
X107339Y7448D01*
X107356D01*
X107389Y7432D01*
X107439Y7415D01*
X107506Y7382D01*
X107673Y7282D01*
X107889Y7148D01*
X108123Y6999D01*
X108372Y6798D01*
X108606Y6565D01*
X108806Y6299D01*
X108822Y6265D01*
X108889Y6165D01*
X108972Y6015D01*
X109056Y5815D01*
X109156Y5566D01*
X109222Y5266D01*
X109289Y4949D01*
X109306Y4599D01*
Y4582D01*
Y4532D01*
Y4449D01*
X109289Y4333D01*
X109272Y4199D01*
X109256Y4033D01*
X109222Y3866D01*
X109172Y3683D01*
X109056Y3266D01*
X108972Y3049D01*
X108872Y2833D01*
X108756Y2616D01*
X108606Y2400D01*
X108456Y2200D01*
X108272Y2000D01*
X108256Y1983D01*
X108223Y1950D01*
X108173Y1900D01*
X108089Y1850D01*
X107989Y1767D01*
X107856Y1683D01*
X107723Y1600D01*
X107556Y1500D01*
X107373Y1400D01*
X107156Y1317D01*
X106939Y1233D01*
X106706Y1150D01*
X106440Y1100D01*
X106156Y1050D01*
X105873Y1017D01*
X105557Y1000D01*
X105407D01*
X105290Y1017D01*
X105157Y1033D01*
X105007Y1050D01*
X104840Y1067D01*
X104640Y1100D01*
X104224Y1200D01*
X103790Y1350D01*
X103574Y1433D01*
X103357Y1550D01*
X103140Y1666D01*
X102941Y1816D01*
X102924Y1833D01*
X102891Y1866D01*
X102824Y1916D01*
X102741Y2000D01*
X102657Y2100D01*
X102557Y2216D01*
X102441Y2366D01*
X102324Y2516D01*
X102207Y2700D01*
X102091Y2900D01*
X101991Y3116D01*
X101908Y3366D01*
X101824Y3616D01*
X101757Y3899D01*
X101724Y4182D01*
X101707Y4499D01*
Y4516D01*
Y4549D01*
Y4599D01*
Y4666D01*
X101724Y4849D01*
X101757Y5066D01*
X101824Y5332D01*
X101891Y5632D01*
X102008Y5932D01*
X102157Y6232D01*
Y6249D01*
X102174Y6265D01*
X102241Y6365D01*
X102357Y6499D01*
X102524Y6682D01*
X102724Y6882D01*
X102974Y7082D01*
X103274Y7265D01*
X103624Y7448D01*
X103607D01*
X103590Y7465D01*
X103490Y7515D01*
X103341Y7598D01*
X103157Y7698D01*
X102941Y7848D01*
X102741Y8015D01*
X102541Y8215D01*
X102374Y8431D01*
X102357Y8465D01*
X102307Y8548D01*
X102257Y8665D01*
X102191Y8848D01*
X102107Y9048D01*
X102058Y9298D01*
X102008Y9548D01*
X101991Y9831D01*
Y9848D01*
Y9881D01*
Y9948D01*
X102008Y10048D01*
X102024Y10148D01*
X102041Y10281D01*
X102107Y10581D01*
X102207Y10914D01*
X102374Y11281D01*
X102474Y11447D01*
X102591Y11631D01*
X102741Y11797D01*
X102891Y11964D01*
X102907Y11981D01*
X102941Y11997D01*
X102991Y12047D01*
X103057Y12097D01*
X103157Y12164D01*
X103257Y12230D01*
X103390Y12314D01*
X103557Y12397D01*
X103724Y12464D01*
X103907Y12547D01*
X104124Y12614D01*
X104357Y12680D01*
X104607Y12730D01*
X104873Y12780D01*
X105157Y12797D01*
X105457Y12814D01*
X105623D01*
X105723Y12797D01*
D02*
G37*
G36*
X96792D02*
X96925Y12780D01*
X97092Y12747D01*
X97259Y12714D01*
X97459Y12664D01*
X97675Y12597D01*
X97875Y12514D01*
X98092Y12430D01*
X98308Y12314D01*
X98525Y12164D01*
X98742Y12014D01*
X98942Y11831D01*
X99125Y11614D01*
X99142Y11597D01*
X99175Y11547D01*
X99225Y11464D01*
X99308Y11347D01*
X99391Y11181D01*
X99491Y10981D01*
X99591Y10764D01*
X99691Y10481D01*
X99791Y10181D01*
X99908Y9831D01*
X99991Y9448D01*
X100075Y9015D01*
X100158Y8548D01*
X100208Y8048D01*
X100241Y7498D01*
X100258Y6898D01*
Y6882D01*
Y6865D01*
Y6815D01*
Y6748D01*
Y6582D01*
X100241Y6365D01*
X100225Y6099D01*
X100191Y5782D01*
X100158Y5449D01*
X100125Y5082D01*
X100058Y4699D01*
X99975Y4299D01*
X99891Y3916D01*
X99775Y3533D01*
X99658Y3149D01*
X99491Y2799D01*
X99325Y2466D01*
X99125Y2183D01*
X99108Y2166D01*
X99075Y2133D01*
X99025Y2066D01*
X98958Y2000D01*
X98858Y1916D01*
X98742Y1816D01*
X98592Y1700D01*
X98442Y1600D01*
X98258Y1483D01*
X98075Y1367D01*
X97858Y1267D01*
X97625Y1183D01*
X97375Y1117D01*
X97092Y1050D01*
X96809Y1017D01*
X96509Y1000D01*
X96442D01*
X96342Y1017D01*
X96226D01*
X96092Y1033D01*
X95926Y1067D01*
X95742Y1100D01*
X95542Y1167D01*
X95326Y1233D01*
X95109Y1317D01*
X94876Y1417D01*
X94659Y1550D01*
X94426Y1683D01*
X94209Y1866D01*
X93993Y2050D01*
X93793Y2283D01*
X93776Y2300D01*
X93743Y2350D01*
X93693Y2433D01*
X93643Y2533D01*
X93560Y2683D01*
X93476Y2866D01*
X93376Y3099D01*
X93293Y3349D01*
X93193Y3649D01*
X93093Y3983D01*
X93010Y4366D01*
X92943Y4782D01*
X92877Y5249D01*
X92826Y5765D01*
X92793Y6315D01*
X92776Y6915D01*
Y6932D01*
Y6949D01*
Y6999D01*
Y7065D01*
Y7232D01*
X92793Y7448D01*
X92810Y7715D01*
X92843Y8031D01*
X92877Y8365D01*
X92910Y8731D01*
X92976Y9115D01*
X93043Y9498D01*
X93143Y9898D01*
X93243Y10281D01*
X93376Y10647D01*
X93526Y10997D01*
X93693Y11331D01*
X93893Y11614D01*
X93910Y11631D01*
X93943Y11664D01*
X93993Y11731D01*
X94076Y11797D01*
X94159Y11897D01*
X94276Y11997D01*
X94426Y12097D01*
X94576Y12214D01*
X94759Y12330D01*
X94943Y12430D01*
X95159Y12530D01*
X95393Y12630D01*
X95642Y12697D01*
X95926Y12764D01*
X96209Y12797D01*
X96509Y12814D01*
X96676D01*
X96792Y12797D01*
D02*
G37*
G36*
X74381D02*
X74514Y12780D01*
X74681Y12747D01*
X74848Y12714D01*
X75048Y12664D01*
X75264Y12597D01*
X75464Y12514D01*
X75681Y12430D01*
X75897Y12314D01*
X76114Y12164D01*
X76331Y12014D01*
X76531Y11831D01*
X76714Y11614D01*
X76731Y11597D01*
X76764Y11547D01*
X76814Y11464D01*
X76897Y11347D01*
X76981Y11181D01*
X77080Y10981D01*
X77181Y10764D01*
X77281Y10481D01*
X77380Y10181D01*
X77497Y9831D01*
X77580Y9448D01*
X77664Y9015D01*
X77747Y8548D01*
X77797Y8048D01*
X77830Y7498D01*
X77847Y6898D01*
Y6882D01*
Y6865D01*
Y6815D01*
Y6748D01*
Y6582D01*
X77830Y6365D01*
X77814Y6099D01*
X77780Y5782D01*
X77747Y5449D01*
X77714Y5082D01*
X77647Y4699D01*
X77564Y4299D01*
X77480Y3916D01*
X77364Y3533D01*
X77247Y3149D01*
X77080Y2799D01*
X76914Y2466D01*
X76714Y2183D01*
X76697Y2166D01*
X76664Y2133D01*
X76614Y2066D01*
X76547Y2000D01*
X76447Y1916D01*
X76331Y1816D01*
X76181Y1700D01*
X76031Y1600D01*
X75848Y1483D01*
X75664Y1367D01*
X75448Y1267D01*
X75214Y1183D01*
X74964Y1117D01*
X74681Y1050D01*
X74398Y1017D01*
X74098Y1000D01*
X74031D01*
X73931Y1017D01*
X73815D01*
X73681Y1033D01*
X73515Y1067D01*
X73331Y1100D01*
X73131Y1167D01*
X72915Y1233D01*
X72698Y1317D01*
X72465Y1417D01*
X72248Y1550D01*
X72015Y1683D01*
X71799Y1866D01*
X71582Y2050D01*
X71382Y2283D01*
X71365Y2300D01*
X71332Y2350D01*
X71282Y2433D01*
X71232Y2533D01*
X71149Y2683D01*
X71065Y2866D01*
X70965Y3099D01*
X70882Y3349D01*
X70782Y3649D01*
X70682Y3983D01*
X70599Y4366D01*
X70532Y4782D01*
X70465Y5249D01*
X70416Y5765D01*
X70382Y6315D01*
X70366Y6915D01*
Y6932D01*
Y6949D01*
Y6999D01*
Y7065D01*
Y7232D01*
X70382Y7448D01*
X70399Y7715D01*
X70432Y8031D01*
X70465Y8365D01*
X70499Y8731D01*
X70566Y9115D01*
X70632Y9498D01*
X70732Y9898D01*
X70832Y10281D01*
X70965Y10647D01*
X71115Y10997D01*
X71282Y11331D01*
X71482Y11614D01*
X71499Y11631D01*
X71532Y11664D01*
X71582Y11731D01*
X71665Y11797D01*
X71748Y11897D01*
X71865Y11997D01*
X72015Y12097D01*
X72165Y12214D01*
X72348Y12330D01*
X72532Y12430D01*
X72748Y12530D01*
X72982Y12630D01*
X73232Y12697D01*
X73515Y12764D01*
X73798Y12797D01*
X74098Y12814D01*
X74265D01*
X74381Y12797D01*
D02*
G37*
G36*
X42123D02*
X42256Y12780D01*
X42423Y12747D01*
X42589Y12714D01*
X42789Y12664D01*
X43006Y12597D01*
X43206Y12514D01*
X43422Y12430D01*
X43639Y12314D01*
X43856Y12164D01*
X44072Y12014D01*
X44272Y11831D01*
X44455Y11614D01*
X44472Y11597D01*
X44506Y11547D01*
X44556Y11464D01*
X44639Y11347D01*
X44722Y11181D01*
X44822Y10981D01*
X44922Y10764D01*
X45022Y10481D01*
X45122Y10181D01*
X45239Y9831D01*
X45322Y9448D01*
X45405Y9015D01*
X45489Y8548D01*
X45539Y8048D01*
X45572Y7498D01*
X45589Y6898D01*
Y6882D01*
Y6865D01*
Y6815D01*
Y6748D01*
Y6582D01*
X45572Y6365D01*
X45555Y6099D01*
X45522Y5782D01*
X45489Y5449D01*
X45455Y5082D01*
X45389Y4699D01*
X45305Y4299D01*
X45222Y3916D01*
X45105Y3533D01*
X44989Y3149D01*
X44822Y2799D01*
X44655Y2466D01*
X44455Y2183D01*
X44439Y2166D01*
X44405Y2133D01*
X44356Y2066D01*
X44289Y2000D01*
X44189Y1916D01*
X44072Y1816D01*
X43922Y1700D01*
X43772Y1600D01*
X43589Y1483D01*
X43406Y1367D01*
X43189Y1267D01*
X42956Y1183D01*
X42706Y1117D01*
X42423Y1050D01*
X42140Y1017D01*
X41839Y1000D01*
X41773D01*
X41673Y1017D01*
X41556D01*
X41423Y1033D01*
X41256Y1067D01*
X41073Y1100D01*
X40873Y1167D01*
X40656Y1233D01*
X40440Y1317D01*
X40207Y1417D01*
X39990Y1550D01*
X39757Y1683D01*
X39540Y1866D01*
X39323Y2050D01*
X39124Y2283D01*
X39107Y2300D01*
X39074Y2350D01*
X39024Y2433D01*
X38974Y2533D01*
X38890Y2683D01*
X38807Y2866D01*
X38707Y3099D01*
X38624Y3349D01*
X38524Y3649D01*
X38424Y3983D01*
X38340Y4366D01*
X38274Y4782D01*
X38207Y5249D01*
X38157Y5765D01*
X38124Y6315D01*
X38107Y6915D01*
Y6932D01*
Y6949D01*
Y6999D01*
Y7065D01*
Y7232D01*
X38124Y7448D01*
X38140Y7715D01*
X38174Y8031D01*
X38207Y8365D01*
X38240Y8731D01*
X38307Y9115D01*
X38374Y9498D01*
X38474Y9898D01*
X38574Y10281D01*
X38707Y10647D01*
X38857Y10997D01*
X39024Y11331D01*
X39223Y11614D01*
X39240Y11631D01*
X39274Y11664D01*
X39323Y11731D01*
X39407Y11797D01*
X39490Y11897D01*
X39607Y11997D01*
X39757Y12097D01*
X39907Y12214D01*
X40090Y12330D01*
X40273Y12430D01*
X40490Y12530D01*
X40723Y12630D01*
X40973Y12697D01*
X41256Y12764D01*
X41540Y12797D01*
X41839Y12814D01*
X42006D01*
X42123Y12797D01*
D02*
G37*
%LPC*%
G36*
X146429Y9431D02*
X143747Y5465D01*
X146429D01*
Y9431D01*
D02*
G37*
G36*
X27443Y10797D02*
X25710D01*
Y7515D01*
X27310D01*
X27427Y7532D01*
X27727D01*
X28026Y7548D01*
X28326Y7582D01*
X28593Y7632D01*
X28710Y7648D01*
X28809Y7682D01*
X28826Y7698D01*
X28893Y7715D01*
X28976Y7765D01*
X29076Y7815D01*
X29193Y7898D01*
X29309Y7998D01*
X29443Y8115D01*
X29543Y8248D01*
X29559Y8265D01*
X29593Y8315D01*
X29626Y8398D01*
X29676Y8515D01*
X29726Y8648D01*
X29776Y8798D01*
X29793Y8965D01*
X29809Y9148D01*
Y9181D01*
Y9248D01*
X29793Y9365D01*
X29759Y9514D01*
X29709Y9681D01*
X29643Y9864D01*
X29559Y10031D01*
X29426Y10198D01*
X29409Y10214D01*
X29359Y10264D01*
X29276Y10331D01*
X29176Y10414D01*
X29043Y10514D01*
X28876Y10597D01*
X28693Y10664D01*
X28493Y10714D01*
X28476D01*
X28410Y10731D01*
X28293Y10747D01*
X28126Y10764D01*
X27910D01*
X27760Y10781D01*
X27610D01*
X27443Y10797D01*
D02*
G37*
G36*
X127884Y10981D02*
X127817D01*
X127734Y10964D01*
X127651Y10948D01*
X127534Y10914D01*
X127418Y10864D01*
X127284Y10797D01*
X127168Y10714D01*
X127151Y10697D01*
X127118Y10664D01*
X127068Y10597D01*
X127001Y10514D01*
X126918Y10381D01*
X126851Y10231D01*
X126768Y10031D01*
X126701Y9798D01*
Y9781D01*
X126685Y9764D01*
Y9698D01*
X126668Y9631D01*
X126651Y9531D01*
X126635Y9414D01*
X126618Y9281D01*
X126601Y9115D01*
X126568Y8915D01*
X126551Y8715D01*
X126535Y8465D01*
X126518Y8215D01*
X126501Y7915D01*
Y7615D01*
X126484Y7265D01*
Y6898D01*
Y6882D01*
Y6815D01*
Y6698D01*
Y6565D01*
Y6399D01*
X126501Y6215D01*
Y5999D01*
X126518Y5782D01*
X126535Y5316D01*
X126568Y4849D01*
X126585Y4632D01*
X126618Y4433D01*
X126651Y4249D01*
X126685Y4083D01*
X126701Y4049D01*
X126718Y3966D01*
X126768Y3833D01*
X126818Y3683D01*
X126901Y3516D01*
X126984Y3349D01*
X127084Y3199D01*
X127184Y3083D01*
X127201Y3066D01*
X127234Y3049D01*
X127301Y3000D01*
X127384Y2966D01*
X127484Y2916D01*
X127601Y2866D01*
X127734Y2849D01*
X127884Y2833D01*
X127951D01*
X128034Y2849D01*
X128117Y2866D01*
X128234Y2900D01*
X128351Y2933D01*
X128467Y3000D01*
X128584Y3083D01*
X128601Y3099D01*
X128634Y3133D01*
X128701Y3199D01*
X128767Y3299D01*
X128834Y3416D01*
X128917Y3583D01*
X129001Y3766D01*
X129067Y3999D01*
Y4016D01*
X129084Y4033D01*
Y4099D01*
X129101Y4166D01*
X129117Y4266D01*
X129134Y4383D01*
X129167Y4516D01*
X129184Y4682D01*
X129200Y4866D01*
X129234Y5082D01*
X129250Y5316D01*
X129267Y5582D01*
X129284Y5865D01*
Y6182D01*
X129300Y6532D01*
Y6898D01*
Y6915D01*
Y6982D01*
Y7098D01*
Y7232D01*
Y7398D01*
X129284Y7582D01*
Y7798D01*
X129267Y8015D01*
X129250Y8481D01*
X129217Y8931D01*
X129184Y9148D01*
X129150Y9365D01*
X129117Y9548D01*
X129084Y9698D01*
Y9714D01*
X129067Y9731D01*
X129051Y9814D01*
X129001Y9948D01*
X128951Y10114D01*
X128867Y10281D01*
X128784Y10448D01*
X128684Y10597D01*
X128584Y10714D01*
X128567Y10731D01*
X128534Y10764D01*
X128467Y10797D01*
X128384Y10848D01*
X128284Y10898D01*
X128167Y10948D01*
X128034Y10964D01*
X127884Y10981D01*
D02*
G37*
G36*
X105473Y11064D02*
X105373D01*
X105257Y11047D01*
X105107Y11014D01*
X104940Y10964D01*
X104773Y10898D01*
X104607Y10814D01*
X104457Y10681D01*
X104440Y10664D01*
X104407Y10614D01*
X104340Y10531D01*
X104274Y10414D01*
X104207Y10264D01*
X104140Y10098D01*
X104107Y9898D01*
X104090Y9664D01*
Y9631D01*
Y9548D01*
X104107Y9431D01*
X104140Y9281D01*
X104174Y9115D01*
X104240Y8948D01*
X104340Y8781D01*
X104457Y8631D01*
X104473Y8615D01*
X104523Y8581D01*
X104607Y8515D01*
X104723Y8448D01*
X104873Y8381D01*
X105040Y8315D01*
X105240Y8281D01*
X105457Y8265D01*
X105557D01*
X105673Y8281D01*
X105823Y8315D01*
X105990Y8348D01*
X106156Y8415D01*
X106323Y8515D01*
X106473Y8631D01*
X106490Y8648D01*
X106540Y8698D01*
X106590Y8781D01*
X106673Y8915D01*
X106740Y9065D01*
X106790Y9231D01*
X106840Y9448D01*
X106856Y9681D01*
Y9714D01*
Y9781D01*
X106840Y9898D01*
X106806Y10031D01*
X106756Y10198D01*
X106690Y10364D01*
X106606Y10531D01*
X106473Y10681D01*
X106456Y10697D01*
X106406Y10747D01*
X106323Y10797D01*
X106206Y10881D01*
X106056Y10948D01*
X105890Y10997D01*
X105690Y11047D01*
X105473Y11064D01*
D02*
G37*
G36*
X105490Y6515D02*
X105357D01*
X105207Y6482D01*
X105040Y6449D01*
X104840Y6382D01*
X104640Y6282D01*
X104440Y6132D01*
X104274Y5949D01*
X104257Y5915D01*
X104207Y5849D01*
X104157Y5732D01*
X104090Y5582D01*
X104007Y5399D01*
X103957Y5199D01*
X103907Y4966D01*
X103890Y4732D01*
Y4716D01*
Y4699D01*
Y4649D01*
Y4582D01*
X103924Y4416D01*
X103957Y4199D01*
X104007Y3966D01*
X104090Y3733D01*
X104207Y3499D01*
X104357Y3283D01*
X104374Y3266D01*
X104440Y3199D01*
X104540Y3133D01*
X104674Y3033D01*
X104840Y2950D01*
X105040Y2866D01*
X105273Y2799D01*
X105523Y2783D01*
X105640D01*
X105757Y2816D01*
X105923Y2849D01*
X106106Y2900D01*
X106290Y2983D01*
X106473Y3099D01*
X106656Y3266D01*
X106673Y3283D01*
X106723Y3366D01*
X106806Y3466D01*
X106890Y3633D01*
X106973Y3833D01*
X107056Y4083D01*
X107106Y4366D01*
X107123Y4699D01*
Y4716D01*
Y4732D01*
Y4832D01*
X107106Y4982D01*
X107073Y5166D01*
X107006Y5382D01*
X106923Y5599D01*
X106806Y5815D01*
X106656Y6015D01*
X106640Y6032D01*
X106573Y6099D01*
X106473Y6182D01*
X106340Y6265D01*
X106173Y6365D01*
X105973Y6432D01*
X105740Y6499D01*
X105490Y6515D01*
D02*
G37*
G36*
X96509Y10981D02*
X96442D01*
X96359Y10964D01*
X96276Y10948D01*
X96159Y10914D01*
X96042Y10864D01*
X95909Y10797D01*
X95792Y10714D01*
X95776Y10697D01*
X95742Y10664D01*
X95692Y10597D01*
X95626Y10514D01*
X95542Y10381D01*
X95476Y10231D01*
X95393Y10031D01*
X95326Y9798D01*
Y9781D01*
X95309Y9764D01*
Y9698D01*
X95293Y9631D01*
X95276Y9531D01*
X95259Y9414D01*
X95243Y9281D01*
X95226Y9115D01*
X95192Y8915D01*
X95176Y8715D01*
X95159Y8465D01*
X95143Y8215D01*
X95126Y7915D01*
Y7615D01*
X95109Y7265D01*
Y6898D01*
Y6882D01*
Y6815D01*
Y6698D01*
Y6565D01*
Y6399D01*
X95126Y6215D01*
Y5999D01*
X95143Y5782D01*
X95159Y5316D01*
X95192Y4849D01*
X95209Y4632D01*
X95243Y4433D01*
X95276Y4249D01*
X95309Y4083D01*
X95326Y4049D01*
X95343Y3966D01*
X95393Y3833D01*
X95442Y3683D01*
X95526Y3516D01*
X95609Y3349D01*
X95709Y3199D01*
X95809Y3083D01*
X95826Y3066D01*
X95859Y3049D01*
X95926Y3000D01*
X96009Y2966D01*
X96109Y2916D01*
X96226Y2866D01*
X96359Y2849D01*
X96509Y2833D01*
X96575D01*
X96659Y2849D01*
X96742Y2866D01*
X96859Y2900D01*
X96975Y2933D01*
X97092Y3000D01*
X97209Y3083D01*
X97225Y3099D01*
X97259Y3133D01*
X97325Y3199D01*
X97392Y3299D01*
X97459Y3416D01*
X97542Y3583D01*
X97625Y3766D01*
X97692Y3999D01*
Y4016D01*
X97709Y4033D01*
Y4099D01*
X97725Y4166D01*
X97742Y4266D01*
X97759Y4383D01*
X97792Y4516D01*
X97809Y4682D01*
X97825Y4866D01*
X97858Y5082D01*
X97875Y5316D01*
X97892Y5582D01*
X97908Y5865D01*
Y6182D01*
X97925Y6532D01*
Y6898D01*
Y6915D01*
Y6982D01*
Y7098D01*
Y7232D01*
Y7398D01*
X97908Y7582D01*
Y7798D01*
X97892Y8015D01*
X97875Y8481D01*
X97842Y8931D01*
X97809Y9148D01*
X97775Y9365D01*
X97742Y9548D01*
X97709Y9698D01*
Y9714D01*
X97692Y9731D01*
X97675Y9814D01*
X97625Y9948D01*
X97575Y10114D01*
X97492Y10281D01*
X97409Y10448D01*
X97309Y10597D01*
X97209Y10714D01*
X97192Y10731D01*
X97159Y10764D01*
X97092Y10797D01*
X97009Y10848D01*
X96909Y10898D01*
X96792Y10948D01*
X96659Y10964D01*
X96509Y10981D01*
D02*
G37*
G36*
X74098D02*
X74031D01*
X73948Y10964D01*
X73865Y10948D01*
X73748Y10914D01*
X73631Y10864D01*
X73498Y10797D01*
X73382Y10714D01*
X73365Y10697D01*
X73331Y10664D01*
X73281Y10597D01*
X73215Y10514D01*
X73131Y10381D01*
X73065Y10231D01*
X72982Y10031D01*
X72915Y9798D01*
Y9781D01*
X72898Y9764D01*
Y9698D01*
X72882Y9631D01*
X72865Y9531D01*
X72848Y9414D01*
X72832Y9281D01*
X72815Y9115D01*
X72782Y8915D01*
X72765Y8715D01*
X72748Y8465D01*
X72732Y8215D01*
X72715Y7915D01*
Y7615D01*
X72698Y7265D01*
Y6898D01*
Y6882D01*
Y6815D01*
Y6698D01*
Y6565D01*
Y6399D01*
X72715Y6215D01*
Y5999D01*
X72732Y5782D01*
X72748Y5316D01*
X72782Y4849D01*
X72798Y4632D01*
X72832Y4433D01*
X72865Y4249D01*
X72898Y4083D01*
X72915Y4049D01*
X72932Y3966D01*
X72982Y3833D01*
X73032Y3683D01*
X73115Y3516D01*
X73198Y3349D01*
X73298Y3199D01*
X73398Y3083D01*
X73415Y3066D01*
X73448Y3049D01*
X73515Y3000D01*
X73598Y2966D01*
X73698Y2916D01*
X73815Y2866D01*
X73948Y2849D01*
X74098Y2833D01*
X74165D01*
X74248Y2849D01*
X74331Y2866D01*
X74448Y2900D01*
X74564Y2933D01*
X74681Y3000D01*
X74798Y3083D01*
X74814Y3099D01*
X74848Y3133D01*
X74914Y3199D01*
X74981Y3299D01*
X75048Y3416D01*
X75131Y3583D01*
X75214Y3766D01*
X75281Y3999D01*
Y4016D01*
X75298Y4033D01*
Y4099D01*
X75314Y4166D01*
X75331Y4266D01*
X75348Y4383D01*
X75381Y4516D01*
X75398Y4682D01*
X75414Y4866D01*
X75448Y5082D01*
X75464Y5316D01*
X75481Y5582D01*
X75498Y5865D01*
Y6182D01*
X75514Y6532D01*
Y6898D01*
Y6915D01*
Y6982D01*
Y7098D01*
Y7232D01*
Y7398D01*
X75498Y7582D01*
Y7798D01*
X75481Y8015D01*
X75464Y8481D01*
X75431Y8931D01*
X75398Y9148D01*
X75364Y9365D01*
X75331Y9548D01*
X75298Y9698D01*
Y9714D01*
X75281Y9731D01*
X75264Y9814D01*
X75214Y9948D01*
X75164Y10114D01*
X75081Y10281D01*
X74998Y10448D01*
X74898Y10597D01*
X74798Y10714D01*
X74781Y10731D01*
X74748Y10764D01*
X74681Y10797D01*
X74598Y10848D01*
X74498Y10898D01*
X74381Y10948D01*
X74248Y10964D01*
X74098Y10981D01*
D02*
G37*
G36*
X41839D02*
X41773D01*
X41690Y10964D01*
X41606Y10948D01*
X41490Y10914D01*
X41373Y10864D01*
X41240Y10797D01*
X41123Y10714D01*
X41106Y10697D01*
X41073Y10664D01*
X41023Y10597D01*
X40956Y10514D01*
X40873Y10381D01*
X40806Y10231D01*
X40723Y10031D01*
X40656Y9798D01*
Y9781D01*
X40640Y9764D01*
Y9698D01*
X40623Y9631D01*
X40606Y9531D01*
X40590Y9414D01*
X40573Y9281D01*
X40557Y9115D01*
X40523Y8915D01*
X40507Y8715D01*
X40490Y8465D01*
X40473Y8215D01*
X40457Y7915D01*
Y7615D01*
X40440Y7265D01*
Y6898D01*
Y6882D01*
Y6815D01*
Y6698D01*
Y6565D01*
Y6399D01*
X40457Y6215D01*
Y5999D01*
X40473Y5782D01*
X40490Y5316D01*
X40523Y4849D01*
X40540Y4632D01*
X40573Y4433D01*
X40606Y4249D01*
X40640Y4083D01*
X40656Y4049D01*
X40673Y3966D01*
X40723Y3833D01*
X40773Y3683D01*
X40856Y3516D01*
X40940Y3349D01*
X41040Y3199D01*
X41140Y3083D01*
X41156Y3066D01*
X41190Y3049D01*
X41256Y3000D01*
X41340Y2966D01*
X41440Y2916D01*
X41556Y2866D01*
X41690Y2849D01*
X41839Y2833D01*
X41906D01*
X41989Y2849D01*
X42073Y2866D01*
X42189Y2900D01*
X42306Y2933D01*
X42423Y3000D01*
X42539Y3083D01*
X42556Y3099D01*
X42589Y3133D01*
X42656Y3199D01*
X42723Y3299D01*
X42789Y3416D01*
X42873Y3583D01*
X42956Y3766D01*
X43023Y3999D01*
Y4016D01*
X43039Y4033D01*
Y4099D01*
X43056Y4166D01*
X43073Y4266D01*
X43089Y4383D01*
X43123Y4516D01*
X43139Y4682D01*
X43156Y4866D01*
X43189Y5082D01*
X43206Y5316D01*
X43222Y5582D01*
X43239Y5865D01*
Y6182D01*
X43256Y6532D01*
Y6898D01*
Y6915D01*
Y6982D01*
Y7098D01*
Y7232D01*
Y7398D01*
X43239Y7582D01*
Y7798D01*
X43222Y8015D01*
X43206Y8481D01*
X43172Y8931D01*
X43139Y9148D01*
X43106Y9365D01*
X43073Y9548D01*
X43039Y9698D01*
Y9714D01*
X43023Y9731D01*
X43006Y9814D01*
X42956Y9948D01*
X42906Y10114D01*
X42823Y10281D01*
X42739Y10448D01*
X42639Y10597D01*
X42539Y10714D01*
X42523Y10731D01*
X42489Y10764D01*
X42423Y10797D01*
X42339Y10848D01*
X42239Y10898D01*
X42123Y10948D01*
X41989Y10964D01*
X41839Y10981D01*
D02*
G37*
%LPD*%
D10*
X203000Y127000D02*
X217000D01*
X203000Y99000D02*
X217000D01*
Y127000D01*
X203000Y99000D02*
Y127000D01*
Y38000D02*
X217000D01*
X203000Y66000D02*
X217000D01*
X203000Y38000D02*
Y66000D01*
X217000Y38000D02*
Y66000D01*
X176000Y76000D02*
Y90000D01*
X204000Y76000D02*
Y90000D01*
X176000D02*
X204000D01*
X176000Y76000D02*
X204000D01*
X94000Y18000D02*
Y32000D01*
X122000Y18000D02*
Y32000D01*
X94000D02*
X122000D01*
X94000Y18000D02*
X122000D01*
X95000Y122000D02*
Y136000D01*
X123000Y122000D02*
Y136000D01*
X95000D02*
X123000D01*
X95000Y122000D02*
X123000D01*
X114000Y63000D02*
Y77000D01*
X142000Y63000D02*
Y77000D01*
X114000D02*
X142000D01*
X114000Y63000D02*
X142000D01*
X114000Y88000D02*
Y102000D01*
X142000Y88000D02*
Y102000D01*
X114000D02*
X142000D01*
X114000Y88000D02*
X142000D01*
X73669Y124002D02*
Y133998D01*
X78668D01*
X80334Y132332D01*
Y129000D01*
X78668Y127334D01*
X73669D01*
X77002D02*
X80334Y124002D01*
X90331Y133998D02*
X83666D01*
Y129000D01*
X86998Y130666D01*
X88665D01*
X90331Y129000D01*
Y125668D01*
X88665Y124002D01*
X85332D01*
X83666Y125668D01*
X72669Y20002D02*
Y29998D01*
X77668D01*
X79334Y28332D01*
Y25000D01*
X77668Y23334D01*
X72669D01*
X76002D02*
X79334Y20002D01*
X87664D02*
Y29998D01*
X82666Y25000D01*
X89331D01*
X181669Y97002D02*
Y106998D01*
X186668D01*
X188334Y105332D01*
Y102000D01*
X186668Y100334D01*
X181669D01*
X185002D02*
X188334Y97002D01*
X191666Y105332D02*
X193332Y106998D01*
X196665D01*
X198331Y105332D01*
Y103666D01*
X196665Y102000D01*
X194998D01*
X196665D01*
X198331Y100334D01*
Y98668D01*
X196665Y97002D01*
X193332D01*
X191666Y98668D01*
X201669Y22002D02*
Y31998D01*
X206668D01*
X208334Y30332D01*
Y27000D01*
X206668Y25334D01*
X201669D01*
X205002D02*
X208334Y22002D01*
X218331D02*
X211666D01*
X218331Y28666D01*
Y30332D01*
X216665Y31998D01*
X213332D01*
X211666Y30332D01*
X203335Y133002D02*
Y142998D01*
X208334D01*
X210000Y141332D01*
Y138000D01*
X208334Y136334D01*
X203335D01*
X206668D02*
X210000Y133002D01*
X213332D02*
X216665D01*
X214998D01*
Y142998D01*
X213332Y141332D01*
X126334Y56332D02*
X124668Y57998D01*
X121335D01*
X119669Y56332D01*
Y49668D01*
X121335Y48002D01*
X124668D01*
X126334Y49668D01*
X136331Y48002D02*
X129666D01*
X136331Y54666D01*
Y56332D01*
X134664Y57998D01*
X131332D01*
X129666Y56332D01*
X127000Y115332D02*
X125334Y116998D01*
X122002D01*
X120336Y115332D01*
Y108668D01*
X122002Y107002D01*
X125334D01*
X127000Y108668D01*
X130332Y107002D02*
X133665D01*
X131998D01*
Y116998D01*
X130332Y115332D01*
M02*
