G04*
G04 #@! TF.GenerationSoftware,Altium Limited,Altium Designer,21.8.1 (53)*
G04*
G04 Layer_Color=32896*
%FSLAX44Y44*%
%MOMM*%
G71*
G04*
G04 #@! TF.SameCoordinates,5D2DE1CA-8E9C-4F84-8D06-91F005850216*
G04*
G04*
G04 #@! TF.FilePolarity,Positive*
G04*
G01*
G75*
%ADD10C,0.2000*%
%ADD25C,0.2540*%
D10*
X12060Y120640D02*
X67940D01*
Y39360D02*
Y120640D01*
X12060Y39360D02*
X67940D01*
X12060D02*
Y120640D01*
X237663Y150998D02*
Y141002D01*
X232665D01*
X230998Y142668D01*
Y144334D01*
X232665Y146000D01*
X237663D01*
X232665D01*
X230998Y147666D01*
Y149332D01*
X232665Y150998D01*
X237663D01*
X227666Y141002D02*
Y150998D01*
X222668D01*
X221002Y149332D01*
Y146000D01*
X222668Y144334D01*
X227666D01*
X224334D02*
X221002Y141002D01*
X217669D02*
X214337D01*
X216003D01*
Y150998D01*
X217669Y149332D01*
D25*
X188000Y25000D02*
X238000D01*
Y39142D01*
Y120858D02*
Y135000D01*
X188000D02*
X238000D01*
X93000Y25000D02*
X138000D01*
X93000D02*
Y39142D01*
Y135000D02*
X138000D01*
X93000Y125000D02*
Y135000D01*
X48157Y27617D02*
X38000Y12383D01*
Y27617D02*
X48157Y12383D01*
X32922D02*
X27843D01*
X30382D01*
Y27617D01*
X32922Y25078D01*
M02*
